<svg width="171" height="171" viewBox="0 0 171 171" fill="none" xmlns="http://www.w3.org/2000/svg">
<path d="M70.9981 24.1251V12.4354C70.9981 9.38605 73.4701 6.91406 76.5194 6.91406H93.4234M70.9981 24.1251H57.2648M70.9981 24.1251V48.4627M33.1019 42.9867V59.6398C33.1019 60.8596 34.0907 61.8484 35.3105 61.8484H40.4637M33.1019 42.9867H57.1543C57.2153 42.9867 57.2648 42.9373 57.2648 42.8763V24.1251M33.1019 42.9867C33.1019 32.5697 41.5466 24.1251 51.9636 24.1251H57.2648M70.9981 48.4627V61.8484M70.9981 48.4627H137.406M70.9981 61.8484H106.593M70.9981 61.8484H63.5557M137.406 48.4627V61.7379C137.406 61.7989 137.356 61.8484 137.295 61.8484H129.864M137.406 48.4627V12.4354C137.406 9.38605 134.934 6.91406 131.884 6.91406H114.284M93.4234 6.91406V27.94C93.4234 28.0232 93.5119 28.0765 93.5855 28.0376L103.802 22.6294C103.834 22.6123 103.873 22.6123 103.905 22.6294L114.122 28.0376C114.196 28.0765 114.284 28.0232 114.284 27.94V6.91406M93.4234 6.91406H114.284M85.6582 121.936H71.2229C67.5637 121.936 64.5973 124.902 64.5973 128.562V157.432C64.5973 161.092 67.5637 164.058 71.2229 164.058H100.093C103.753 164.058 106.719 161.092 106.719 157.432V128.562C106.719 124.902 103.753 121.936 100.093 121.936H85.6582ZM85.6582 121.936V62.1425M33.1019 121.973H18.6666C15.0074 121.973 12.041 124.939 12.041 128.598V157.469C12.041 161.128 15.0074 164.095 18.6666 164.095H47.5372C51.1964 164.095 54.1628 161.128 54.1628 157.469V128.598C54.1628 124.939 51.1964 121.973 47.5372 121.973H33.1019ZM33.1019 121.973V104.507C33.1019 100.848 36.0683 97.8812 39.7275 97.8812L130.78 97.8928C134.439 97.8928 137.406 100.859 137.406 104.518V121.9M137.406 121.9H122.97C119.311 121.9 116.345 124.866 116.345 128.525V157.396C116.345 161.055 119.311 164.021 122.97 164.021H151.841C155.5 164.021 158.467 161.055 158.467 157.396V128.525C158.467 124.866 155.5 121.9 151.841 121.9H137.406ZM19.8011 164.131V154.443C19.8011 150.784 22.7675 147.817 26.4267 147.817H39.7793C43.4385 147.817 46.4049 150.784 46.4049 154.443V164.131M72.3574 164.094V154.406C72.3574 150.747 75.3238 147.781 78.983 147.781H92.3356C95.9948 147.781 98.9612 150.747 98.9612 154.406V164.094M124.105 164.058V154.37C124.105 150.711 127.071 147.744 130.73 147.744H144.083C147.742 147.744 150.709 150.711 150.709 154.37V164.058M63.5599 62.1924C63.5599 68.468 58.4725 73.5553 52.1969 73.5553C45.9213 73.5553 40.834 68.468 40.834 62.1924C40.834 55.9168 45.9213 50.8294 52.1969 50.8294C58.4725 50.8294 63.5599 55.9168 63.5599 62.1924ZM129.445 62.1438C129.445 68.4194 124.358 73.5068 118.082 73.5068C111.807 73.5068 106.719 68.4194 106.719 62.1438C106.719 55.8682 111.807 50.7809 118.082 50.7809C124.358 50.7809 129.445 55.8682 129.445 62.1438ZM57.1101 62.1924C57.1101 64.9058 54.9104 67.1055 52.1969 67.1055C49.4835 67.1055 47.2838 64.9058 47.2838 62.1924C47.2838 59.4789 49.4835 57.2792 52.1969 57.2792C54.9104 57.2792 57.1101 59.4789 57.1101 62.1924ZM39.8871 138.46C39.8871 142.208 36.8488 145.247 33.1008 145.247C29.3529 145.247 26.3145 142.208 26.3145 138.46C26.3145 134.712 29.3529 131.674 33.1008 131.674C36.8488 131.674 39.8871 134.712 39.8871 138.46ZM92.4434 138.424C92.4434 142.172 89.4051 145.21 85.6571 145.21C81.9092 145.21 78.8708 142.172 78.8708 138.424C78.8708 134.676 81.9092 131.637 85.6571 131.637C89.4051 131.637 92.4434 134.676 92.4434 138.424ZM144.191 138.387C144.191 142.135 141.153 145.174 137.405 145.174C133.657 145.174 130.618 142.135 130.618 138.387C130.618 134.639 133.657 131.601 137.405 131.601C141.153 131.601 144.191 134.639 144.191 138.387ZM122.994 62.0953C122.994 64.8088 120.795 67.0084 118.081 67.0084C115.368 67.0084 113.168 64.8088 113.168 62.0953C113.168 59.3819 115.368 57.1822 118.081 57.1822C120.795 57.1822 122.994 59.3819 122.994 62.0953Z" stroke="url(#paint0_linear_268_706)" stroke-width="2"/>
<defs>
<linearGradient id="paint0_linear_268_706" x1="212.586" y1="191.577" x2="54.1955" y2="-63.947" gradientUnits="userSpaceOnUse">
<stop stop-color="#5487B0"/>
<stop offset="1" stop-color="#58C890"/>
</linearGradient>
</defs>
</svg>
