<svg width="171" height="170" viewBox="0 0 171 170" fill="none" xmlns="http://www.w3.org/2000/svg">
<path d="M58.0794 156.646C57.5271 156.646 57.0794 157.093 57.0794 157.646C57.0794 158.198 57.5271 158.646 58.0794 158.646V156.646ZM56.9201 161.753C56.3678 161.753 55.9201 162.2 55.9201 162.753C55.9201 163.305 56.3678 163.753 56.9201 163.753V161.753ZM45.0386 149.345C45.0386 149.898 45.4863 150.345 46.0386 150.345C46.5909 150.345 47.0386 149.898 47.0386 149.345L45.0386 149.345ZM46.0386 59.6781L47.0386 59.6781L46.0386 59.6781ZM31.7596 39.7392C31.2076 39.7581 30.7755 40.2208 30.7944 40.7728C30.8133 41.3248 31.2761 41.7569 31.828 41.738L31.7596 39.7392ZM31.7951 34.1075C31.2428 34.1075 30.7951 34.5552 30.7951 35.1075C30.7951 35.6598 31.2428 36.1075 31.7951 36.1075L31.7951 34.1075ZM51.1455 59.6781L52.1455 59.6781L52.1455 59.6732L51.1455 59.6781ZM50.1455 149.345C50.1455 149.898 50.5932 150.345 51.1455 150.345C51.6978 150.345 52.1455 149.898 52.1455 149.345H50.1455ZM101.402 10.5961L101.403 9.59614H101.402V10.5961ZM158.773 10.5961L158.773 9.59613L158.769 9.59615L158.773 10.5961ZM142.991 8.50556L142.991 9.50556H142.991V8.50556ZM117.187 8.50556L117.187 9.50556L117.187 9.50556L117.187 8.50556ZM113.197 10.3508L112.436 9.70294L112.436 9.70294L113.197 10.3508ZM146.981 10.3508L147.743 9.70294L147.743 9.70294L146.981 10.3508ZM124.047 39.792C123.494 39.7902 123.045 40.2364 123.043 40.7887C123.041 41.3409 123.488 41.7901 124.04 41.792L124.047 39.792ZM153.051 41.889C153.603 41.8908 154.052 41.4446 154.054 40.8923C154.056 40.3401 153.61 39.8908 153.058 39.889L153.051 41.889ZM124.047 54.0835C123.494 54.0816 123.045 54.5278 123.043 55.0801C123.041 55.6324 123.488 56.0816 124.04 56.0834L124.047 54.0835ZM153.051 56.1804C153.603 56.1823 154.052 55.7361 154.054 55.1838C154.056 54.6315 153.61 54.1823 153.058 54.1804L153.051 56.1804ZM124.047 67.0277C123.494 67.0259 123.045 67.4721 123.043 68.0244C123.041 68.5767 123.488 69.0259 124.04 69.0277L124.047 67.0277ZM153.051 69.1247C153.603 69.1266 154.052 68.6803 154.054 68.1281C154.056 67.5758 153.61 67.1266 153.058 67.1247L153.051 69.1247ZM124.043 44.9223C123.491 44.9223 123.043 45.37 123.043 45.9223C123.043 46.4746 123.491 46.9223 124.043 46.9223V44.9223ZM148.075 46.9223C148.628 46.9223 149.075 46.4746 149.075 45.9223C149.075 45.37 148.628 44.9223 148.075 44.9223V46.9223ZM124.043 59.2138C123.491 59.2138 123.043 59.6615 123.043 60.2138C123.043 60.7661 123.491 61.2138 124.043 61.2138V59.2138ZM148.075 61.2138C148.628 61.2138 149.075 60.7661 149.075 60.2138C149.075 59.6615 148.628 59.2138 148.075 59.2138V61.2138ZM124.043 72.1538C123.491 72.1538 123.043 72.6015 123.043 73.1538C123.043 73.7061 123.491 74.1538 124.043 74.1538V72.1538ZM148.076 74.1538C148.628 74.1538 149.076 73.7061 149.076 73.1538C149.076 72.6015 148.628 72.1538 148.076 72.1538V74.1538ZM147.21 9.64597C146.658 9.64835 146.212 10.098 146.214 10.6503C146.217 11.2026 146.666 11.6483 147.219 11.646L147.21 9.64597ZM112.992 10.6087L113.793 11.2076L112.992 10.6087ZM90.2093 85.2304L90.5718 86.1624L90.5718 86.1624L90.2093 85.2304ZM95.97 82.9897L96.3325 83.9217L96.3325 83.9217L95.97 82.9897ZM96.054 82.9897L95.6915 83.9217L95.6915 83.9217L96.054 82.9897ZM101.815 85.2304L101.452 86.1624L101.452 86.1624L101.815 85.2304ZM74.1632 127.784L74.5257 128.716L74.5257 128.716L74.1632 127.784ZM79.9239 125.544L80.2864 126.476L80.2864 126.476L79.9239 125.544ZM80.0079 125.544L79.6454 126.476L79.6454 126.476L80.0079 125.544ZM85.7686 127.784L85.4061 128.716L85.4061 128.716L85.7686 127.784ZM116.754 127.784L117.117 128.716L117.117 128.716L116.754 127.784ZM122.515 125.544L122.878 126.476L122.878 126.476L122.515 125.544ZM122.599 125.544L122.237 126.476L122.237 126.476L122.599 125.544ZM128.36 127.784L127.997 128.716L127.997 128.716L128.36 127.784ZM56.3186 158.406C56.3186 162.673 52.8595 166.133 48.5925 166.133V168.133C53.9641 168.133 58.3186 163.778 58.3186 158.406H56.3186ZM48.5925 166.133C44.3255 166.133 40.8664 162.673 40.8664 158.406H38.8664C38.8664 163.778 43.2209 168.133 48.5925 168.133V166.133ZM40.8664 158.406C40.8664 154.139 44.3255 150.68 48.5925 150.68V148.68C43.2209 148.68 38.8664 153.035 38.8664 158.406H40.8664ZM48.5925 150.68C52.8595 150.68 56.3186 154.139 56.3186 158.406H58.3186C58.3186 153.035 53.9641 148.68 48.5925 148.68V150.68ZM51.154 158.405C51.154 159.819 50.0077 160.966 48.5936 160.966V162.966C51.1123 162.966 53.154 160.924 53.154 158.405H51.154ZM48.5936 160.966C47.1796 160.966 46.0332 159.819 46.0332 158.405H44.0332C44.0332 160.924 46.075 162.966 48.5936 162.966V160.966ZM46.0332 158.405C46.0332 156.991 47.1796 155.845 48.5936 155.845V153.845C46.075 153.845 44.0332 155.887 44.0332 158.405H46.0332ZM48.5936 155.845C50.0077 155.845 51.154 156.991 51.154 158.405H53.154C53.154 155.887 51.1123 153.845 48.5936 153.845V155.845ZM58.0794 158.646H146.608V156.646H58.0794V158.646ZM145.724 157.762V162.637H147.724V157.762H145.724ZM146.608 161.753H56.9201V163.753H146.608V161.753ZM145.724 162.637C145.724 162.149 146.12 161.753 146.608 161.753V163.753C147.225 163.753 147.724 163.253 147.724 162.637H145.724ZM146.608 158.646C146.12 158.646 145.724 158.25 145.724 157.762H147.724C147.724 157.146 147.225 156.646 146.608 156.646V158.646ZM47.0386 149.345L47.0386 59.6781L45.0386 59.6781L45.0386 149.345L47.0386 149.345ZM47.0386 59.6781C47.0386 56.8875 47.1519 51.8074 45.3259 47.4979C44.4011 45.3153 42.9642 43.2875 40.7378 41.8472C38.5104 40.4062 35.5783 39.6084 31.7596 39.7392L31.828 41.738C35.3279 41.6181 37.8356 42.3517 39.6514 43.5264C41.4681 44.7017 42.6776 46.3739 43.4844 48.2781C45.1216 52.1421 45.0386 56.7824 45.0386 59.6781L47.0386 59.6781ZM31.7951 36.1075C39.1417 36.1075 43.5778 37.9693 46.2626 41.6322C49.0112 45.3819 50.1042 51.2385 50.1455 59.683L52.1455 59.6732C52.104 51.1795 51.0284 44.7509 47.8757 40.4498C44.6593 36.0618 39.4616 34.1075 31.7951 34.1075L31.7951 36.1075ZM50.1455 59.6781V149.345H52.1455V59.6781H50.1455ZM10.3314 33.3465H31.1262V31.3465H10.3314V33.3465ZM30.2421 32.4624V42.8699H32.2421V32.4624H30.2421ZM31.1262 41.9858H10.3314V43.9858H31.1262V41.9858ZM10.3314 41.9858C7.9457 41.9858 6.01172 40.0518 6.01172 37.6661H4.01172C4.01172 41.1564 6.84113 43.9858 10.3314 43.9858V41.9858ZM30.2421 42.8699C30.2421 42.3816 30.638 41.9858 31.1262 41.9858V43.9858C31.7425 43.9858 32.2421 43.4862 32.2421 42.8699H30.2421ZM31.1262 33.3465C30.638 33.3465 30.2421 32.9506 30.2421 32.4624H32.2421C32.2421 31.8461 31.7425 31.3465 31.1262 31.3465V33.3465ZM10.3314 31.3465C6.84113 31.3465 4.01172 34.1759 4.01172 37.6661H6.01172C6.01172 35.2804 7.9457 33.3465 10.3314 33.3465V31.3465ZM165.626 18.4488V96.8498H167.626V18.4488H165.626ZM94.5492 18.4488C94.5492 14.6642 97.6172 11.5961 101.402 11.5961V9.59614C96.5127 9.59614 92.5492 13.5596 92.5492 18.4488H94.5492ZM158.773 11.5961C162.558 11.5961 165.626 14.6642 165.626 18.4488H167.626C167.626 13.5596 163.662 9.59614 158.773 9.59614V11.5961ZM158.773 105.702C163.662 105.702 167.626 101.739 167.626 96.8498H165.626C165.626 100.634 162.558 103.702 158.773 103.702V105.702ZM161.667 19.2087V96.0898H163.667V19.2087H161.667ZM98.5062 19.2087C98.5062 17.3516 100.012 15.8461 101.869 15.8461V13.8461C98.9071 13.8461 96.5062 16.247 96.5062 19.2087H98.5062ZM158.305 15.8461C160.162 15.8461 161.667 17.3516 161.667 19.2087H163.667C163.667 16.247 161.266 13.8461 158.305 13.8461V15.8461ZM158.305 101.452C161.266 101.452 163.667 99.0515 163.667 96.0898H161.667C161.667 97.9469 160.162 99.4524 158.305 99.4524V101.452ZM94.5492 73.1644V18.4488H92.5492V73.1644H94.5492ZM98.5062 73.1644V19.2087H96.5062V73.1644H98.5062ZM158.305 99.4524H115.074V101.452H158.305V99.4524ZM158.773 103.702H114.763V105.702H158.773V103.702ZM147.354 15.3656H112.824V17.3656H147.354V15.3656ZM119.686 7.00634V6.35725H117.686V7.00634H119.686ZM122.176 3.86719H137.999V1.86719H122.176V3.86719ZM140.489 6.35725V7.00293H142.489V6.35725H140.489ZM137.542 1.8672H123.794V3.8672H137.542V1.8672ZM137.999 3.86719C139.374 3.86719 140.489 4.98202 140.489 6.35725H142.489C142.489 3.87746 140.479 1.86719 137.999 1.86719V3.86719ZM119.686 6.35725C119.686 4.98203 120.801 3.86719 122.176 3.86719V1.86719C119.696 1.86719 117.686 3.87746 117.686 6.35725H119.686ZM140.489 7.00293C140.489 8.3851 141.609 9.50554 142.991 9.50556L142.991 7.50556C142.714 7.50555 142.489 7.28051 142.489 7.00293H140.489ZM117.686 7.00634C117.686 7.28205 117.463 7.50555 117.187 7.50556L117.187 9.50556C118.567 9.50554 119.686 8.38661 119.686 7.00634H117.686ZM147.226 15.4931C147.226 15.4227 147.284 15.3656 147.354 15.3656V17.3656C148.388 17.3656 149.226 16.5272 149.226 15.4931H147.226ZM110.952 15.4931C110.952 16.5272 111.79 17.3656 112.824 17.3656V15.3656C112.895 15.3656 112.952 15.4226 112.952 15.4931H110.952ZM113.959 10.9987C114.738 10.0835 115.894 9.50556 117.187 9.50556V7.50556C115.283 7.50556 113.578 8.36007 112.436 9.70294L113.959 10.9987ZM142.991 9.50556C144.284 9.50556 145.441 10.0835 146.219 10.9987L147.743 9.70294C146.601 8.36007 144.895 7.50556 142.991 7.50556V9.50556ZM146.219 10.9987C146.848 11.738 147.226 12.6939 147.226 13.7407H149.226C149.226 12.2015 148.667 10.7903 147.743 9.70294L146.219 10.9987ZM108.278 40.1052H114.128V38.1052H108.278V40.1052ZM114.287 40.2644V46.1141H116.287V40.2644H114.287ZM114.128 46.2734H108.278V48.2734H114.128V46.2734ZM108.119 46.1141V40.2644H106.119V46.1141H108.119ZM108.278 46.2734C108.19 46.2734 108.119 46.2021 108.119 46.1141H106.119C106.119 47.3066 107.085 48.2734 108.278 48.2734V46.2734ZM114.287 46.1141C114.287 46.2021 114.216 46.2734 114.128 46.2734V48.2734C115.32 48.2734 116.287 47.3066 116.287 46.1141H114.287ZM114.128 40.1052C114.216 40.1052 114.287 40.1765 114.287 40.2644H116.287C116.287 39.0719 115.32 38.1052 114.128 38.1052V40.1052ZM108.278 38.1052C107.085 38.1052 106.119 39.0719 106.119 40.2644H108.119C108.119 40.1765 108.19 40.1052 108.278 40.1052V38.1052ZM108.278 54.5681H114.128V52.5681H108.278V54.5681ZM114.287 54.7274V60.5771H116.287V54.7274H114.287ZM114.128 60.7363H108.278V62.7363H114.128V60.7363ZM108.119 60.5771V54.7274H106.119V60.5771H108.119ZM108.278 60.7363C108.19 60.7363 108.119 60.665 108.119 60.5771H106.119C106.119 61.7696 107.085 62.7363 108.278 62.7363V60.7363ZM114.287 60.5771C114.287 60.665 114.216 60.7363 114.128 60.7363V62.7363C115.32 62.7363 116.287 61.7696 116.287 60.5771H114.287ZM114.128 54.5681C114.216 54.5681 114.287 54.6394 114.287 54.7274H116.287C116.287 53.5349 115.32 52.5681 114.128 52.5681V54.5681ZM108.278 52.5681C107.085 52.5681 106.119 53.5349 106.119 54.7274H108.119C108.119 54.6394 108.19 54.5681 108.278 54.5681V52.5681ZM124.04 41.792L153.051 41.889L153.058 39.889L124.047 39.792L124.04 41.792ZM124.04 56.0834L153.051 56.1804L153.058 54.1804L124.047 54.0835L124.04 56.0834ZM124.04 69.0277L153.051 69.1247L153.058 67.1247L124.047 67.0277L124.04 69.0277ZM124.043 46.9223H148.075V44.9223H124.043V46.9223ZM124.043 61.2138H148.075V59.2138H124.043V61.2138ZM124.043 74.1538H148.076V72.1538H124.043V74.1538ZM147.219 11.646L158.777 11.5961L158.769 9.59615L147.21 9.64597L147.219 11.646ZM147.226 13.7407V14.8461H149.226V13.7407H147.226ZM147.226 14.8461V15.4931H149.226V14.8461H147.226ZM158.305 13.8461H148.226V15.8461H158.305V13.8461ZM111.952 13.8461H101.869V15.8461H111.952V13.8461ZM112.952 15.4931V14.8461H110.952V15.4931H112.952ZM112.952 14.8461V13.7407H110.952V14.8461H112.952ZM101.401 11.5961L112.991 11.6087L112.993 9.60875L101.403 9.59614L101.401 11.5961ZM112.952 13.7407C112.952 12.7894 113.264 11.914 113.793 11.2076L112.191 10.0099C111.413 11.0502 110.952 12.3431 110.952 13.7407H112.952ZM113.793 11.2076C113.846 11.1362 113.901 11.0665 113.959 10.9987L112.436 9.70294C112.351 9.80258 112.269 9.90495 112.191 10.0099L113.793 11.2076ZM78.4991 107.183V76.0328H76.4991V107.183H78.4991ZM113.934 76.0328V107.183H115.934V76.0328H113.934ZM111.456 109.661H80.9768V111.661H111.456V109.661ZM80.9768 73.5551H90.0514V71.5551H80.9768V73.5551ZM89.0514 72.5551V85.1224H91.0514V72.5551H89.0514ZM90.0514 73.5551H101.973V71.5551H90.0514V73.5551ZM101.973 73.5551H111.456V71.5551H101.973V73.5551ZM102.973 85.1224V72.5551H100.973V85.1224H102.973ZM90.5718 86.1624L96.3325 83.9217L95.6074 82.0577L89.8468 84.2984L90.5718 86.1624ZM95.6915 83.9217L101.452 86.1624L102.177 84.2984L96.4165 82.0577L95.6915 83.9217ZM96.3325 83.9217C96.1263 84.0018 95.8976 84.0018 95.6915 83.9217L96.4165 82.0577C96.1563 81.9565 95.8676 81.9565 95.6074 82.0577L96.3325 83.9217ZM100.973 85.1224C100.973 84.5005 101.598 84.073 102.177 84.2984L101.452 86.1624C102.184 86.4469 102.973 85.9073 102.973 85.1224H100.973ZM89.0514 85.1224C89.0514 85.9073 89.8403 86.4469 90.5718 86.1624L89.8468 84.2984C90.4263 84.073 91.0514 84.5005 91.0514 85.1224H89.0514ZM113.934 107.183C113.934 108.552 112.825 109.661 111.456 109.661V111.661C113.929 111.661 115.934 109.656 115.934 107.183H113.934ZM115.934 76.0328C115.934 73.5598 113.929 71.5551 111.456 71.5551V73.5551C112.825 73.5551 113.934 74.6644 113.934 76.0328H115.934ZM78.4991 76.0328C78.4991 74.6644 79.6084 73.5551 80.9768 73.5551V71.5551C78.5038 71.5551 76.4991 73.5598 76.4991 76.0328H78.4991ZM76.4991 107.183C76.4991 109.656 78.5038 111.661 80.9768 111.661V109.661C79.6084 109.661 78.4991 108.552 78.4991 107.183H76.4991ZM62.453 149.737V118.587H60.453V149.737H62.453ZM97.888 118.587V149.737H99.888V118.587H97.888ZM95.4102 152.215H64.9308V154.215H95.4102V152.215ZM64.9308 116.109H74.0053V114.109H64.9308V116.109ZM73.0053 115.109V127.676H75.0053V115.109H73.0053ZM74.0053 116.109H85.9265V114.109H74.0053V116.109ZM85.9265 116.109H95.4102V114.109H85.9265V116.109ZM86.9265 127.676V115.109H84.9265V127.676H86.9265ZM74.5257 128.716L80.2864 126.476L79.5614 124.612L73.8007 126.852L74.5257 128.716ZM79.6454 126.476L85.4061 128.716L86.1311 126.852L80.3704 124.612L79.6454 126.476ZM80.2864 126.476C80.0803 126.556 79.8516 126.556 79.6454 126.476L80.3704 124.612C80.1102 124.51 79.8216 124.51 79.5614 124.612L80.2864 126.476ZM84.9265 127.676C84.9265 127.054 85.5515 126.627 86.1311 126.852L85.4061 128.716C86.1377 129.001 86.9265 128.461 86.9265 127.676H84.9265ZM73.0053 127.676C73.0053 128.461 73.7941 129.001 74.5257 128.716L73.8007 126.852C74.3803 126.627 75.0053 127.054 75.0053 127.676H73.0053ZM97.888 149.737C97.888 151.106 96.7787 152.215 95.4102 152.215V154.215C97.8833 154.215 99.888 152.21 99.888 149.737H97.888ZM99.888 118.587C99.888 116.114 97.8833 114.109 95.4102 114.109V116.109C96.7787 116.109 97.888 117.218 97.888 118.587H99.888ZM62.453 118.587C62.453 117.218 63.5623 116.109 64.9308 116.109V114.109C62.4578 114.109 60.453 116.114 60.453 118.587H62.453ZM60.453 149.737C60.453 152.21 62.4578 154.215 64.9308 154.215V152.215C63.5623 152.215 62.453 151.106 62.453 149.737H60.453ZM105.044 149.737V118.587H103.044V149.737H105.044ZM140.479 118.587V149.737H142.479V118.587H140.479ZM138.001 152.215H107.522V154.215H138.001V152.215ZM107.522 116.109H116.597V114.109H107.522V116.109ZM115.597 115.109V127.676H117.597V115.109H115.597ZM116.597 116.109H128.518V114.109H116.597V116.109ZM128.518 116.109H138.001V114.109H128.518V116.109ZM129.518 127.676V115.109H127.518V127.676H129.518ZM117.117 128.716L122.878 126.476L122.153 124.612L116.392 126.852L117.117 128.716ZM122.237 126.476L127.997 128.716L128.722 126.852L122.962 124.612L122.237 126.476ZM122.878 126.476C122.671 126.556 122.443 126.556 122.237 126.476L122.962 124.612C122.701 124.51 122.413 124.51 122.153 124.612L122.878 126.476ZM127.518 127.676C127.518 127.054 128.143 126.627 128.722 126.852L127.997 128.716C128.729 129.001 129.518 128.461 129.518 127.676H127.518ZM115.597 127.676C115.597 128.461 116.385 129.001 117.117 128.716L116.392 126.852C116.972 126.627 117.597 127.054 117.597 127.676H115.597ZM140.479 149.737C140.479 151.106 139.37 152.215 138.001 152.215V154.215C140.474 154.215 142.479 152.21 142.479 149.737H140.479ZM142.479 118.587C142.479 116.114 140.474 114.109 138.001 114.109V116.109C139.37 116.109 140.479 117.218 140.479 118.587H142.479ZM105.044 118.587C105.044 117.218 106.154 116.109 107.522 116.109V114.109C105.049 114.109 103.044 116.114 103.044 118.587H105.044ZM103.044 149.737C103.044 152.21 105.049 154.215 107.522 154.215V152.215C106.154 152.215 105.044 151.106 105.044 149.737H103.044Z" fill="url(#paint0_linear_268_707)"/>
<defs>
<linearGradient id="paint0_linear_268_707" x1="226.359" y1="195.81" x2="65.0464" y2="-79.097" gradientUnits="userSpaceOnUse">
<stop stop-color="#5487B0"/>
<stop offset="1" stop-color="#58C890"/>
</linearGradient>
</defs>
</svg>
