<svg width="170" height="171" viewBox="0 0 170 171" fill="none" xmlns="http://www.w3.org/2000/svg">
<path d="M108.298 166.811L107.796 167.675C108.101 167.853 108.477 167.856 108.785 167.684L108.298 166.811ZM142.048 147.973L142.535 148.846C142.834 148.68 143.026 148.373 143.046 148.032L142.048 147.973ZM144.407 108.165L145.405 108.224C145.428 107.828 145.215 107.455 144.86 107.274L144.407 108.165ZM73.1901 146.417H72.1901C72.1901 146.773 72.3797 147.103 72.6878 147.282L73.1901 146.417ZM73.1901 108.261L72.7242 107.376C72.3957 107.549 72.1901 107.89 72.1901 108.261H73.1901ZM108.298 89.7777L108.752 88.8865C108.462 88.7392 108.119 88.7415 107.832 88.8928L108.298 89.7777ZM96.599 121.906L97.1237 122.758L97.1282 122.755L96.599 121.906ZM96.3222 139.855L97.1441 139.285L97.1441 139.285L96.3222 139.855ZM91.0276 132.216L90.2057 132.786L90.2057 132.786L91.0276 132.216ZM90.8993 132.168L90.6564 131.198L90.6564 131.198L90.8993 132.168ZM84.7335 133.712L84.4906 132.742L84.4906 132.742L84.7335 133.712ZM84.6411 115.357L84.1312 114.496L84.1244 114.501L84.1177 114.505L84.6411 115.357ZM91.3307 90.8809L90.8733 91.7702C91.1746 91.9252 91.5339 91.917 91.8279 91.7486L91.3307 90.8809ZM55.2442 72.3206L54.2445 72.2962C54.2352 72.6795 54.4458 73.0345 54.7869 73.2099L55.2442 72.3206ZM56.2229 32.3317L55.757 31.4469C55.4363 31.6157 55.2321 31.9449 55.2232 32.3073L56.2229 32.3317ZM91.3307 13.848L91.7845 12.9569C91.4951 12.8096 91.1522 12.8119 90.8648 12.9632L91.3307 13.848ZM79.355 63.9249L80.1769 63.3552L80.1769 63.3552L79.355 63.9249ZM74.0604 56.2868L73.2385 56.8564L73.2385 56.8565L74.0604 56.2868ZM73.9321 56.2385L73.6892 55.2685L73.6892 55.2685L73.9321 56.2385ZM67.7663 57.7823L67.5234 56.8122L67.5234 56.8122L67.7663 57.7823ZM67.6739 39.4271L67.164 38.5669L67.1572 38.5709L67.1505 38.575L67.6739 39.4271ZM79.6318 45.9768L80.1565 46.8281L80.161 46.8253L79.6318 45.9768ZM48.2386 153.21L47.7364 154.075C48.0409 154.252 48.4161 154.256 48.7241 154.085L48.2386 153.21ZM13.1309 132.817H12.1309C12.1309 133.173 12.3205 133.503 12.6286 133.682L13.1309 132.817ZM13.1309 94.6612L12.665 93.7763C12.3365 93.9493 12.1309 94.29 12.1309 94.6612H13.1309ZM84.3473 94.5652L85.3457 94.6218C85.3681 94.2258 85.1544 93.854 84.8011 93.6741L84.3473 94.5652ZM48.2386 76.1775L48.6924 75.2864C48.403 75.139 48.0601 75.1414 47.7728 75.2927L48.2386 76.1775ZM70.1584 87.3398L70.6122 86.4486L70.6122 86.4486L70.1584 87.3398ZM58.7236 81.5168L59.1774 80.6257L59.1774 80.6257L58.7236 81.5168ZM36.5398 108.306L37.0644 109.158L37.0689 109.155L36.5398 108.306ZM36.263 126.254L37.0848 125.685L37.0848 125.685L36.263 126.254ZM30.9684 118.616L30.1465 119.186L30.1465 119.186L30.9684 118.616ZM30.8401 118.568L30.5972 117.598L30.5972 117.598L30.8401 118.568ZM24.6742 120.112L24.4314 119.142L24.4314 119.142L24.6742 120.112ZM24.5819 101.757L24.072 100.896L24.0652 100.9L24.0585 100.904L24.5819 101.757ZM114.747 87.5961L113.749 87.5316L113.749 87.5402L114.747 87.5961ZM140.128 87.5921L141.126 87.5223L141.125 87.5116L140.128 87.5921ZM114.934 87.7036L115.481 88.5403L115.481 88.5403L114.934 87.7036ZM127.374 79.5619L126.826 78.7251L126.826 78.7252L127.374 79.5619ZM127.506 79.5619L128.053 78.7252L128.053 78.7251L127.506 79.5619ZM139.942 87.7013L140.49 86.8646L140.49 86.8646L139.942 87.7013ZM114.47 10.8816L114.353 11.8747L114.353 11.8747L114.47 10.8816ZM120.681 8.3088L121.466 8.92857L121.466 8.92857L120.681 8.3088ZM104.658 18.2743L105.651 18.1576L105.651 18.1576L104.658 18.2743ZM112.305 10.6273L112.422 9.6341L112.422 9.6341L112.305 10.6273ZM102.34 26.6502L102.96 27.435L102.96 27.435L102.34 26.6502ZM104.913 20.4389L103.919 20.5556L103.919 20.5556L104.913 20.4389ZM100.629 38.8155L101.249 38.0308L101.249 38.0308L100.629 38.8155ZM100.629 28.001L100.01 27.2162L100.01 27.2162L100.629 28.001ZM104.913 46.3776L103.919 46.2609L103.919 46.2609L104.913 46.3776ZM102.34 40.1663L101.72 40.9511L101.72 40.9511L102.34 40.1663ZM112.305 56.1893L112.422 57.1824L112.422 57.1824L112.305 56.1893ZM104.658 48.5422L105.651 48.6589L105.651 48.6589L104.658 48.5422ZM120.681 58.5077L121.466 57.888L121.466 57.888L120.681 58.5077ZM114.47 55.9349L114.353 54.9418L114.353 54.9418L114.47 55.9349ZM132.847 60.2182L133.631 60.8379L133.631 60.8379L132.847 60.2182ZM122.032 60.2182L121.247 60.8379L121.247 60.8379L122.032 60.2182ZM140.409 55.9349L140.525 54.9418L140.525 54.9418L140.409 55.9349ZM134.197 58.5077L133.413 57.888L133.413 57.888L134.197 58.5077ZM150.22 48.5422L149.227 48.6589L149.227 48.6589L150.22 48.5422ZM142.573 56.1893L142.457 57.1824L142.457 57.1824L142.573 56.1893ZM152.539 40.1663L151.919 39.3816L151.919 39.3816L152.539 40.1663ZM149.966 46.3776L150.959 46.2609L150.959 46.2609L149.966 46.3776ZM154.249 28.001L153.629 28.7858L153.629 28.7858L154.249 28.001ZM154.249 38.8155L154.869 39.6003L154.869 39.6003L154.249 38.8155ZM149.966 20.439L148.973 20.3223L148.973 20.3223L149.966 20.439ZM152.539 26.6502L153.159 25.8654L153.158 25.8654L152.539 26.6502ZM142.573 10.6273L142.69 11.6204L142.69 11.6204L142.573 10.6273ZM150.22 18.2743L151.213 18.391L151.213 18.391L150.22 18.2743ZM134.197 8.3088L134.982 7.68903L134.982 7.68903L134.197 8.3088ZM140.409 10.8816L140.292 9.88841L140.292 9.88841L140.409 10.8816ZM132.847 6.59836L132.062 7.21813L132.062 7.21813L132.847 6.59836ZM122.032 6.59835L121.247 5.97858L121.247 5.97858L122.032 6.59835ZM109.298 166.806L109.122 129.041L107.122 129.05L107.298 166.815L109.298 166.806ZM143.046 148.032L145.405 108.224L143.408 108.106L141.05 147.914L143.046 148.032ZM74.1901 146.417V108.261H72.1901V146.417H74.1901ZM108.621 129.912L144.905 109.032L143.908 107.299L107.623 128.179L108.621 129.912ZM73.656 109.146L108.764 90.6625L107.832 88.8928L72.7242 107.376L73.656 109.146ZM108.633 128.186L73.7014 107.402L72.6788 109.121L107.61 129.905L108.633 128.186ZM144.86 107.274L108.752 88.8865L107.844 90.6688L143.953 109.056L144.86 107.274ZM108.8 165.946L73.6924 145.552L72.6878 147.282L107.796 167.675L108.8 165.946ZM108.785 167.684L142.535 148.846L141.561 147.1L107.811 165.937L108.785 167.684ZM129.688 100.091L96.0698 121.058L97.1282 122.755L130.747 101.788L129.688 100.091ZM95.5417 122.009V139.786H97.5417V122.009H95.5417ZM97.1441 139.285L91.8494 131.647L90.2057 132.786L95.5004 140.424L97.1441 139.285ZM90.6564 131.198L84.4906 132.742L84.9763 134.682L91.1422 133.138L90.6564 131.198ZM85.5837 133.595V115.459H83.5837V133.595H85.5837ZM85.1511 116.217L119.293 95.9771L118.273 94.2567L84.1312 114.496L85.1511 116.217ZM85.5837 115.459C85.5837 115.765 85.425 116.049 85.1646 116.209L84.1177 114.505C83.7859 114.708 83.5837 115.07 83.5837 115.459H85.5837ZM84.4906 132.742C85.0459 132.603 85.5837 133.023 85.5837 133.595H83.5837C83.5837 134.324 84.2689 134.859 84.9763 134.682L84.4906 132.742ZM91.8494 131.647C91.5838 131.263 91.1086 131.085 90.6564 131.198L91.1421 133.138C90.7873 133.227 90.4143 133.087 90.2057 132.786L91.8494 131.647ZM95.5417 139.786C95.5417 138.924 96.6529 138.576 97.1441 139.285L95.5004 140.424C96.1261 141.327 97.5417 140.884 97.5417 139.786H95.5417ZM96.0743 121.055C95.7432 121.259 95.5417 121.62 95.5417 122.009H97.5417C97.5417 122.314 97.3835 122.598 97.1237 122.758L96.0743 121.055ZM92.3307 90.8763L92.1546 53.1113L90.1546 53.1206L90.3307 90.8856L92.3307 90.8763ZM56.2439 72.3451L57.2226 32.3562L55.2232 32.3073L54.2445 72.2962L56.2439 72.3451ZM56.6887 33.2166L91.7965 14.7329L90.8648 12.9632L55.757 31.4469L56.6887 33.2166ZM91.6659 52.2566L80.0858 45.3665L79.0632 47.0852L90.6432 53.9753L91.6659 52.2566ZM80.0858 45.3665L68.4227 38.4269L67.4 40.1457L79.0632 47.0852L80.0858 45.3665ZM68.4227 38.4269L56.7342 31.4723L55.7116 33.1911L67.4 40.1457L68.4227 38.4269ZM91.7881 89.9917L55.7016 71.4313L54.7869 73.2099L90.8733 91.7702L91.7881 89.9917ZM78.5745 46.0794V46.2259H80.5745V46.0794H78.5745ZM78.5745 46.2259V63.8563H80.5745V46.2259H78.5745ZM80.1769 63.3552L74.8822 55.7171L73.2385 56.8565L78.5332 64.4946L80.1769 63.3552ZM73.6892 55.2685L67.5234 56.8122L68.0091 58.7523L74.175 57.2086L73.6892 55.2685ZM68.6165 57.6654V39.5298H66.6165V57.6654H68.6165ZM68.1839 40.2873L68.4213 40.1465L67.4014 38.4261L67.164 38.5669L68.1839 40.2873ZM68.4213 40.1465L102.326 20.0475L101.306 18.3271L67.4014 38.4261L68.4213 40.1465ZM68.6165 39.5298C68.6165 39.8353 68.4579 40.1191 68.1974 40.2792L67.1505 38.575C66.8186 38.7789 66.6165 39.1404 66.6165 39.5298H68.6165ZM67.5234 56.8122C68.0786 56.6732 68.6165 57.0931 68.6165 57.6654H66.6165C66.6165 58.3944 67.3018 58.9294 68.0091 58.7523L67.5234 56.8122ZM74.8822 55.7171C74.6166 55.3339 74.1415 55.1552 73.6892 55.2685L74.1749 57.2086C73.8199 57.2975 73.447 57.1572 73.2385 56.8564L74.8822 55.7171ZM78.5745 63.8563C78.5745 62.9945 79.6857 62.6466 80.1769 63.3552L78.5332 64.4946C79.1589 65.3973 80.5745 64.9542 80.5745 63.8563H78.5745ZM79.1071 45.1255C78.7761 45.3295 78.5745 45.6905 78.5745 46.0794H80.5745C80.5745 46.3846 80.4163 46.668 80.1565 46.8281L79.1071 45.1255ZM105.375 19.8774L102.269 18.2962L101.362 20.0784L104.467 21.6596L105.375 19.8774ZM102.269 18.2962L91.7845 12.9569L90.8769 14.7392L101.362 20.0784L102.269 18.2962ZM97.4966 33.6567L79.1026 45.1283L80.161 46.8253L98.555 35.3537L97.4966 33.6567ZM91.6533 53.9827L105.419 46.0609L104.422 44.3274L90.6558 52.2492L91.6533 53.9827ZM91.8279 91.7486L115.855 77.9805L114.861 76.2452L90.8335 90.0133L91.8279 91.7486ZM49.2386 153.206L49.0625 115.441L47.0626 115.45L47.2387 153.215L49.2386 153.206ZM14.1309 132.817V94.6612H12.1309V132.817H14.1309ZM48.5613 116.312L84.846 95.4319L83.8485 93.6984L47.5638 114.579L48.5613 116.312ZM13.5967 95.546L48.7045 77.0624L47.7728 75.2927L12.665 93.7763L13.5967 95.546ZM48.5739 114.586L36.9938 107.696L35.9712 109.415L47.5512 116.305L48.5739 114.586ZM36.9938 107.696L25.3307 100.756L24.308 102.475L35.9712 109.415L36.9938 107.696ZM25.3307 100.756L13.6422 93.8018L12.6195 95.5206L24.308 102.475L25.3307 100.756ZM84.8011 93.6741L70.6122 86.4486L69.7046 88.2309L83.8935 95.4563L84.8011 93.6741ZM70.6122 86.4486L59.1774 80.6257L58.2698 82.4079L69.7046 88.2309L70.6122 86.4486ZM59.1774 80.6257L48.6924 75.2864L47.7849 77.0686L58.2698 82.4079L59.1774 80.6257ZM48.7409 152.346L13.6331 131.952L12.6286 133.682L47.7364 154.075L48.7409 152.346ZM69.6292 86.4912L36.0106 107.458L37.0689 109.155L70.6876 88.1883L69.6292 86.4912ZM35.4825 108.409V108.555H37.4825V108.409H35.4825ZM35.4825 108.555V126.186H37.4825V108.555H35.4825ZM37.0848 125.685L31.7902 118.047L30.1465 119.186L35.4411 126.824L37.0848 125.685ZM30.5972 117.598L24.4314 119.142L24.9171 121.082L31.0829 119.538L30.5972 117.598ZM25.5245 119.995V101.859H23.5245V119.995H25.5245ZM25.0918 102.617L25.3293 102.476L24.3094 100.756L24.072 100.896L25.0918 102.617ZM25.3293 102.476L59.2335 82.377L58.2136 80.6566L24.3094 100.756L25.3293 102.476ZM25.5245 101.859C25.5245 102.165 25.3658 102.449 25.1053 102.609L24.0585 100.904C23.7266 101.108 23.5245 101.47 23.5245 101.859H25.5245ZM24.4314 119.142C24.9866 119.003 25.5245 119.423 25.5245 119.995H23.5245C23.5245 120.724 24.2098 121.259 24.9171 121.082L24.4314 119.142ZM31.7902 118.047C31.5246 117.663 31.0495 117.485 30.5972 117.598L31.0829 119.538C30.7279 119.627 30.355 119.487 30.1465 119.186L31.7902 118.047ZM35.4825 126.186C35.4825 125.324 36.5937 124.976 37.0848 125.685L35.4411 126.824C36.0668 127.727 37.4825 127.284 37.4825 126.186H35.4825ZM36.0151 107.455C35.6841 107.659 35.4825 108.02 35.4825 108.409H37.4825C37.4825 108.714 37.3242 108.997 37.0644 109.158L36.0151 107.455ZM84.8975 102.532L85.3457 94.6218L83.3489 94.5086L82.9007 102.418L84.8975 102.532ZM48.7241 154.085L73.5384 140.308L72.5676 138.559L47.7532 152.336L48.7241 154.085ZM115.769 56.2621L113.749 87.5316L115.745 87.6605L117.765 56.391L115.769 56.2621ZM141.125 87.5116L138.601 56.2461L136.608 56.407L139.132 87.6725L141.125 87.5116ZM115.481 88.5403L127.921 80.3986L126.826 78.7252L114.386 86.8669L115.481 88.5403ZM126.958 80.3986L139.395 88.538L140.49 86.8646L128.053 78.7252L126.958 80.3986ZM127.921 80.3986C127.629 80.5901 127.251 80.5901 126.958 80.3986L128.053 78.7251C127.681 78.4812 127.199 78.4812 126.826 78.7251L127.921 80.3986ZM139.131 87.6619C139.08 86.9366 139.881 86.4663 140.49 86.8646L139.395 88.538C140.17 89.0454 141.191 88.4463 141.126 87.5223L139.131 87.6619ZM113.749 87.5402C113.698 88.4579 114.712 89.0437 115.481 88.5403L114.386 86.8669C114.99 86.4718 115.786 86.9316 115.746 87.6519L113.749 87.5402ZM132.062 7.21813L133.413 8.92858L134.982 7.68903L133.631 5.97859L132.062 7.21813ZM140.525 11.8747L142.69 11.6204L142.457 9.6341L140.292 9.88841L140.525 11.8747ZM149.227 18.1576L148.973 20.3223L150.959 20.5556L151.213 18.391L149.227 18.1576ZM151.919 27.435L153.629 28.7858L154.869 27.2162L153.159 25.8654L151.919 27.435ZM153.629 38.0308L151.919 39.3816L153.158 40.9511L154.869 39.6003L153.629 38.0308ZM148.973 46.4943L149.227 48.6589L151.213 48.4255L150.959 46.2609L148.973 46.4943ZM142.69 55.1961L140.525 54.9418L140.292 56.9281L142.457 57.1824L142.69 55.1961ZM133.413 57.888L132.062 59.5984L133.631 60.8379L134.982 59.1275L133.413 57.888ZM122.817 59.5984L121.466 57.888L119.896 59.1275L121.247 60.8379L122.817 59.5984ZM114.353 54.9418L112.189 55.1961L112.422 57.1824L114.587 56.9281L114.353 54.9418ZM105.651 48.6589L105.906 46.4943L103.919 46.2609L103.665 48.4255L105.651 48.6589ZM102.96 39.3816L101.249 38.0308L100.01 39.6003L101.72 40.9511L102.96 39.3816ZM101.249 28.7858L102.96 27.435L101.72 25.8654L100.01 27.2162L101.249 28.7858ZM105.906 20.3223L105.651 18.1576L103.665 18.391L103.919 20.5556L105.906 20.3223ZM112.189 11.6204L114.353 11.8747L114.587 9.88841L112.422 9.6341L112.189 11.6204ZM121.466 8.92857L122.817 7.21812L121.247 5.97858L119.896 7.68903L121.466 8.92857ZM114.353 11.8747C117.075 12.1945 119.768 11.0792 121.466 8.92857L119.896 7.68903C118.629 9.29449 116.618 10.1271 114.587 9.88841L114.353 11.8747ZM105.651 18.1576C105.207 14.3786 108.41 11.1765 112.189 11.6204L112.422 9.6341C107.36 9.03937 103.07 13.3287 103.665 18.391L105.651 18.1576ZM102.96 27.435C105.11 25.7366 106.225 23.0439 105.906 20.3223L103.919 20.5556C104.158 22.5874 103.325 24.5975 101.72 25.8654L102.96 27.435ZM101.249 38.0308C98.263 35.6725 98.263 31.144 101.249 28.7858L100.01 27.2162C96.0095 30.3752 96.0095 36.4413 100.01 39.6003L101.249 38.0308ZM105.906 46.4943C106.225 43.7726 105.11 41.08 102.96 39.3816L101.72 40.9511C103.325 42.219 104.158 44.2291 103.919 46.2609L105.906 46.4943ZM112.189 55.1961C108.41 55.6401 105.207 52.438 105.651 48.6589L103.665 48.4255C103.07 53.4878 107.36 57.7772 112.422 57.1824L112.189 55.1961ZM121.466 57.888C119.768 55.7374 117.075 54.622 114.353 54.9418L114.587 56.9281C116.618 56.6894 118.629 57.522 119.896 59.1275L121.466 57.888ZM132.062 59.5984C129.703 62.5845 125.175 62.5846 122.817 59.5984L121.247 60.8379C124.406 64.838 130.472 64.838 133.631 60.8379L132.062 59.5984ZM140.525 54.9418C137.804 54.622 135.111 55.7374 133.413 57.888L134.982 59.1275C136.25 57.522 138.26 56.6894 140.292 56.9281L140.525 54.9418ZM149.227 48.6589C149.671 52.438 146.469 55.6401 142.69 55.1961L142.457 57.1824C147.519 57.7772 151.808 53.4878 151.213 48.4255L149.227 48.6589ZM151.919 39.3816C149.768 41.08 148.653 43.7726 148.973 46.4943L150.959 46.2609C150.72 44.2291 151.553 42.219 153.158 40.9511L151.919 39.3816ZM153.629 28.7858C156.616 31.144 156.616 35.6725 153.629 38.0308L154.869 39.6003C158.869 36.4413 158.869 30.3752 154.869 27.2162L153.629 28.7858ZM148.973 20.3223C148.653 23.0439 149.768 25.7366 151.919 27.435L153.158 25.8654C151.553 24.5975 150.72 22.5874 150.959 20.5556L148.973 20.3223ZM142.69 11.6204C146.469 11.1765 149.671 14.3786 149.227 18.1576L151.213 18.391C151.808 13.3287 147.519 9.03937 142.457 9.6341L142.69 11.6204ZM133.413 8.92858C135.111 11.0792 137.804 12.1945 140.525 11.8747L140.292 9.88841C138.26 10.1271 136.25 9.29449 134.982 7.68903L133.413 8.92858ZM133.631 5.97859C130.472 1.9785 124.406 1.97849 121.247 5.97858L122.817 7.21812C125.175 4.23198 129.703 4.23198 132.062 7.21813L133.631 5.97859ZM135.928 33.4083C135.928 38.0962 132.127 41.8966 127.439 41.8966V43.8966C133.232 43.8966 137.928 39.2008 137.928 33.4083H135.928ZM127.439 41.8966C122.751 41.8966 118.951 38.0962 118.951 33.4083H116.951C116.951 39.2008 121.647 43.8966 127.439 43.8966V41.8966ZM118.951 33.4083C118.951 28.7203 122.751 24.92 127.439 24.92V22.92C121.647 22.92 116.951 27.6157 116.951 33.4083H118.951ZM127.439 24.92C132.127 24.92 135.928 28.7203 135.928 33.4083H137.928C137.928 27.6157 133.232 22.92 127.439 22.92V24.92Z" fill="url(#paint0_linear_268_705)"/>
<defs>
<linearGradient id="paint0_linear_268_705" x1="209.995" y1="195.237" x2="42.1843" y2="-61.3513" gradientUnits="userSpaceOnUse">
<stop stop-color="#5487B0"/>
<stop offset="1" stop-color="#58C890"/>
</linearGradient>
</defs>
</svg>
