<svg width="171" height="175" viewBox="0 0 171 175" fill="none" xmlns="http://www.w3.org/2000/svg">
<path d="M37.0955 144.132V111.16C37.0955 108.198 34.6944 105.797 31.7324 105.797H17.7545C16.7672 105.797 15.9668 106.597 15.9668 107.585V147.707C15.9668 148.695 16.7672 149.495 17.7545 149.495H31.7324C34.6944 149.495 37.0955 147.094 37.0955 144.132ZM37.0955 144.132H43.0026M37.5759 112.04H47.2923C51.3935 112.04 55.2973 110.279 58.0121 107.205L60.3572 104.549C63.072 101.475 66.9758 99.7147 71.077 99.7147H88.9807C91.1331 99.7147 93.2133 100.491 94.839 101.902L106.845 112.32C108.959 114.155 108.24 117.598 105.568 118.433L103.376 119.118C100.563 119.997 97.4966 119.433 95.1807 117.61L91.8048 114.952C91.514 114.723 91.1593 114.59 90.7898 114.572L74.8238 113.76C73.3239 113.683 71.8607 114.24 70.7901 115.293L63.8884 122.083M134.014 112.358H124.565C120.7 112.358 116.999 110.793 114.306 108.02L112.299 105.954C109.606 103.181 105.905 101.616 102.04 101.616H94.8155M134.124 145.318H124.124M76.0419 140.816L55.9527 160.906C53.8263 163.032 50.3788 163.032 48.2525 160.906C46.1261 158.779 46.1261 155.332 48.2525 153.205L68.3417 133.116M86.1086 146.21L66.0194 166.299C63.8931 168.426 60.4456 168.426 58.3192 166.299C56.1929 164.173 56.1929 160.725 58.3192 158.599L78.4084 138.51M83.0778 165.121L76.2487 171.644C74.0848 173.711 70.6665 173.672 68.5506 171.556C66.3998 169.405 66.3998 165.918 68.5506 163.767L88.5956 143.722M72.2243 129.216L52.1351 149.306C50.0087 151.432 46.5612 151.432 44.4348 149.306C43.0323 147.903 42.5549 145.926 43.0026 144.132M64.5241 121.516L44.4348 141.605C43.711 142.329 43.2336 143.206 43.0026 144.132M39.8299 110.987V5.68445C39.8299 3.59026 41.5276 1.89258 43.6218 1.89258H114.179M114.179 1.89258V17.7944C114.179 19.8886 115.876 21.5863 117.971 21.5863H131.76M114.179 1.89258L131.76 21.5863M131.76 21.5863V112.2M52.1847 59.8074H81.6704M52.1847 70.8127H66.54M71.4378 70.8127H76.506M81.6704 70.8127H122.297M52.2884 81.9538H92.9152M100.694 81.9538H122.297M87.6495 92.5518H122.297M53.0018 92.5518H81.6704M88.7358 59.8074H122.297M71.7114 23.551L69.6491 20.416C70.9121 18.4767 72.5151 16.779 74.3734 15.4076L77.3424 17.3605C78.6686 16.5313 80.1254 15.8915 81.6749 15.4788L82.4026 11.9536C83.5038 11.7578 84.6374 11.6557 85.7949 11.6557C86.9516 11.6557 88.0846 11.7577 89.1852 11.9532L89.9128 15.478C91.4628 15.8905 92.9201 16.5304 94.2468 17.3596L97.2154 15.4069C99.0737 16.7782 100.677 18.4755 101.94 20.4145L99.9285 23.472C100.275 24.0584 101.042 25.6674 101.333 27.4124L104.851 28.1386C104.981 29.0435 105.049 29.9687 105.049 30.9097C105.049 32.403 104.879 33.8566 104.557 35.2522L100.934 36C100.56 37.1132 100.067 38.1715 99.4691 39.1599L101.433 42.1449C99.9923 44.1462 98.1771 45.8599 96.09 47.183L93.0111 45.1577C92.1323 45.6036 91.2067 45.9706 90.2436 46.2494L89.5096 49.8057C88.3076 50.0406 87.0656 50.1637 85.7949 50.1637C84.5234 50.1637 83.2808 50.0404 82.0782 49.8053L81.344 46.2486C80.3815 45.9697 79.4563 45.6027 78.578 45.1569L75.4987 47.1824C73.4116 45.859 71.5964 44.1452 70.1561 42.1436L72.1202 39.1577C71.5233 38.1701 71.0303 37.1127 70.6565 36.0006L67.0327 35.2526C66.7109 33.8569 66.5409 32.4031 66.5409 30.9097C66.5409 29.9686 66.6084 29.0432 66.7388 28.1382L70.2098 27.4218L71.7114 23.551ZM94.1524 30.9101C94.1524 35.526 90.4105 39.2678 85.7947 39.2678C81.1789 39.2678 77.437 35.526 77.437 30.9101C77.437 26.2943 81.1789 22.5525 85.7947 22.5525C90.4105 22.5525 94.1524 26.2943 94.1524 30.9101ZM155.623 107.903V148.026C155.623 149.013 154.823 149.814 153.835 149.814H139.857C136.895 149.814 134.494 147.412 134.494 144.45V111.479C134.494 108.517 136.895 106.116 139.857 106.116H153.835C154.823 106.116 155.623 106.916 155.623 107.903ZM104.395 138.729L118.887 153.254C121.008 155.38 121.014 158.819 118.902 160.954C116.78 163.097 113.321 163.115 111.178 160.993L96.5963 146.559C94.4279 144.412 94.4097 140.914 96.5556 138.745C98.7118 136.566 102.23 136.559 104.395 138.729ZM113.334 132.321L122.266 141.312C124.382 143.441 124.385 146.879 122.273 149.012C120.149 151.158 116.687 151.175 114.541 149.051L105.534 140.135C103.368 137.991 103.35 134.496 105.494 132.33C107.651 130.149 111.172 130.146 113.334 132.321ZM97.834 148.109L109.327 159.651C111.446 161.779 111.451 165.217 109.339 167.351C107.216 169.496 103.756 169.513 101.611 167.39L90.0348 155.931C87.8675 153.785 87.8493 150.289 89.9943 148.121C92.1509 145.941 95.6704 145.936 97.834 148.109ZM91.3394 157.11L98.6598 164.491C100.773 166.622 100.775 170.058 98.6635 172.191C96.5383 174.338 93.075 174.355 90.9281 172.23L83.5403 164.917C81.375 162.773 81.3569 159.28 83.4999 157.115C85.6575 154.934 89.1793 154.932 91.3394 157.11Z" stroke="url(#paint0_linear_268_708)" stroke-width="2" stroke-linecap="round"/>
<defs>
<linearGradient id="paint0_linear_268_708" x1="207.241" y1="203.826" x2="24.6034" y2="-53.1596" gradientUnits="userSpaceOnUse">
<stop stop-color="#5487B0"/>
<stop offset="1" stop-color="#58C890"/>
</linearGradient>
</defs>
</svg>
