<svg width="23" height="28" viewBox="0 0 23 28" fill="none" xmlns="http://www.w3.org/2000/svg">
<path d="M6.93518 6.50389V19.1642C6.93518 20.0066 7.61807 20.6895 8.46046 20.6895H16.6507M6.93518 6.50389V2.45888C6.93518 1.61649 7.61807 0.933594 8.46046 0.933594H20.4942C21.3366 0.933594 22.0195 1.61649 22.0195 2.45888V19.1642C22.0195 20.0066 21.3366 20.6895 20.4942 20.6895H16.6507M6.93518 6.50389H3.09169C2.2493 6.50389 1.56641 7.18678 1.56641 8.02917V24.7345C1.56641 25.5769 2.2493 26.2598 3.09169 26.2598H15.1254C15.9678 26.2598 16.6507 25.5769 16.6507 24.7345V20.6895" stroke="#58C88A" stroke-width="1.8"/>
</svg>
