<svg width="17" height="16" viewBox="0 0 17 16" fill="none" xmlns="http://www.w3.org/2000/svg">
<path d="M9.59375 1.07227C9.59375 0.658052 9.25796 0.322266 8.84375 0.322266C8.42954 0.322266 8.09375 0.658052 8.09375 1.07227H9.59375ZM8.31342 12.2273C8.60631 12.5202 9.08119 12.5202 9.37408 12.2273L14.1471 7.4543C14.4399 7.16141 14.4399 6.68654 14.1471 6.39364C13.8542 6.10075 13.3793 6.10075 13.0864 6.39364L8.84375 10.6363L4.60111 6.39364C4.30822 6.10075 3.83334 6.10075 3.54045 6.39364C3.24756 6.68654 3.24756 7.16141 3.54045 7.4543L8.31342 12.2273ZM1.71289 14.1904C1.29868 14.1904 0.962891 14.5262 0.962891 14.9404C0.962891 15.3546 1.29868 15.6904 1.71289 15.6904V14.1904ZM15.9746 15.6904C16.3888 15.6904 16.7246 15.3546 16.7246 14.9404C16.7246 14.5262 16.3888 14.1904 15.9746 14.1904V15.6904ZM8.09375 1.07227V11.6969H9.59375V1.07227H8.09375ZM1.71289 15.6904H15.9746V14.1904H1.71289V15.6904Z" fill="white"/>
</svg>
