<svg width="17" height="16" viewBox="0 0 17 16" fill="none" xmlns="http://www.w3.org/2000/svg">
<path d="M8.88086 0.986328C8.88086 0.572115 8.54507 0.236328 8.13086 0.236328C7.71665 0.236328 7.38086 0.572115 7.38086 0.986328H8.88086ZM7.60053 12.1413C7.89342 12.4342 8.3683 12.4342 8.66119 12.1413L13.4342 7.36837C13.7271 7.07547 13.7271 6.6006 13.4342 6.30771C13.1413 6.01481 12.6664 6.01481 12.3735 6.30771L8.13086 10.5503L3.88822 6.30771C3.59533 6.01481 3.12045 6.01481 2.82756 6.30771C2.53467 6.6006 2.53467 7.07547 2.82756 7.36837L7.60053 12.1413ZM1 14.1045C0.585786 14.1045 0.25 14.4403 0.25 14.8545C0.25 15.2687 0.585786 15.6045 1 15.6045V14.1045ZM15.2617 15.6045C15.6759 15.6045 16.0117 15.2687 16.0117 14.8545C16.0117 14.4403 15.6759 14.1045 15.2617 14.1045V15.6045ZM7.38086 0.986328V11.611H8.88086V0.986328H7.38086ZM1 15.6045H15.2617V14.1045H1V15.6045Z" fill="white"/>
</svg>
