<svg width="236" height="53" viewBox="0 0 236 53" fill="none" xmlns="http://www.w3.org/2000/svg">
<mask id="mask0_276_732" style="mask-type:alpha" maskUnits="userSpaceOnUse" x="0" y="0" width="53" height="53">
<rect x="0.564453" y="0.866211" width="51.5148" height="51.5148" rx="1" fill="#6BCD85"/>
</mask>
<g mask="url(#mask0_276_732)">
<path fill-rule="evenodd" clip-rule="evenodd" d="M42.6629 6.11671L16.1689 -20.2877C15.3865 -21.0674 15.3844 -22.3338 16.1641 -23.1161L18.7982 -25.7592C19.5779 -26.5415 20.8443 -26.5437 21.6266 -25.764L46.7157 -0.759729C47.4972 0.0190612 48.7617 0.0179888 49.5418 -0.762124L52.1764 -3.39681C52.9575 -4.17785 54.2238 -4.17785 55.0049 -3.3968L57.6434 -0.758231C58.4245 0.0228177 58.4245 1.28915 57.6435 2.07019L-11.7341 71.4478C-12.5152 72.2288 -13.7815 72.2288 -14.5626 71.4478L-17.2011 68.8092C-17.9822 68.0281 -17.9822 66.7618 -17.2011 65.9808L-0.620912 49.4006C0.158224 48.6214 0.160414 47.3589 -0.61602 46.577L-25.1883 21.8339C-25.9667 21.0501 -25.9623 19.7838 -25.1786 19.0055L-22.5309 16.3761C-21.7471 15.5977 -20.4808 15.6021 -19.7024 16.3859L6.25545 42.5242L11.0723 37.7073L-15.03 11.4235C-15.8083 10.6398 -15.804 9.37345 -15.0202 8.59511L-12.3725 5.96569C-11.5888 5.18735 -10.3224 5.19174 -9.5441 5.97549L15.1252 30.8162C15.9054 31.6019 17.1755 31.6041 17.9585 30.8211L21.8226 26.957L-3.8757 0.900685C-4.65133 0.114251 -4.64256 -1.15205 -3.85613 -1.92768L-1.19936 -4.54793C-0.412929 -5.32356 0.85337 -5.3148 1.629 -4.52837L27.2897 21.4899L32.311 16.4687L6.00035 -9.88053C5.21987 -10.6622 5.2208 -11.9285 6.00242 -12.709L8.64293 -15.3456C9.42455 -16.1261 10.6909 -16.1252 11.4714 -15.3435L37.778 11.0017L42.6629 6.11671ZM69.6815 9.40011C70.4626 10.1812 70.4626 11.4475 69.6815 12.2285L0.303933 81.6061C-0.477116 82.3872 -1.74345 82.3872 -2.52449 81.6061L-5.16307 78.9675C-5.94412 78.1865 -5.94412 76.9202 -5.16307 76.1391L64.2145 6.76154C64.9956 5.98049 66.2619 5.98049 67.0429 6.76154L69.6815 9.40011ZM82.9403 18.7446C83.7214 19.5257 83.7214 20.792 82.9403 21.573L13.5628 90.9506C12.7817 91.7317 11.5154 91.7317 10.7343 90.9506L8.09575 88.312C7.3147 87.531 7.3147 86.2646 8.09575 85.4836L77.4733 16.106C78.2544 15.325 79.5207 15.325 80.3017 16.106L82.9403 18.7446Z" fill="#58C88A" fill-opacity="0.7"/>
<path fill-rule="evenodd" clip-rule="evenodd" d="M37.2801 46.9422L39.3487 49.0238C39.6072 49.2839 39.7038 49.6651 39.5918 50.0142C38.5677 53.2057 37.0482 56.1598 35.1296 58.794C34.9137 59.0905 34.5488 59.2373 34.1862 59.1819L31.2895 58.7393C31.0064 58.6961 30.7185 58.7783 30.5009 58.9646L25.025 63.6544C24.8076 63.8406 24.682 64.1123 24.6811 64.3985L24.672 67.33C24.6708 67.6967 24.4697 68.0346 24.1436 68.2023C21.2456 69.6928 18.0929 70.7399 14.7819 71.2609C14.4195 71.3179 14.0576 71.1637 13.8404 70.8681L12.1033 68.5043C11.9337 68.2736 11.6719 68.1281 11.3864 68.1061L4.19812 67.5502C3.9127 67.5281 3.63183 67.6314 3.42878 67.8332L1.34721 69.9018C1.0871 70.1603 0.70591 70.2569 0.356745 70.1449C-2.83473 69.1208 -5.78886 67.6013 -8.42311 65.6827C-8.71962 65.4668 -8.86639 65.1019 -8.81099 64.7393L-8.36838 61.8426C-8.32512 61.5594 -8.40738 61.2715 -8.59368 61.054L-13.2835 55.5781C-13.4697 55.3606 -13.7413 55.2351 -14.0276 55.2342L-16.9591 55.2251C-17.3258 55.2239 -17.6636 55.0228 -17.8313 54.6967C-19.3219 51.7987 -20.3689 48.646 -20.89 45.335C-20.947 44.9726 -20.7927 44.6107 -20.4972 44.3935L-18.1334 42.6563C-17.9026 42.4867 -17.7572 42.225 -17.7351 41.9395L-17.1792 34.7512C-17.1572 34.4658 -17.2605 34.1849 -17.4623 33.9819L-19.5309 31.9003C-19.7893 31.6402 -19.886 31.259 -19.7739 30.9098C-18.7499 27.7184 -17.2303 24.7642 -15.3118 22.13C-15.0958 21.8335 -14.7309 21.6867 -14.3683 21.7421L-11.4716 22.1847C-11.1885 22.228 -10.9006 22.1457 -10.6831 21.9594L-5.20712 17.2696C-4.98969 17.0834 -4.86416 16.8117 -4.86326 16.5255L-4.8541 13.594C-4.85295 13.2273 -4.65181 12.8895 -4.32572 12.7218C-1.42772 11.2312 1.72497 10.1841 5.036 9.66312C5.39836 9.6061 5.76025 9.76033 5.97747 10.0559L7.71462 12.4197C7.88422 12.6504 8.14597 12.7959 8.43151 12.8179L15.6198 13.3738C15.9052 13.3959 16.1861 13.2926 16.3891 13.0908L18.4707 11.0222C18.7308 10.7637 19.1119 10.6671 19.4611 10.7791C22.6526 11.8032 25.6067 13.3227 28.241 15.2413C28.5375 15.4573 28.6842 15.8221 28.6288 16.1847L28.1862 19.0815C28.143 19.3646 28.2252 19.6525 28.4115 19.87L33.1013 25.346C33.2875 25.5634 33.5592 25.6889 33.8454 25.6898L36.777 25.699C37.1436 25.7001 37.4815 25.9013 37.6492 26.2274C39.1398 29.1253 40.1868 32.278 40.7078 35.5891C40.7648 35.9514 40.6106 36.3133 40.315 36.5305L37.9512 38.2677C37.7205 38.4373 37.5751 38.699 37.553 38.9846L36.9971 46.1728C36.975 46.4583 37.0783 46.7391 37.2801 46.9422ZM8.45335 59.2929C18.853 60.0972 27.9356 52.3186 28.7399 41.9189C29.5441 31.5192 21.7655 22.4367 11.3658 21.6324C0.966149 20.8281 -8.11643 28.6068 -8.92069 39.0064C-9.72495 49.4061 -1.94633 58.4887 8.45335 59.2929Z" fill="#333333"/>
</g>
<path d="M140.376 52.5386H135.818V29.751H156.262V52.5386H151.737V34.3085H140.376V52.5386Z" fill="#333333"/>
<path d="M113.049 52.5386V47.9811H122.164L126.722 43.4561H117.606L110.803 36.6198V29.751H115.36V34.3411L119.885 38.8986H126.722V29.751H131.246V45.7349L124.443 52.5386H113.049Z" fill="#333333"/>
<path d="M91.3446 41.1773H102.706V34.3085H91.3446V41.1773ZM91.3446 52.5386H86.7871V29.751H104.985L107.231 32.0623V43.4561L104.985 45.7349H91.3446V52.5386Z" fill="#333333"/>
<path d="M68.0985 52.5386H63.541V29.751H82.8779V34.3085H68.0985V52.5386Z" fill="#333333"/>
<path d="M220.065 19.0904H231.427V5.41788H220.065V19.0904ZM233.705 23.648H217.754L215.508 21.4018V3.17167L217.754 0.860352H233.705L235.952 3.17167V21.4018L233.705 23.648Z" fill="#58C88A"/>
<path d="M195.071 12.2867H206.432V5.41788H195.071V12.2867ZM195.071 23.648H190.514V0.860352H208.711L210.957 3.17167V14.5655L208.711 16.8442H195.071V23.648Z" fill="#58C88A"/>
<path d="M171.825 23.648H167.268V0.860352H186.605V5.41788H171.825V23.648Z" fill="#58C88A"/>
<path d="M146.509 12.2867H157.87V5.41788H151.034L146.509 10.0079V12.2867ZM146.509 23.648H141.951V7.72919L148.755 0.860352H162.395V23.648H157.87V16.8442H146.509V23.648Z" fill="#58C88A"/>
<path d="M121.837 23.648H117.279V0.860352H121.837V10.0079H128.641L133.198 5.45043V0.860352H137.723V7.72919L133.198 12.2867L137.723 16.8442V23.648H133.198V19.0904L128.641 14.5655H121.837V23.648Z" fill="#58C88A"/>
<path d="M112.735 23.648H93.3984V0.860352H112.735V5.41788H97.956V10.0079H111.596V14.5655H97.956V19.0904H112.735V23.648Z" fill="#58C88A"/>
<path d="M68.0985 23.648H63.541V0.860352H68.0985L76.0416 11.8961L84.115 0.860352H88.5097V23.648H83.9522V8.2826L77.9949 17.0396H74.1861L68.0985 8.2826V23.648Z" fill="#58C88A"/>
</svg>
