<svg width="237" height="52" viewBox="0 0 237 52" fill="none" xmlns="http://www.w3.org/2000/svg">
<mask id="mask0_119_28" style="mask-type:alpha" maskUnits="userSpaceOnUse" x="0" y="0" width="53" height="52">
<rect x="0.740234" y="0.0576172" width="51.5148" height="51.5148" rx="2" fill="#6BCD85"/>
</mask>
<g mask="url(#mask0_119_28)">
<path fill-rule="evenodd" clip-rule="evenodd" d="M42.8387 5.30812L16.3447 -21.0963C15.5623 -21.876 15.5602 -23.1424 16.3399 -23.9247L18.974 -26.5678C19.7537 -27.3501 21.02 -27.3523 21.8024 -26.5726L46.8915 -1.56832C47.6729 -0.789533 48.9374 -0.790605 49.7175 -1.57072L52.3522 -4.2054C53.1333 -4.98645 54.3996 -4.98645 55.1807 -4.2054L57.8192 -1.56682C58.6003 -0.785776 58.6003 0.480552 57.8192 1.2616L-11.5583 70.6392C-12.3394 71.4202 -13.6057 71.4202 -14.3868 70.6392L-17.0253 68.0006C-17.8064 67.2195 -17.8064 65.9532 -17.0253 65.1722L-0.445131 48.592C0.334005 47.8128 0.336195 46.5503 -0.440238 45.7684L-25.0126 21.0253C-25.7909 20.2416 -25.7865 18.9752 -25.0028 18.1969L-22.3551 15.5675C-21.5713 14.7891 -20.305 14.7935 -19.5267 15.5773L6.43123 41.7156L11.2481 36.8987L-14.8542 10.6149C-15.6326 9.83118 -15.6282 8.56486 -14.8444 7.78652L-12.1967 5.1571C-11.413 4.37876 -10.1467 4.38315 -9.36832 5.16689L15.301 30.0076C16.0812 30.7933 17.3513 30.7955 18.1343 30.0125L21.9984 26.1485L-3.69992 0.0920909C-4.47554 -0.694343 -4.46678 -1.96064 -3.68035 -2.73627L-1.02358 -5.35653C-0.237147 -6.13215 1.02915 -6.12339 1.80478 -5.33696L27.4655 20.6813L32.4868 15.6601L6.17613 -10.6891C5.39565 -11.4707 5.39658 -12.7371 6.1782 -13.5176L8.81871 -16.1542C9.60033 -16.9347 10.8667 -16.9337 11.6471 -16.1521L37.9538 10.1931L42.8387 5.30812ZM69.8573 8.59152C70.6383 9.37257 70.6383 10.6389 69.8573 11.4199L0.479714 80.7975C-0.301335 81.5786 -1.56767 81.5786 -2.34871 80.7975L-4.98729 78.1589C-5.76834 77.3779 -5.76834 76.1116 -4.98729 75.3305L64.3903 5.95294C65.1713 5.1719 66.4377 5.1719 67.2187 5.95294L69.8573 8.59152ZM83.1161 17.936C83.8972 18.7171 83.8972 19.9834 83.1161 20.7644L13.7385 90.142C12.9575 90.9231 11.6912 90.9231 10.9101 90.142L8.27153 87.5034C7.49048 86.7224 7.49048 85.4561 8.27153 84.675L77.6491 15.2974C78.4302 14.5164 79.6965 14.5164 80.4775 15.2974L83.1161 17.936Z" fill="#58C88A" fill-opacity="0.7"/>
<path fill-rule="evenodd" clip-rule="evenodd" d="M36.8465 46.5642L38.4957 48.2237C39.0126 48.7439 39.2084 49.5072 38.971 50.2011C38.0185 52.9842 36.6869 55.5798 35.0419 57.9316C34.6214 58.5328 33.8894 58.8249 33.1642 58.7141L30.8559 58.3614C30.5728 58.3181 30.2849 58.4004 30.0673 58.5867L24.5914 63.2765C24.374 63.4627 24.2484 63.7343 24.2475 64.0206L24.2402 66.3571C24.2379 67.0904 23.8367 67.7685 23.1783 68.0914C20.6014 69.3552 17.8319 70.2717 14.9354 70.7848C14.213 70.9127 13.4888 70.6017 13.0543 70.0105L11.6697 68.1264C11.5001 67.8956 11.2383 67.7502 10.9528 67.7281L3.76452 67.1722C3.47911 67.1501 3.19824 67.2535 2.99519 67.4553L1.3357 69.1044C0.815485 69.6214 0.0522152 69.8172 -0.641679 69.5797C-3.42481 68.6273 -6.02039 67.2957 -8.37222 65.6506C-8.97337 65.2301 -9.26548 64.4981 -9.15467 63.7729L-8.80197 61.4646C-8.75872 61.1815 -8.84097 60.8936 -9.02727 60.6761L-13.717 55.2001C-13.9033 54.9827 -14.1749 54.8572 -14.4612 54.8563L-16.7976 54.849C-17.531 54.8467 -18.2091 54.4455 -18.532 53.787C-19.7958 51.2102 -20.7123 48.4407 -21.2254 45.5441C-21.3533 44.8218 -21.0422 44.0975 -20.4511 43.663L-18.567 42.2784C-18.3362 42.1088 -18.1908 41.8471 -18.1687 41.5615L-17.6128 34.3733C-17.5908 34.0879 -17.6941 33.807 -17.8959 33.6039L-19.545 31.9445C-20.062 31.4242 -20.2578 30.661 -20.0203 29.9671C-19.0678 27.1839 -17.7363 24.5884 -16.0912 22.2365C-15.6707 21.6354 -14.9387 21.3433 -14.2135 21.4541L-11.9052 21.8068C-11.6221 21.85 -11.3342 21.7678 -11.1167 21.5815L-5.64071 16.8917C-5.42329 16.7055 -5.29775 16.4338 -5.29686 16.1475L-5.28955 13.8111C-5.28726 13.0777 -4.88606 12.3997 -4.2276 12.0767C-1.65074 10.8129 1.11877 9.89642 4.01529 9.38337C4.73767 9.25542 5.46195 9.5665 5.8964 10.1577L7.28103 12.0417C7.45063 12.2725 7.71238 12.4179 7.99792 12.44L15.1862 12.9959C15.4716 13.018 15.7525 12.9147 15.9555 12.7129L17.615 11.0637C18.1352 10.5468 18.8985 10.351 19.5924 10.5885C22.3755 11.5409 24.9711 12.8725 27.3229 14.5175C27.924 14.938 28.2161 15.6701 28.1053 16.3952L27.7526 18.7035C27.7094 18.9867 27.7916 19.2746 27.9779 19.4921L32.6677 24.968C32.8539 25.1855 33.1256 25.311 33.4119 25.3119L35.7483 25.3192C36.4817 25.3215 37.1598 25.7227 37.4827 26.3811C38.7465 28.958 39.663 31.7275 40.176 34.624C40.304 35.3464 39.9929 36.0707 39.4018 36.5051L37.5177 37.8898C37.2869 38.0594 37.1415 38.3211 37.1194 38.6067L36.5635 45.7949C36.5414 46.0803 36.6447 46.3612 36.8465 46.5642ZM8.01975 58.915C18.4194 59.7193 27.502 51.9407 28.3063 41.541C29.1105 31.1413 21.3319 22.0587 10.9322 21.2545C0.532556 20.4502 -8.55003 28.2288 -9.35428 38.6285C-10.1585 49.0282 -2.37992 58.1108 8.01975 58.915Z" fill="#333333"/>
</g>
<path d="M140.552 51.73H135.994V28.9424H156.438V51.73H151.913V33.4999H140.552V51.73Z" fill="#333333"/>
<path d="M113.225 51.73V47.1725H122.34L126.897 42.6475H117.782L110.979 35.8112V28.9424H115.536V33.5325L120.061 38.09H126.897V28.9424H131.422V44.9263L124.619 51.73H113.225Z" fill="#333333"/>
<path d="M91.5204 40.3687H102.882V33.4999H91.5204V40.3687ZM91.5204 51.73H86.9629V28.9424H105.16L107.407 31.2537V42.6475L105.16 44.9263H91.5204V51.73Z" fill="#333333"/>
<path d="M68.2743 51.73H63.7168V28.9424H83.0537V33.4999H68.2743V51.73Z" fill="#333333"/>
<path d="M220.241 18.2818H231.602V4.60928H220.241V18.2818ZM233.881 22.8394H217.93L215.684 20.5932V2.36307L217.93 0.0517578H233.881L236.127 2.36307V20.5932L233.881 22.8394Z" fill="#58C88A"/>
<path d="M195.247 11.4781H206.608V4.60928H195.247V11.4781ZM195.247 22.8394H190.689V0.0517578H208.887L211.133 2.36307V13.7569L208.887 16.0356H195.247V22.8394Z" fill="#58C88A"/>
<path d="M172.001 22.8394H167.443V0.0517578H186.78V4.60928H172.001V22.8394Z" fill="#58C88A"/>
<path d="M146.684 11.4781H158.046V4.60928H151.209L146.684 9.19936V11.4781ZM146.684 22.8394H142.127V6.9206L148.931 0.0517578H162.571V22.8394H158.046V16.0356H146.684V22.8394Z" fill="#58C88A"/>
<path d="M122.013 22.8394H117.455V0.0517578H122.013V9.19936H128.816L133.374 4.64183V0.0517578H137.899V6.9206L133.374 11.4781L137.899 16.0356V22.8394H133.374V18.2818L128.816 13.7569H122.013V22.8394Z" fill="#58C88A"/>
<path d="M112.911 22.8394H93.5742V0.0517578H112.911V4.60928H98.1317V9.19936H111.772V13.7569H98.1317V18.2818H112.911V22.8394Z" fill="#58C88A"/>
<path d="M68.2743 22.8394H63.7168V0.0517578H68.2743L76.2174 11.0875L84.2908 0.0517578H88.6855V22.8394H84.128V7.47401L78.1707 16.231H74.3619L68.2743 7.47401V22.8394Z" fill="#58C88A"/>
</svg>
