<svg width="202" height="45" viewBox="0 0 202 45" fill="none" xmlns="http://www.w3.org/2000/svg">
<mask id="mask0_276_754" style="mask-type:alpha" maskUnits="userSpaceOnUse" x="0" y="-1" width="45" height="46">
<rect x="0.267578" y="-0.00488281" width="44.2155" height="44.2155" rx="1" fill="#6BCD85"/>
</mask>
<g mask="url(#mask0_276_754)">
<path fill-rule="evenodd" clip-rule="evenodd" d="M36.3999 4.50289L12.444 -19.372L17.1284 -24.0723L41.0923 -0.18948L45.7793 -4.87645L50.4716 -0.184084L-11.5032 61.7908L-16.1956 57.0984L0.458759 40.4441L-23.0469 16.775L-18.3383 12.0989L5.15115 35.7517L9.28551 31.6173L-14.3279 7.83974L-9.61932 3.16365L13.9779 26.9249L18.5125 22.3903L-4.74988 -1.19625L-0.0251637 -5.85604L23.205 17.6978L27.5148 13.388L3.71926 -10.4424L8.41505 -15.1313L32.2071 8.69567L36.3999 4.50289ZM60.804 8.53489L-1.1709 70.5098L-5.86326 65.8174L56.1116 3.84252L60.804 8.53489ZM72.1841 16.5553L10.2092 78.5302L5.51687 73.8378L67.4917 11.863L72.1841 16.5553Z" fill="white" fill-opacity="0.7"/>
<path fill-rule="evenodd" clip-rule="evenodd" d="M31.7472 39.7078L33.4632 41.4346C33.7217 41.6947 33.8186 42.0759 33.7054 42.4247C32.8357 45.1058 31.5583 47.5904 29.9509 49.812C29.7359 50.1092 29.3708 50.2559 29.0082 50.2005L26.6053 49.8333C26.3624 49.7962 26.1152 49.8668 25.9285 50.0267L21.2285 54.0519C21.0419 54.2118 20.9341 54.445 20.9334 54.6907L20.9258 57.1225C20.9246 57.4892 20.7236 57.8272 20.3969 57.9939C17.9546 59.2404 15.303 60.1205 12.5201 60.5674C12.1579 60.6256 11.796 60.4711 11.5788 60.1756L10.1377 58.2147C9.99213 58.0166 9.76747 57.8918 9.52239 57.8728L3.35266 57.3957C3.10769 57.3768 2.86662 57.4655 2.69234 57.6387L0.965517 59.3547C0.705411 59.6132 0.324196 59.7101 -0.0246119 59.5969C-2.70568 58.7272 -5.19036 57.4498 -7.41195 55.8424C-7.70913 55.6274 -7.8558 55.2623 -7.80039 54.8997L-7.43324 52.4968C-7.39611 52.2538 -7.46671 52.0067 -7.62661 51.82L-11.6519 47.12C-11.8117 46.9334 -12.0449 46.8256 -12.2906 46.8249L-14.7224 46.8173C-15.0891 46.8161 -15.4271 46.6151 -15.5938 46.2884C-16.8403 43.8461 -17.7204 41.1945 -18.1673 38.4115C-18.2255 38.0494 -18.0711 37.6875 -17.7755 37.4702L-15.8146 36.0292C-15.6165 35.8836 -15.4917 35.659 -15.4728 35.4139L-14.9956 29.2442C-14.9767 28.9992 -15.0654 28.7581 -15.2386 28.5838L-16.9546 26.857C-17.2131 26.5969 -17.31 26.2157 -17.1968 25.8669C-16.3271 23.1858 -15.0497 20.7011 -13.4423 18.4795C-13.2273 18.1824 -12.8622 18.0357 -12.4996 18.0911L-10.0968 18.4583C-9.85376 18.4954 -9.60665 18.4248 -9.41995 18.2649L-4.71991 14.2396C-4.53329 14.0798 -4.42554 13.8466 -4.42478 13.6009L-4.41717 11.1691C-4.41603 10.8024 -4.21497 10.4644 -3.88835 10.2977C-1.44598 9.0512 1.20563 8.17111 3.98857 7.72415C4.35074 7.66598 4.71262 7.82043 4.92985 8.11601L6.37091 10.0769C6.51647 10.2749 6.74113 10.3998 6.98622 10.4187L13.1559 10.8958C13.4009 10.9148 13.642 10.8261 13.8163 10.6529L15.5431 8.93686C15.8032 8.67838 16.1844 8.58152 16.5332 8.69467C19.2143 9.56436 21.6989 10.8418 23.9205 12.4491C24.2177 12.6642 24.3644 13.0292 24.309 13.3918L23.9418 15.7947C23.9047 16.0377 23.9753 16.2848 24.1352 16.4715L28.1605 21.1716C28.3203 21.3582 28.5535 21.4659 28.7992 21.4667L31.231 21.4743C31.5977 21.4755 31.9357 21.6765 32.1024 22.0031C33.3489 24.4455 34.229 27.0971 34.6759 29.88C34.7341 30.2422 34.5797 30.6041 34.2841 30.8213L32.3232 32.2624C32.1251 32.408 32.0003 32.6326 31.9813 32.8777L31.5042 39.0474C31.4853 39.2924 31.574 39.5335 31.7472 39.7078ZM7.00629 50.3077C15.9324 50.998 23.728 44.3216 24.4183 35.3955C25.1086 26.4694 18.4322 18.6737 9.50609 17.9834C0.579982 17.2931 -7.21566 23.9696 -7.90596 32.8957C-8.59626 41.8218 -1.91982 49.6174 7.00629 50.3077Z" fill="#333333"/>
</g>
<path d="M58.2352 19.5111H54.332V-0.00488281H58.2352L65.0379 9.44642L71.9522 -0.00488281H75.7159V19.5111H71.8128V6.35174L66.7107 13.8514H63.4488L58.2352 6.35174V19.5111Z" fill="white"/>
<path d="M96.4639 19.5111H79.9032V-0.00488281H96.4639V3.89831H83.8064V7.82938H95.4881V11.7326H83.8064V15.6079H96.4639V19.5111Z" fill="white"/>
<path d="M104.259 19.5111H100.356V-0.00488281H104.259V7.82938H110.086L113.989 3.92619V-0.00488281H117.864V5.87779L113.989 9.78098L117.864 13.6842V19.5111H113.989V15.6079L110.086 11.7326H104.259V19.5111Z" fill="white"/>
<path d="M125.386 9.78098H135.116V3.89831H129.261L125.386 7.82938V9.78098ZM125.386 19.5111H121.482V5.87779L127.309 -0.00488281H138.991V19.5111H135.116V13.6842H125.386V19.5111Z" fill="white"/>
<path d="M147.07 19.5111H143.167V-0.00488281H159.727V3.89831H147.07V19.5111Z" fill="white"/>
<path d="M166.978 9.78098H176.708V3.89831H166.978V9.78098ZM166.978 19.5111H163.075V-0.00488281H178.66L180.583 1.97459V11.7326L178.66 13.6842H166.978V19.5111Z" fill="white"/>
<path d="M188.383 15.6079H198.113V3.89831H188.383V15.6079ZM200.065 19.5111H186.404L184.48 17.5874V1.97459L186.404 -0.00488281H200.065L201.989 1.97459V17.5874L200.065 19.5111Z" fill="white"/>
<path d="M58.2352 44.2545H54.332V24.7386H70.8927V28.6418H58.2352V44.2545Z" fill="#333333"/>
<path d="M78.1432 34.5244H87.8733V28.6418H78.1432V34.5244ZM78.1432 44.2545H74.2401V24.7386H89.8249L91.7487 26.718V36.476L89.8249 38.4276H78.1432V44.2545Z" fill="#333333"/>
<path d="M96.7328 44.2545V40.3513H104.539L108.442 36.476H100.636L94.8091 30.6212V24.7386H98.7123V28.6696L102.588 32.5728H108.442V24.7386H112.318V38.4276L106.491 44.2545H96.7328Z" fill="#333333"/>
<path d="M120.137 44.2545H116.234V24.7386H133.743V44.2545H129.868V28.6418H120.137V44.2545Z" fill="#333333"/>
</svg>
