<svg width="27" height="27" viewBox="0 0 27 27" fill="none" xmlns="http://www.w3.org/2000/svg">
<path fill-rule="evenodd" clip-rule="evenodd" d="M5.71276 5.03112C1.70512 9.03876 1.70512 15.5364 5.71276 19.5441C9.7204 23.5517 16.2181 23.5517 20.2257 19.5441C24.2334 15.5364 24.2334 9.03876 20.2257 5.03112C16.2181 1.02348 9.7204 1.02348 5.71276 5.03112ZM4.29855 20.9583C-0.490141 16.1696 -0.490141 8.4056 4.29855 3.61691C9.08724 -1.17178 16.8512 -1.17178 21.6399 3.61691C26.4286 8.4056 26.4286 16.1696 21.6399 20.9583C16.8512 25.747 9.08724 25.747 4.29855 20.9583Z" fill="black"/>
<path fill-rule="evenodd" clip-rule="evenodd" d="M25.2589 25.9928L20.1807 20.9146L21.5949 19.5004L26.6731 24.5786C27.0636 24.9691 27.0636 25.6023 26.6731 25.9928C26.2825 26.3833 25.6494 26.3833 25.2589 25.9928Z" fill="black"/>
<path d="M11.5551 15.3699V15.2804C11.5651 14.3308 11.6645 13.5752 11.8534 13.0134C12.0423 12.4516 12.3108 11.9967 12.6588 11.6487C13.0068 11.3007 13.4244 10.98 13.9117 10.6867C14.205 10.5077 14.4685 10.2964 14.7021 10.0528C14.9358 9.80421 15.1198 9.51834 15.254 9.19519C15.3932 8.87204 15.4628 8.51408 15.4628 8.12133C15.4628 7.63411 15.3485 7.21153 15.1198 6.85357C14.8911 6.49562 14.5853 6.21969 14.2025 6.0258C13.8197 5.83191 13.3946 5.73496 12.9273 5.73496C12.5196 5.73496 12.1269 5.81948 11.749 5.98852C11.3712 6.15755 11.0555 6.42353 10.8019 6.78646C10.5484 7.14938 10.4017 7.62417 10.3619 8.21082H8.48269C8.52246 7.36565 8.74121 6.64228 9.13894 6.04072C9.54164 5.43916 10.0711 4.97928 10.7274 4.6611C11.3886 4.34292 12.1219 4.18383 12.9273 4.18383C13.8023 4.18383 14.5629 4.35783 15.2093 4.70584C15.8605 5.05386 16.3627 5.53113 16.7156 6.13766C17.0736 6.7442 17.2526 7.43525 17.2526 8.21082C17.2526 8.75769 17.1681 9.25236 16.999 9.69484C16.835 10.1373 16.5963 10.5325 16.2831 10.8806C15.9749 11.2286 15.602 11.5368 15.1645 11.8053C14.727 12.0787 14.3765 12.3671 14.113 12.6703C13.8495 12.9686 13.6581 13.3241 13.5388 13.7367C13.4195 14.1494 13.3548 14.6639 13.3449 15.2804V15.3699H11.5551ZM12.5097 19.7847C12.1418 19.7847 11.8261 19.6529 11.5626 19.3894C11.2991 19.1259 11.1673 18.8103 11.1673 18.4424C11.1673 18.0745 11.2991 17.7588 11.5626 17.4953C11.8261 17.2318 12.1418 17.1 12.5097 17.1C12.8776 17.1 13.1933 17.2318 13.4568 17.4953C13.7203 17.7588 13.852 18.0745 13.852 18.4424C13.852 18.686 13.7899 18.9097 13.6656 19.1135C13.5463 19.3174 13.3847 19.4814 13.1808 19.6057C12.982 19.725 12.7583 19.7847 12.5097 19.7847Z" fill="black"/>
</svg>
