<svg width="16" height="19" viewBox="0 0 16 19" fill="none" xmlns="http://www.w3.org/2000/svg">
<path d="M2.59693 12.5568H3.59096C4.09842 12.5568 4.50979 12.1454 4.50979 11.638V11.4279C4.50979 10.9204 4.09842 10.509 3.59096 10.509H2.59693V12.5568Z" fill="#58C88A"/>
<path d="M7.27914 10.4849V14.229H8.24894C8.74403 14.229 9.14537 13.8276 9.14537 13.3325V11.3813C9.14537 10.8863 8.74402 10.4849 8.24894 10.4849H7.27914Z" fill="#58C88A"/>
<path fill-rule="evenodd" clip-rule="evenodd" d="M13.1247 18.8765H2.67578C1.57121 18.8765 0.675781 17.9811 0.675781 16.8765V2.00293C0.675781 0.89836 1.57121 0.00292969 2.67578 0.00292969H8.15234V4.67871C8.15234 6.05942 9.27163 7.17871 10.6523 7.17871H15.1247V16.8765C15.1247 17.9811 14.2292 18.8765 13.1247 18.8765ZM14.5733 9.43945H10.9004V15.1943H11.9381V13.0952H13.8911V12.0575H11.9381V10.4772H14.5733V9.43945ZM1.60742 9.51953H3.59096C4.64491 9.51953 5.4993 10.3739 5.4993 11.4279V11.638C5.4993 12.6919 4.64491 13.5463 3.59096 13.5463H2.59693V15.1947H1.60742V9.51953ZM6.31375 9.51953H8.24894C9.27719 9.51953 10.1108 10.3531 10.1108 11.3813V13.3325C10.1108 14.3608 9.27719 15.1944 8.24894 15.1944H6.31375V9.51953Z" fill="#58C88A"/>
<path d="M9.15234 4.67871V0.0434281C9.53218 0.121064 9.88435 0.308144 10.1631 0.585791L14.5359 4.94051C14.8703 5.27349 15.0748 5.71248 15.1166 6.17871H10.6523C9.82392 6.17871 9.15234 5.50714 9.15234 4.67871Z" fill="#58C88A"/>
</svg>
