<svg width="15" height="15" viewBox="0 0 15 15" fill="none" xmlns="http://www.w3.org/2000/svg">
<path d="M9.55357 0.560547H3.70898C3.1567 0.560547 2.70898 1.00826 2.70898 1.56055V6.44872M9.55357 0.560547L13.8184 4.55245M9.55357 0.560547V3.55245C9.55357 4.10474 10.0013 4.55245 10.5536 4.55245H13.8184M2.70898 10.6045V13.1998C2.70898 13.7521 3.1567 14.1998 3.70898 14.1998H12.8184C13.3706 14.1998 13.8184 13.7521 13.8184 13.1998V4.55245" stroke="white"/>
<path fill-rule="evenodd" clip-rule="evenodd" d="M0 6.92864V10.2975C0 10.6556 0.331623 10.9458 0.740702 10.9458H12.0278C12.4368 10.9458 12.7685 10.6556 12.7685 10.2975V6.92864C12.7685 6.57056 12.4368 6.28027 12.0278 6.28027H0.740702C0.331623 6.28027 0 6.57056 0 6.92864ZM2.9637 6.86379H1.41602V10.3617H2.09804V9.26857H2.9637C3.62288 9.26857 4.15725 8.81561 4.15725 8.25684V7.87553C4.15725 7.31676 3.62288 6.86379 2.9637 6.86379ZM2.9637 8.69044H2.09804V7.44193H2.9637C3.24621 7.44193 3.47522 7.63606 3.47522 7.87553V8.25684C3.47522 8.49631 3.24621 8.69044 2.9637 8.69044ZM6.54202 6.86379H4.99433V10.345H6.54202C7.20119 10.345 7.73556 9.89205 7.73556 9.33329V7.87553C7.73556 7.31676 7.20119 6.86379 6.54202 6.86379ZM5.67636 9.76689V7.44193H6.54202C6.82452 7.44193 7.05354 7.63606 7.05354 7.87553V9.33329C7.05354 9.57276 6.82452 9.76689 6.54202 9.76689H5.67636ZM11.3521 6.86379H8.87736V10.3452H9.55938V8.94324H10.8906V8.36511H9.55938V7.44193H11.3521V6.86379Z" fill="white"/>
</svg>
