<svg width="51" height="52" viewBox="0 0 51 52" fill="none" xmlns="http://www.w3.org/2000/svg">
<rect x="0.234375" y="0.861328" width="50.3965" height="50.3965" rx="6" fill="#58C88A"/>
<path d="M21.9596 29.1268C21.9596 28.5746 21.5119 28.1268 20.9596 28.1268C20.4073 28.1268 19.9596 28.5746 19.9596 29.1268H21.9596ZM19.9596 36.3042C19.9596 36.8565 20.4073 37.3042 20.9596 37.3042C21.5119 37.3042 21.9596 36.8565 21.9596 36.3042H19.9596ZM31.344 29.1268C31.344 28.5746 30.8963 28.1268 30.344 28.1268C29.7917 28.1268 29.344 28.5746 29.344 29.1268H31.344ZM29.344 36.3042C29.344 36.8565 29.7917 37.3042 30.344 37.3042C30.8963 37.3042 31.344 36.8565 31.344 36.3042H29.344ZM36.5999 21.9794V40.2413H38.5999V21.9794H36.5999ZM34.3431 42.498H16.524V44.498H34.3431V42.498ZM14.2672 40.2413V21.9794H12.2672V40.2413H14.2672ZM16.524 42.498C15.2776 42.498 14.2672 41.4877 14.2672 40.2413H12.2672C12.2672 42.5922 14.173 44.498 16.524 44.498V42.498ZM36.5999 40.2413C36.5999 41.4877 35.5895 42.498 34.3431 42.498V44.498C36.6941 44.498 38.5999 42.5922 38.5999 40.2413H36.5999ZM12.7724 15.4429H38.0949V13.4429H12.7724V15.4429ZM40.3516 17.6996V20.8938H42.3516V17.6996H40.3516ZM40.2661 20.9794H10.6012V22.9794H40.2661V20.9794ZM10.5156 20.8938V17.6996H8.51562V20.8938H10.5156ZM10.6012 20.9794C10.5539 20.9794 10.5156 20.9411 10.5156 20.8938H8.51562C8.51562 22.0456 9.44937 22.9794 10.6012 22.9794V20.9794ZM40.3516 20.8938C40.3516 20.9411 40.3133 20.9794 40.2661 20.9794V22.9794C41.4179 22.9794 42.3516 22.0456 42.3516 20.8938H40.3516ZM38.0949 15.4429C39.3413 15.4429 40.3516 16.4533 40.3516 17.6996H42.3516C42.3516 15.3487 40.4458 13.4429 38.0949 13.4429V15.4429ZM12.7724 13.4429C10.4214 13.4429 8.51562 15.3487 8.51562 17.6996H10.5156C10.5156 16.4533 11.526 15.4429 12.7724 15.4429V13.4429ZM23.8099 9.62109H27.0574V7.62109H23.8099V9.62109ZM27.0574 9.62109C29.9037 9.62109 32.2111 11.9285 32.2111 14.7748H34.2111C34.2111 10.8239 31.0082 7.62109 27.0574 7.62109V9.62109ZM23.8099 7.62109C19.859 7.62109 16.6562 10.8239 16.6562 14.7748H18.6562C18.6562 11.9285 20.9636 9.62109 23.8099 9.62109V7.62109ZM19.9596 29.1268V36.3042H21.9596V29.1268H19.9596ZM29.344 29.1268V36.3042H31.344V29.1268H29.344Z" fill="white"/>
</svg>
