<svg width="41" height="41" viewBox="0 0 41 41" fill="none" xmlns="http://www.w3.org/2000/svg">
<rect x="1.46289" y="1.88477" width="37.5625" height="37.5625" rx="5" fill="white" stroke="#58C88A" stroke-width="2"/>
<path d="M17.8697 24.1402C17.8697 23.5879 17.4219 23.1402 16.8697 23.1402C16.3174 23.1402 15.8697 23.5879 15.8697 24.1402H17.8697ZM15.8697 29.5584C15.8697 30.1107 16.3174 30.5584 16.8697 30.5584C17.4219 30.5584 17.8697 30.1107 17.8697 29.5584H15.8697ZM24.954 24.1402C24.954 23.5879 24.5063 23.1402 23.954 23.1402C23.4017 23.1402 22.954 23.5879 22.954 24.1402H24.954ZM22.954 29.5584C22.954 30.1107 23.4017 30.5584 23.954 30.5584C24.5063 30.5584 24.954 30.1107 24.954 29.5584H22.954ZM28.4316 18.7445V32.5306H30.4316V18.7445H28.4316ZM26.973 33.9891H13.5211V35.9891H26.973V33.9891ZM12.0626 32.5306V18.7445H10.0626V32.5306H12.0626ZM13.5211 33.9891C12.7156 33.9891 12.0626 33.3361 12.0626 32.5306H10.0626C10.0626 34.4407 11.611 35.9891 13.5211 35.9891V33.9891ZM28.4316 32.5306C28.4316 33.3361 27.7786 33.9891 26.973 33.9891V35.9891C28.8831 35.9891 30.4316 34.4407 30.4316 32.5306H28.4316ZM10.689 14.0551H29.8053V12.0551H10.689V14.0551ZM31.2638 15.5136V17.9249H33.2638V15.5136H31.2638ZM31.4443 17.7445H9.04999V19.7445H31.4443V17.7445ZM9.23047 17.9249V15.5136H7.23047V17.9249H9.23047ZM9.04999 17.7445C9.14967 17.7445 9.23047 17.8253 9.23047 17.9249H7.23047C7.23047 18.9298 8.04509 19.7445 9.04999 19.7445V17.7445ZM31.2638 17.9249C31.2638 17.8253 31.3446 17.7445 31.4443 17.7445V19.7445C32.4492 19.7445 33.2638 18.9298 33.2638 17.9249H31.2638ZM29.8053 14.0551C30.6108 14.0551 31.2638 14.7081 31.2638 15.5136H33.2638C33.2638 13.6035 31.7154 12.0551 29.8053 12.0551V14.0551ZM10.689 12.0551C8.77892 12.0551 7.23047 13.6035 7.23047 15.5136H9.23047C9.23047 14.7081 9.88349 14.0551 10.689 14.0551V12.0551ZM19.0214 9.66016H21.4729V7.66016H19.0214V9.66016ZM21.4729 9.66016C23.4863 9.66016 25.1184 11.2923 25.1184 13.3056H27.1184C27.1184 10.1877 24.5908 7.66016 21.4729 7.66016V9.66016ZM19.0214 7.66016C15.9035 7.66016 13.3759 10.1877 13.3759 13.3056H15.3759C15.3759 11.2923 17.008 9.66016 19.0214 9.66016V7.66016ZM15.8697 24.1402V29.5584H17.8697V24.1402H15.8697ZM22.954 24.1402V29.5584H24.954V24.1402H22.954Z" fill="#58C88A"/>
</svg>
