<svg width="121" height="121" viewBox="0 0 121 121" fill="none" xmlns="http://www.w3.org/2000/svg">
<path d="M35.7869 37.845L42.6133 40.8168C42.8207 40.9071 43.0112 41.0318 43.1768 41.1858L48.7419 46.3599C49.2492 46.8315 49.1349 47.6648 48.5371 48.0147C40.6266 52.6447 35.3135 61.2315 35.3135 71.0592C35.3135 85.7956 46.2509 97.3363 60.9873 97.3363C75.7237 97.3363 86.6611 85.7956 86.6611 71.0592C86.6611 61.2315 81.348 52.6447 73.4374 48.0147C72.8396 47.6648 72.7254 46.8315 73.2326 46.3599L78.7978 41.1858C78.9634 41.0318 79.1539 40.9071 79.3613 40.8168L86.1876 37.845C86.921 37.5257 87.774 37.674 88.3565 38.2221L93.8746 43.414C94.491 43.994 94.6756 44.8993 94.3355 45.6744L91.5247 52.0788C91.2642 52.6725 91.311 53.3537 91.628 53.9192C92.8833 56.1585 93.9002 58.5494 94.6444 61.0576C94.8158 61.6353 95.2223 62.1173 95.7723 62.3635L102.381 65.3206C103.101 65.6427 103.564 66.3576 103.564 67.1462V74.8817C103.564 75.6919 103.076 76.422 102.327 76.7308L95.9341 79.366C95.3501 79.6068 94.9177 80.1104 94.7442 80.7178C94.0417 83.1779 93.0775 85.5275 91.8837 87.7348C91.5991 88.2609 91.5451 88.8841 91.7558 89.4439L94.2236 96.0025C94.496 96.7265 94.3265 97.5428 93.7882 98.0984L88.5287 103.528C87.9725 104.102 87.128 104.289 86.3809 104.005L79.904 101.541C79.3315 101.323 78.6924 101.382 78.1583 101.682C75.889 102.958 73.4635 103.988 70.9178 104.737C70.3166 104.914 69.8194 105.345 69.5813 105.925L66.9768 112.266C66.6687 113.016 65.9379 113.506 65.1268 113.506H56.8478C56.0367 113.506 55.3059 113.016 54.9977 112.266L52.3933 105.925C52.1552 105.345 51.658 104.914 51.0568 104.737C48.5111 103.988 46.0856 102.958 43.8163 101.682C43.2822 101.382 42.6431 101.323 42.0706 101.541L35.5937 104.005C34.8466 104.289 34.002 104.102 33.4459 103.528L28.1864 98.0984C27.6481 97.5428 27.4785 96.7265 27.751 96.0025L30.2188 89.4439C30.4294 88.8841 30.3755 88.2609 30.0909 87.7348C28.8971 85.5275 27.9329 83.1779 27.2303 80.7178C27.0568 80.1104 26.6245 79.6068 26.0404 79.366L19.6479 76.7308C18.8989 76.422 18.4102 75.6919 18.4102 74.8817V67.1462C18.4102 66.3576 18.8735 65.6427 19.5933 65.3206L26.2022 62.3635C26.7523 62.1173 27.1587 61.6353 27.3301 61.0576C28.0743 58.5494 29.0913 56.1585 30.3466 53.9192C30.6636 53.3537 30.7104 52.6725 30.4498 52.0788L27.6391 45.6744C27.2989 44.8993 27.4835 43.994 28.1 43.414L33.6181 38.2221C34.2006 37.674 35.0536 37.5257 35.7869 37.845Z" stroke="#58C88A" stroke-width="1.8"/>
<path d="M60.9905 38.5634C55.5936 45.2188 53.6594 54.0656 61.0485 57.1224C68.2663 53.9408 66.3873 45.2188 60.9905 38.5634Z" stroke="#58C88A" stroke-width="1.8"/>
<path d="M45.1648 57.3781C47.2976 65.711 53.269 72.5652 60.1553 68.4405C61.9118 60.7195 53.7585 57.0129 45.1648 57.3781Z" stroke="#58C88A" stroke-width="1.8"/>
<path d="M76.8076 57.3782C74.6748 65.711 68.7034 72.5652 61.8171 68.4405C60.0605 60.7196 68.2139 57.0129 76.8076 57.3782Z" stroke="#58C88A" stroke-width="1.8"/>
<path d="M40.9962 74.8272C44.7098 84.31 52.7198 91.4991 60.2142 85.6544C61.1596 76.3271 51.0417 73.1528 40.9962 74.8272Z" stroke="#58C88A" stroke-width="1.8"/>
<path d="M80.9805 74.8277C77.2669 84.3105 69.2569 91.4996 61.7625 85.6549C60.8171 76.3276 70.935 73.1533 80.9805 74.8277Z" stroke="#58C88A" stroke-width="1.8"/>
<path d="M60.8984 8.33361C60.9359 8.26249 61.0377 8.26249 61.0753 8.33361L65.427 16.5816C65.4414 16.609 65.4678 16.6282 65.4984 16.6335L74.6874 18.2234C74.7667 18.2371 74.7981 18.334 74.7421 18.3917L68.2425 25.0792C68.2209 25.1014 68.2108 25.1324 68.2153 25.1631L69.5427 34.3937C69.5542 34.4733 69.4718 34.5332 69.3996 34.4977L61.0309 30.3828C61.0031 30.3691 60.9705 30.3691 60.9427 30.3828L52.574 34.4977C52.5019 34.5332 52.4195 34.4733 52.4309 34.3937L53.7584 25.1631C53.7628 25.1324 53.7527 25.1014 53.7311 25.0792L47.2315 18.3917C47.1755 18.334 47.207 18.2371 47.2862 18.2234L56.4753 16.6335C56.5058 16.6282 56.5322 16.609 56.5467 16.5816L60.8984 8.33361Z" stroke="#58C88A" stroke-width="1.8"/>
<path d="M85.9931 16.777C86.0306 16.7059 86.1325 16.7059 86.17 16.777L88.8379 21.8337C88.8524 21.8611 88.8788 21.8803 88.9093 21.8855L94.543 22.8603C94.6222 22.874 94.6537 22.9709 94.5976 23.0285L90.6129 27.1285C90.5913 27.1508 90.5812 27.1818 90.5856 27.2125L91.3994 32.8716C91.4109 32.9512 91.3285 33.011 91.2563 32.9756L86.1257 30.4528C86.0978 30.4391 86.0652 30.4391 86.0374 30.4528L80.9067 32.9756C80.8346 33.011 80.7522 32.9512 80.7636 32.8716L81.5775 27.2125C81.5819 27.1818 81.5718 27.1508 81.5502 27.1285L77.5654 23.0285C77.5094 22.9709 77.5409 22.874 77.6201 22.8603L83.2538 21.8855C83.2843 21.8803 83.3107 21.8611 83.3251 21.8337L85.9931 16.777Z" stroke="#58C88A" stroke-width="1.8"/>
<path d="M35.8056 16.777C35.8431 16.7059 35.945 16.7059 35.9825 16.777L38.6504 21.8337C38.6649 21.8611 38.6913 21.8803 38.7218 21.8855L44.3555 22.8603C44.4347 22.874 44.4662 22.9709 44.4101 23.0285L40.4254 27.1285C40.4038 27.1508 40.3937 27.1818 40.3981 27.2125L41.2119 32.8716C41.2234 32.9512 41.141 33.011 41.0688 32.9756L35.9382 30.4528C35.9103 30.4391 35.8777 30.4391 35.8499 30.4528L30.7192 32.9756C30.6471 33.011 30.5647 32.9512 30.5761 32.8716L31.39 27.2125C31.3944 27.1818 31.3843 27.1508 31.3627 27.1285L27.3779 23.0285C27.3219 22.9709 27.3534 22.874 27.4326 22.8603L33.0663 21.8855C33.0968 21.8803 33.1232 21.8611 33.1376 21.8337L35.8056 16.777Z" stroke="#58C88A" stroke-width="1.8"/>
</svg>
