<svg width="121" height="121" viewBox="0 0 121 121" fill="none" xmlns="http://www.w3.org/2000/svg">
<path d="M72.3633 44.5928V21.1416H96.834M25.1836 107.363H49.8398L49.8398 74.8867M72.3633 14.832H96.834M25.1387 95.6924H44.6016M25.1387 101.278H36.0352M38.6699 101.278H44.6016M72.3633 10.0703H96.834M89.7158 96.4229C85.5585 96.4229 84.526 94.2945 84.526 91.6689C84.526 89.0434 86.8495 86.915 89.7158 86.915M89.7158 96.4229C95.1449 96.4229 95.9258 98.9697 95.9258 102.111C95.9258 105.253 93.1455 107.8 89.7158 107.8M89.7158 96.4229V86.915M89.7158 96.4229V107.8M89.7158 86.915C92.582 86.915 94.9056 89.0434 94.9056 91.6689M89.7158 86.915V84.5469M89.7158 107.8C86.2861 107.8 83.5058 105.253 83.5058 102.111M89.7158 107.8V110.168M45.6352 37.7901C49.5569 35.6939 53.9317 34.5897 58.3775 34.5734C58.4327 34.5732 58.4775 34.618 58.4775 34.6732V61.775C58.4775 61.8015 58.4881 61.8269 58.5068 61.8457L77.6707 81.0095C77.7097 81.0486 77.7097 81.1119 77.6705 81.1508C74.5153 84.2829 70.6412 86.5956 66.3858 87.8865C62.0986 89.187 57.5567 89.4101 53.1627 88.5361C48.7686 87.6621 44.6579 85.7178 41.1947 82.8757C37.7314 80.0335 35.0226 76.381 33.3081 72.2419C31.5937 68.1028 30.9264 63.6047 31.3656 59.1461C31.8047 54.6875 33.3366 50.406 35.8257 46.6809C38.3147 42.9558 41.6841 39.902 45.6352 37.7901ZM88.8303 45.0952C90.2092 48.3603 90.9375 51.8627 90.9749 55.4062C90.9755 55.4614 90.931 55.5065 90.8758 55.5069L63.8333 55.693C63.778 55.6933 63.733 55.6489 63.7326 55.5936L63.5465 28.5511C63.5461 28.4959 63.5906 28.4508 63.6458 28.4506C67.1894 28.4392 70.7016 29.1193 73.9853 30.4531C77.3 31.7994 80.317 33.7854 82.8641 36.2977C85.4112 38.81 87.4385 41.7994 88.8303 45.0952ZM89.0324 69.0553C87.6739 72.4565 85.6437 75.5485 83.0635 78.1467C83.0246 78.1859 82.9612 78.1859 82.9222 78.1469L63.8974 59.1148C63.8353 59.0527 63.8777 58.9464 63.9655 58.9441L90.867 58.2561C90.9222 58.2547 90.9681 58.2983 90.9693 58.3535C91.0495 62.0144 90.3909 65.6542 89.0324 69.0553Z" stroke="#58C88A" stroke-width="1.8"/>
</svg>
