<svg width="121" height="121" viewBox="0 0 121 121" fill="none" xmlns="http://www.w3.org/2000/svg">
<path d="M30.3713 34.4853H50.5294M40.4504 32.9624V37.1163M69.5629 34.4853H89.721M79.642 32.9624V37.1163M97.7968 29.4464H100.629M113.646 29.4464H116.477M100.531 36.0508L102.534 34.0484M111.738 24.8441L113.74 22.8417M113.74 36.0508L111.738 34.0484M102.534 24.8441L100.531 22.8417M107.135 20.1055V22.9373M107.135 35.9542V38.786M68.2444 41.2759H75.7287M44.3655 41.2759H51.8498M44.3675 56.7058L49.3128 56.7058M51.8912 44.7134H51.373C50.9392 44.7134 50.555 44.993 50.4215 45.4056L46.8693 56.3871M75.7484 56.7058L70.803 56.7058M68.2246 44.7134H68.7429C69.1766 44.7134 69.5609 44.993 69.6944 45.4056L73.2465 56.3871M24.3849 63.288V66.1333M24.3849 63.288C26.167 63.288 27.6117 61.8433 27.6117 60.0611V59.8194C27.6117 59.5845 27.5905 59.3494 27.5442 59.1192C27.0862 56.8406 26.4733 55.3072 25.3045 53.2329C24.9377 52.5819 24.0096 52.5755 23.64 53.2249C22.5711 55.1029 21.9583 56.6274 21.289 58.9949C21.2009 59.3068 21.158 59.6306 21.158 59.9546V60.0611C21.158 61.8433 22.6027 63.288 24.3849 63.288ZM101.534 66.3682V69.2135M101.534 66.3682C103.316 66.3682 104.76 64.9235 104.76 63.1413V62.8996C104.76 62.6647 104.739 62.4296 104.693 62.1994C104.235 59.9208 103.622 58.3874 102.453 56.3131C102.086 55.6621 101.158 55.6557 100.789 56.3051C99.7198 58.1831 99.107 59.7076 98.4377 62.0751C98.3495 62.387 98.3066 62.7108 98.3066 63.0348V63.1413C98.3066 64.9235 99.7514 66.3682 101.534 66.3682ZM13.6038 66.3682V69.2135M13.6038 66.3682C15.386 66.3682 16.8307 64.9235 16.8307 63.1413V62.8996C16.8307 62.6647 16.8095 62.4296 16.7632 62.1994C16.3052 59.9208 15.6923 58.3874 14.5235 56.3131C14.1567 55.6621 13.2285 55.6557 12.859 56.3051C11.7901 58.1831 11.1773 59.7076 10.508 62.0751C10.4198 62.387 10.377 62.7108 10.377 63.0348V63.1413C10.377 64.9235 11.8217 66.3682 13.6038 66.3682ZM2.36523 73.9719C20.1426 62.9376 85.1241 58.0335 119.147 76.8844M2.82449 90.3706C20.6018 79.3364 85.5849 67.9946 119.608 86.8455M14.6444 94.0226C36.2782 88.5237 78.3991 89.0104 108.052 100.717M89.7208 67.1201C83.9903 69.4086 81.1612 71.4152 76.8535 76.6261M13.6039 85.6182C18.2413 85.9028 23.3984 88.3797 27.6145 91.4438M31.4676 80.9424C38.5793 81.3789 46.5798 85.5651 52.6827 90.4391M57.3984 77.623C65.9857 79.1457 72.9067 85.953 78.1944 92.6387M78.9214 77.0127C90.8058 80.7104 96.9773 89.6208 101.164 98.0901M72.4746 65.3301C66.744 67.6186 63.0626 71.4602 60.2168 76.7349M57.6848 64.2094C51.9542 66.4979 45.7119 72.6395 43.8381 78.2613M40.8465 64.9766C35.1159 67.2651 27.3855 75.979 25.5117 81.6008M53.8499 45.7647H66.2441C67.3486 45.7647 68.2441 44.8693 68.2441 43.7647V42.7876C68.2441 39.4739 65.5578 36.7876 62.2441 36.7876H57.8499C54.5362 36.7876 51.8499 39.4739 51.8499 42.7876V43.7647C51.8499 44.8693 52.7453 45.7647 53.8499 45.7647ZM38.5367 44.3287H42.3674C43.472 44.3287 44.3674 43.4333 44.3674 42.3287V39.2307C44.3674 38.1262 43.472 37.2307 42.3674 37.2307H38.5367C37.4321 37.2307 36.5367 38.1262 36.5367 39.2307V42.3287C36.5367 43.4333 37.4321 44.3287 38.5367 44.3287ZM77.7283 44.3287H81.559C82.6636 44.3287 83.559 43.4333 83.559 42.3287V39.2307C83.559 38.1262 82.6636 37.2307 81.559 37.2307H77.7283C76.6237 37.2307 75.7283 38.1262 75.7283 39.2307V42.3287C75.7283 43.4333 76.6237 44.3287 77.7283 44.3287ZM107.136 32.9622C105.195 32.9622 103.621 31.3876 103.621 29.4463C103.621 27.5049 105.195 25.9303 107.136 25.9303C109.078 25.9303 110.651 27.5049 110.651 29.4463C110.651 31.3876 109.078 32.9622 107.136 32.9622ZM10.5328 36.9538H21.5694C23.1235 36.9538 24.3834 35.6939 24.3834 34.1398C24.3834 32.5856 23.1235 31.3258 21.5694 31.3258H19.7849C19.6779 31.3258 19.5911 31.239 19.5911 31.1319C19.5911 28.8833 17.7683 27.0605 15.5197 27.0605H15.264C13.0155 27.0605 11.1927 28.8833 11.1927 31.1319C11.1927 31.239 11.1059 31.3258 10.9988 31.3258H10.5328C8.97863 31.3258 7.71875 32.5856 7.71875 34.1398C7.71875 35.6939 8.97863 36.9538 10.5328 36.9538Z" stroke="#58C88A" stroke-width="1.8"/>
</svg>
