<svg width="121" height="121" viewBox="0 0 121 121" fill="none" xmlns="http://www.w3.org/2000/svg">
<path d="M85.8956 53.7538C92.8957 55.0693 99.582 50.5754 100.83 43.7164C100.929 43.1707 100.991 42.6264 101.017 42.0862C101.065 41.0951 99.9346 40.5765 99.1079 41.1373L94.461 44.29C94.0691 44.5559 93.5598 44.5944 93.125 44.3909L88.3138 42.1398C87.8789 41.9364 87.5846 41.5219 87.5416 41.0526L87.0665 35.8597C87.0236 35.3903 87.2385 34.9374 87.6304 34.6715L92.3854 31.4455C93.2045 30.8898 93.1145 29.685 92.1622 29.3678C91.5983 29.1799 91.015 29.028 90.4144 28.9151C83.4143 27.5996 76.728 32.0935 75.4801 38.9525M85.8956 53.7538C84.7327 53.5352 83.6343 53.1701 82.6167 52.6817C82.1474 52.4564 81.5907 52.4739 81.1678 52.7653L77.7313 55.1334M85.8956 53.7538L86.7364 57.3229C86.8499 57.8049 87.2273 58.1878 87.7143 58.3149L91.3933 59.2755C91.98 59.4287 92.3978 59.9476 92.3887 60.5418C92.3638 62.1666 92.2057 63.8091 91.9059 65.4572C91.6052 67.11 91.1733 68.7057 90.6227 70.2361C90.4219 70.7943 89.849 71.1268 89.2471 71.0563L85.6194 70.6316C85.0464 70.5645 84.5017 70.8655 84.2419 71.3672C83.4557 72.8854 82.5189 74.3037 81.4535 75.6071C81.095 76.0457 81.0383 76.6598 81.3335 77.1497L83.2021 80.2505C83.5121 80.7649 83.4379 81.4172 83.0038 81.8256C80.5857 84.1007 77.7982 85.9734 74.7584 87.3646C74.2127 87.6144 73.5629 87.4484 73.1826 86.9813L70.89 84.1655C70.5277 83.7206 69.9207 83.5524 69.3733 83.7223C67.7543 84.225 66.0722 84.5708 64.349 84.7451C63.7774 84.8029 63.2956 85.1915 63.1543 85.7375L62.257 89.2045C62.1086 89.7782 61.5864 90.1814 60.9819 90.1651C59.3192 90.1205 57.6364 89.9435 55.9461 89.6258C54.2608 89.3091 52.6318 88.8645 51.0676 88.3044C50.4973 88.1001 50.1512 87.5339 50.2141 86.9442L50.5944 83.3804C50.6543 82.8191 50.3408 82.2811 49.8272 82.0196C48.9142 81.5548 48.0355 81.0395 47.1943 80.4781M75.4801 38.9525L72.8376 37.4377C72.3748 37.1725 72.1122 36.6654 72.1684 36.1458L72.5626 32.5026C72.6265 31.9123 72.2805 31.3451 71.7095 31.1406C70.1441 30.5797 68.5136 30.1346 66.8268 29.8176C65.1448 29.5015 63.4704 29.3247 61.8157 29.279C61.2106 29.2622 60.6877 29.6659 60.5394 30.2402L59.6454 33.7025C59.5042 34.2494 59.0215 34.6385 58.4491 34.6958C56.7175 34.8692 55.0273 35.2158 53.4007 35.7207C52.854 35.8905 52.2478 35.7228 51.8854 35.279L49.5853 32.4624C49.2047 31.9963 48.5556 31.831 48.0105 32.0806C44.9649 33.4751 42.1725 35.3528 39.7515 37.6344C39.3182 38.0428 39.2441 38.6942 39.5535 39.2082L41.4232 42.3146C41.7177 42.804 41.6612 43.4171 41.3037 43.8555C40.2451 45.1534 39.3137 46.5649 38.5315 48.0752C38.272 48.5763 37.7284 48.8772 37.1561 48.811L33.5225 48.3909C32.9212 48.3213 32.3492 48.6539 32.1487 49.2114C31.5988 50.7406 31.1675 52.3349 30.867 53.9862C30.5657 55.6425 30.4075 57.2932 30.3838 58.9258C30.3752 59.5194 30.7926 60.0376 31.3786 60.191L34.9204 61.1178C35.4782 61.2637 35.8802 61.742 35.9466 62.3043C36.0417 63.1106 36.1763 63.9083 36.3486 64.6951M75.4801 38.9525C75.3119 39.8771 75.2511 40.7976 75.289 41.7013C75.3089 42.1754 75.1019 42.6338 74.7085 42.9037L70.5878 45.7306M42.8216 79.7346C41.6251 83.5594 37.6693 85.9537 33.5423 85.1781C29.0832 84.3401 26.1127 80.1188 26.9076 75.7496C27.6732 71.5412 31.6529 68.7305 35.9294 69.2782M42.8216 79.7346L43.9239 79.1038C44.4183 78.8209 45.0434 78.8844 45.4944 79.2413C46.0422 79.6748 46.6092 80.0876 47.1943 80.4781M42.8216 79.7346L40.7855 80.8997C40.2662 81.1969 39.6019 81.1156 39.1805 80.6846C36.8256 78.2766 34.8772 75.509 33.4175 72.4991C33.1563 71.9604 33.316 71.3249 33.7856 70.9572L35.9294 69.2782M35.9294 69.2782L36.6234 68.7346C37.0705 68.3844 37.2333 67.7912 37.0533 67.2519C36.774 66.415 36.5384 65.5617 36.3486 64.6951M36.3486 64.6951C29.5789 63.7507 23.2481 68.1792 22.0374 74.8344C20.7895 81.6934 25.4527 88.3202 32.4528 89.6357C39.1491 90.8941 45.5581 86.8366 47.1943 80.4781M45.2154 63.2153L70.5878 45.7306M70.5878 45.7306C68.7525 44.5514 66.6596 43.6976 64.3796 43.2692C55.1062 41.5264 46.2484 47.4797 44.5954 56.5662C42.9423 65.6527 49.1198 74.4315 58.3933 76.1743C67.6667 77.917 76.5245 71.9637 78.1775 62.8772C78.6622 60.213 78.4737 57.5752 77.7313 55.1334M77.7313 55.1334L51.8098 72.9965M50.9539 64.4072L74.3541 48.5397C75.071 48.0535 76.061 48.2355 76.5653 48.946C77.0696 49.6566 76.8973 50.6267 76.1805 51.1128L52.7802 66.9804M20.0488 59.426C20.0488 37.2763 38.0048 19.3203 60.1545 19.3203C66.0096 19.3203 71.5716 20.575 76.5864 22.8301M101.914 60.7807C102.374 82.9257 84.7942 101.25 62.6492 101.71C56.7954 101.831 51.2085 100.692 46.148 98.5418" stroke="#58C88A" stroke-width="1.8"/>
</svg>
