<svg width="121" height="121" viewBox="0 0 121 121" fill="none" xmlns="http://www.w3.org/2000/svg">
<path d="M61.2948 69.8708C58.8723 69.8708 56.9085 71.8346 56.9085 74.2571C56.9085 76.6797 58.8723 78.6435 61.2948 78.6435C63.7174 78.6435 65.6812 76.6797 65.6812 74.2571C65.6812 71.8346 63.7174 69.8708 61.2948 69.8708ZM61.2948 69.8708L61.3763 58.2647M61.3763 58.2647C62.0211 52.2099 64.1876 49.8487 71.2313 48.5193C71.674 48.4357 72.0617 48.8235 71.9782 49.2661C70.6488 56.3099 68.2293 58.3803 62.1745 59.0252C61.7706 59.0682 61.3333 58.6687 61.3763 58.2647ZM61.3763 58.2647C60.7315 52.2099 58.6614 49.7901 51.6177 48.4606C51.175 48.3771 50.7872 48.7648 50.8708 49.2075C52.2002 56.2513 54.6197 58.3217 60.6745 58.9665C61.0784 59.0096 61.4193 58.6687 61.3763 58.2647ZM25.6542 89.6051C23.2317 89.6051 21.2678 91.569 21.2678 93.9915C21.2678 96.414 23.2317 98.3779 25.6542 98.3779C28.0767 98.3779 30.0406 96.414 30.0406 93.9915C30.0406 91.569 28.0767 89.6051 25.6542 89.6051ZM25.6542 89.6051L25.7357 77.9991M25.7357 77.9991C26.3805 71.9443 28.5469 69.5831 35.5907 68.2536C36.0334 68.1701 36.4211 68.5578 36.3376 69.0005C35.0081 76.0443 32.5887 78.1147 26.5339 78.7595C26.1299 78.8026 25.6927 78.403 25.7357 77.9991ZM25.7357 77.9991C25.0909 71.9443 23.0208 69.5245 15.977 68.195C15.5344 68.1115 15.1466 68.4992 15.2302 68.9419C16.5596 75.9857 18.9791 78.0561 25.0338 78.7009C25.4378 78.7439 25.7787 78.403 25.7357 77.9991ZM96.9355 89.6051C94.5129 89.6051 92.5491 91.569 92.5491 93.9915C92.5491 96.414 94.5129 98.3779 96.9355 98.3779C99.358 98.3779 101.322 96.414 101.322 93.9915C101.322 91.569 99.358 89.6051 96.9355 89.6051ZM96.9355 89.6051L97.0169 77.9991M97.0169 77.9991C97.6617 71.9443 99.8282 69.5831 106.872 68.2536C107.315 68.1701 107.702 68.5578 107.619 69.0005C106.289 76.0443 103.87 78.1147 97.8152 78.7595C97.4112 78.8026 96.9739 78.403 97.0169 77.9991ZM97.0169 77.9991C96.3721 71.9443 94.3021 69.5245 87.2583 68.195C86.8156 68.1115 86.4279 68.4992 86.5114 68.9419C87.8409 75.9857 90.2603 78.0561 96.3151 78.7009C96.7191 78.7439 97.06 78.403 97.0169 77.9991ZM5.03125 90.5977H7.38289C11.1881 90.5977 14.2728 93.6824 14.2728 97.4875C14.2728 101.293 17.3575 104.377 21.1626 104.377H28.2192C32.0243 104.377 35.109 101.293 35.109 97.4875C35.109 93.6824 38.1937 90.5977 41.9989 90.5977H44.0144C47.8196 90.5977 50.9043 93.6824 50.9043 97.4875C50.9043 101.293 53.989 104.377 57.7941 104.377H64.1785C67.9837 104.377 71.0684 101.293 71.0684 97.4875C71.0684 93.6824 74.1531 90.5977 77.9583 90.5977H79.9737C83.7789 90.5977 86.8636 93.6824 86.8636 97.4875C86.8636 101.293 89.9483 104.377 93.7535 104.377H100.81C104.615 104.377 107.7 101.293 107.7 97.4875C107.7 93.6824 110.785 90.5977 114.59 90.5977H116.941M12.9199 110.359H14.6407M42.0137 104.375H43.7345M77.9805 104.375H79.7013M105.91 111.219H107.631M61.0332 110.359H62.754M59.2526 9.53906V19.2493C58.2777 19.4767 57.3603 19.8538 56.5261 20.3552C53.7556 22.0203 51.9019 25.0551 51.9019 28.5229C51.9019 29.1412 51.9608 29.7457 52.0733 30.3312L50.2926 31.6236L39.3111 40.0627C37.491 41.4614 36.8571 43.9196 37.7738 46.0241L46.4347 65.9066C46.8758 66.9193 48.0544 67.3826 49.067 66.9415C50.0797 66.5003 50.543 65.3218 50.1019 64.3092L41.441 44.4266C41.2576 44.0057 41.3844 43.5141 41.7484 43.2344L52.7299 34.7953L53.7177 34.1174C55.4487 36.4979 58.2558 38.0454 61.4243 38.0454C64.6247 38.0454 67.4563 36.4666 69.1828 34.0454L70.1207 34.7953L81.1022 43.2344C81.4662 43.5141 81.593 44.0057 81.4097 44.4266L72.7488 64.3092C72.3076 65.3218 72.771 66.5003 73.7836 66.9415C74.7963 67.3826 75.9748 66.9193 76.4159 65.9066L85.0768 46.0241C85.9935 43.9196 85.3596 41.4614 83.5396 40.0627L72.5581 31.6236L70.7844 30.2832C70.8911 29.7127 70.9468 29.1244 70.9468 28.5229C70.9468 24.0104 67.8079 20.2309 63.5944 19.2489V9.53906M56.4102 28.4863C56.4102 25.7174 58.6549 23.4727 61.4238 23.4727C64.1928 23.4727 66.4375 25.7174 66.4375 28.4863C66.4375 31.2553 64.1928 33.5 61.4238 33.5C58.6549 33.5 56.4102 31.2553 56.4102 28.4863Z" stroke="#58C88A" stroke-width="1.8"/>
</svg>
