<svg width="383" height="394" viewBox="0 0 383 394" fill="none" xmlns="http://www.w3.org/2000/svg">
<path d="M134.344 343.288L29.0137 335.275V38.8751L134.344 31.0742V343.288Z" fill="url(#paint0_linear_176_3685)"/>
<path d="M39.2163 146.959V272.922H37.1543V305.161H134.344V146.959H39.2163Z" fill="#D8DEE8"/>
<mask id="mask0_176_3685" style="mask-type:luminance" maskUnits="userSpaceOnUse" x="37" y="45" width="98" height="285">
<path d="M37.1543 322.322V51.849L134.344 45.3164V329.05L37.1543 322.322Z" fill="white"/>
</mask>
<g mask="url(#mask0_176_3685)">
<path d="M165.87 9.47461C165.87 9.47461 165.972 77.6606 181.262 108.961C196.552 140.262 202.305 170.735 190.799 188.578C179.293 206.421 134.343 179.195 134.343 179.195C134.343 179.195 113.134 194.159 103.545 226.179C93.9568 258.199 31.6323 284.88 18.2087 275.854C4.785 266.828 10.538 25.1782 10.538 25.1782L165.87 9.47461Z" fill="white"/>
<path d="M15.332 294.23C15.332 294.23 53.0978 311.84 81.6773 295.567C110.257 279.294 134.343 250.049 134.343 250.049C134.343 250.049 163.408 267.859 179.021 266.865C194.635 265.87 206.185 215.774 206.185 215.774C206.185 215.774 232.029 202.93 243.535 176.87C255.041 150.81 290.359 122.429 309.695 116.484C329.03 110.539 340.378 121.637 340.378 121.637L335.583 348.788L37.1534 364.416L15.332 294.23Z" fill="white"/>
</g>
<path d="M206.188 326.257H329.033V48.5176H206.188V326.257Z" fill="url(#paint1_linear_176_3685)"/>
<path d="M319.073 313.568V61.0117H206.188L172.312 156.381L206.188 313.568H319.073Z" fill="#D8DEE8"/>
<mask id="mask1_176_3685" style="mask-type:luminance" maskUnits="userSpaceOnUse" x="206" y="61" width="114" height="253">
<path d="M319.074 313.566L319.074 61.0098L206.189 61.0098L206.189 313.566H319.074Z" fill="white"/>
</mask>
<g mask="url(#mask1_176_3685)">
<path d="M15.334 294.224C15.334 294.224 53.0997 311.835 81.6793 295.561C110.259 279.288 134.345 250.044 134.345 250.044C134.345 250.044 163.41 267.853 179.023 266.859C194.637 265.864 206.187 215.768 206.187 215.768C206.187 215.768 232.031 202.925 243.537 176.864C255.043 150.804 290.361 122.423 309.697 116.478C329.032 110.533 340.38 121.631 340.38 121.631L335.585 348.782L37.1553 364.41L15.334 294.224Z" fill="white"/>
<path d="M185.412 17.9492C185.412 17.9492 175.23 64.6697 185.412 77.0536C195.594 89.4374 203.354 124.881 206.186 134.486C209.018 144.091 231.071 165.115 242.577 145.973C254.084 126.832 271.343 112.87 279.972 106.427C288.602 99.9847 343.255 93.3684 346.132 88.5264C349.008 83.6844 350.926 28.7432 350.926 28.7432L185.412 17.9492Z" fill="white"/>
</g>
<path d="M206.184 326.257L134.342 343.288V31.0742L206.184 48.517V61.0122L192.736 87.7055L188.627 308.289L206.184 313.568V326.257Z" fill="url(#paint2_linear_176_3685)"/>
<path d="M206.184 271.259V64.2562L180.887 55.5965L168.34 52.8248L166.175 52.5703V178.864H134.342V271.259H206.184Z" fill="#97A6B7"/>
<mask id="mask2_176_3685" style="mask-type:luminance" maskUnits="userSpaceOnUse" x="134" y="45" width="73" height="285">
<path d="M134.34 329.05V45.3164L206.182 61.0143V313.591L134.34 329.05Z" fill="white"/>
</mask>
<g mask="url(#mask2_176_3685)">
<path d="M165.868 9.47461C165.868 9.47461 165.97 77.6606 181.26 108.961C196.55 140.262 202.303 170.735 190.797 188.578C179.291 206.421 134.341 179.195 134.341 179.195C134.341 179.195 113.132 194.159 103.543 226.179C93.9548 258.199 31.6304 284.88 18.2067 275.854C4.78305 266.828 10.536 25.1782 10.536 25.1782L165.868 9.47461Z" fill="#D8DEE8"/>
<path d="M15.3301 294.23C15.3301 294.23 53.0958 311.84 81.6754 295.567C110.255 279.294 134.341 250.049 134.341 250.049C134.341 250.049 163.406 267.859 179.019 266.865C194.633 265.87 206.183 215.774 206.183 215.774C206.183 215.774 232.027 202.93 243.533 176.87C255.039 150.81 290.358 122.429 309.693 116.484C329.029 110.539 340.376 121.637 340.376 121.637L335.581 348.788L37.1514 364.416L15.3301 294.23Z" fill="#D8DEE8"/>
<path d="M185.408 17.9551C185.408 17.9551 175.226 64.6756 185.408 77.0594C195.591 89.4433 203.35 124.887 206.182 134.492C209.014 144.097 231.068 165.121 242.574 145.979C254.08 126.838 271.339 112.876 279.968 106.433C288.598 99.9905 343.251 93.3742 346.128 88.5323C349.005 83.6903 350.922 28.749 350.922 28.749L185.408 17.9551Z" fill="#D8DEE8"/>
</g>
<path opacity="0.53" d="M263.592 61.0117H261.674V326.256H263.592V61.0117Z" fill="url(#paint3_linear_176_3685)"/>
<path opacity="0.53" d="M86.7105 48.5801H84.793V326.256H86.7105V48.5801Z" fill="url(#paint4_linear_176_3685)"/>
<path opacity="0.53" d="M319.074 149.778H206.076L205.967 149.752L134.274 132.712L37.2378 140.908L37.0762 138.997L134.418 130.775L134.568 130.811L206.301 147.86H319.074V149.778Z" fill="url(#paint5_linear_176_3685)"/>
<path d="M58.4612 198.435C57.7792 198.435 57.1059 198.123 56.6687 197.533C55.9359 196.544 56.1434 195.148 57.1321 194.415C57.1368 194.412 57.9931 193.777 59.4925 192.645C60.4745 191.904 61.8723 192.099 62.6143 193.081C63.3558 194.064 63.1604 195.462 62.178 196.203C60.6548 197.353 59.7866 197.997 59.7866 197.997C59.3875 198.292 58.9221 198.435 58.4612 198.435Z" fill="url(#paint6_linear_176_3685)"/>
<path d="M249.318 207.125C247.996 207.125 246.481 206.936 244.686 206.547C243.483 206.287 242.719 205.1 242.979 203.897C243.241 202.694 244.429 201.93 245.63 202.191C247.781 202.657 249.494 202.781 250.519 202.56C251.704 202.287 252.888 203.011 253.183 204.192C253.481 205.386 252.755 206.596 251.561 206.895C251.542 206.899 251.51 206.907 251.491 206.911C250.84 207.054 250.112 207.125 249.318 207.125ZM256.602 205.054C255.769 205.054 254.969 204.584 254.588 203.781C254.059 202.67 254.532 201.34 255.643 200.811C257.245 200.05 258.793 199.09 260.245 197.959C261.216 197.202 262.617 197.376 263.373 198.347C264.13 199.318 263.956 200.719 262.985 201.475C261.277 202.806 259.451 203.937 257.558 204.837C257.249 204.984 256.923 205.054 256.602 205.054ZM239.466 204.977C239.23 204.977 238.989 204.939 238.753 204.859C237.022 204.274 235.114 203.565 233.085 202.752C231.942 202.293 231.388 200.996 231.846 199.853C232.304 198.711 233.601 198.156 234.744 198.614C236.697 199.397 238.526 200.077 240.179 200.635C241.345 201.029 241.971 202.294 241.578 203.46C241.264 204.39 240.396 204.977 239.466 204.977ZM228.455 200.607C228.155 200.607 227.849 200.546 227.556 200.416C225.831 199.654 224.002 198.818 222.12 197.931C221.006 197.407 220.529 196.079 221.053 194.965C221.578 193.851 222.905 193.374 224.02 193.899C225.869 194.77 227.665 195.591 229.358 196.338C230.484 196.836 230.993 198.152 230.496 199.278C230.128 200.111 229.311 200.607 228.455 200.607ZM265.895 197.881C265.374 197.881 264.851 197.699 264.428 197.329C263.502 196.518 263.408 195.11 264.219 194.184C265.404 192.831 266.514 191.33 267.52 189.721C268.172 188.677 269.549 188.361 270.591 189.013C271.635 189.666 271.952 191.041 271.3 192.085C270.168 193.895 268.914 195.589 267.573 197.121C267.133 197.624 266.515 197.881 265.895 197.881ZM217.734 195.569C217.402 195.569 217.066 195.495 216.749 195.339C215.033 194.491 213.243 193.591 211.429 192.662C210.333 192.101 209.9 190.758 210.46 189.662C211.021 188.567 212.365 188.133 213.46 188.694C215.255 189.613 217.026 190.504 218.722 191.341C219.826 191.886 220.279 193.223 219.734 194.327C219.346 195.113 218.555 195.569 217.734 195.569ZM65.5372 193.069C64.8687 193.069 64.208 192.77 63.7688 192.2C63.0185 191.224 63.2009 189.824 64.1771 189.074C65.5808 187.994 67.1495 186.779 68.8404 185.457C69.8107 184.699 71.2111 184.87 71.9695 185.84C72.7279 186.809 72.5561 188.21 71.5869 188.968C69.8853 190.299 68.3069 191.521 66.8945 192.607C66.4895 192.919 66.0117 193.069 65.5372 193.069ZM207.187 190.175C206.837 190.175 206.481 190.092 206.15 189.918C204.402 188.997 202.651 188.061 200.904 187.116C199.822 186.531 199.418 185.178 200.004 184.095C200.589 183.013 201.942 182.61 203.025 183.195C204.757 184.132 206.495 185.06 208.228 185.974C209.317 186.548 209.735 187.896 209.161 188.985C208.761 189.743 207.988 190.175 207.187 190.175ZM74.8619 185.777C74.206 185.777 73.5565 185.489 73.1162 184.936C72.35 183.972 72.5096 182.57 73.4727 181.804C74.9586 180.622 76.4987 179.386 78.0717 178.112C79.0275 177.337 80.4312 177.484 81.2065 178.44C81.9814 179.397 81.8344 180.8 80.8781 181.575C79.2944 182.858 77.7437 184.102 76.2482 185.292C75.8381 185.618 75.3482 185.777 74.8619 185.777ZM196.769 184.545C196.404 184.545 196.034 184.455 195.692 184.266C193.947 183.302 192.214 182.335 190.504 181.372C189.432 180.768 189.052 179.408 189.656 178.336C190.26 177.263 191.621 176.884 192.692 177.488C194.392 178.445 196.114 179.406 197.849 180.365C198.926 180.961 199.317 182.317 198.721 183.394C198.315 184.13 197.554 184.545 196.769 184.545ZM186.446 178.733C186.07 178.733 185.689 178.638 185.339 178.437C183.586 177.431 181.869 176.438 180.198 175.464C179.134 174.844 178.774 173.479 179.394 172.416C180.015 171.352 181.381 170.993 182.442 171.613C184.104 172.581 185.813 173.57 187.557 174.57C188.625 175.183 188.994 176.545 188.382 177.612C187.97 178.331 187.219 178.733 186.446 178.733ZM84.0556 178.324C83.4137 178.324 82.7776 178.049 82.3365 177.516C81.5519 176.567 81.6849 175.162 82.6335 174.378C84.1818 173.096 85.7016 171.824 87.1494 170.597C88.0877 169.8 89.4939 169.917 90.291 170.855C91.0873 171.794 90.9711 173.201 90.0323 173.997C88.5711 175.236 87.0377 176.52 85.4749 177.812C85.0594 178.156 84.5558 178.324 84.0556 178.324ZM176.211 172.765C175.824 172.765 175.432 172.665 175.076 172.453C173.295 171.397 171.589 170.377 169.976 169.404C168.922 168.768 168.583 167.398 169.218 166.344C169.855 165.29 171.225 164.952 172.278 165.587C173.882 166.554 175.578 167.569 177.349 168.619C178.408 169.246 178.758 170.614 178.13 171.673C177.714 172.375 176.972 172.765 176.211 172.765ZM93.0777 170.668C92.4566 170.668 91.8384 170.41 91.3978 169.905C90.5881 168.978 90.6833 167.57 91.6106 166.76C93.1478 165.418 94.6255 164.104 96.0027 162.856C96.9144 162.03 98.3239 162.099 99.1511 163.011C99.9773 163.924 99.908 165.333 98.9959 166.16C97.5989 167.426 96.1004 168.757 94.5428 170.118C94.1201 170.487 93.5976 170.668 93.0777 170.668ZM166.065 166.642C165.667 166.642 165.263 166.535 164.899 166.311C163.049 165.172 161.348 164.111 159.844 163.156C158.805 162.497 158.497 161.12 159.156 160.08C159.817 159.041 161.193 158.733 162.233 159.393C163.719 160.336 165.402 161.387 167.235 162.515C168.284 163.16 168.61 164.533 167.965 165.581C167.544 166.265 166.813 166.642 166.065 166.642ZM101.837 162.712C101.249 162.712 100.661 162.481 100.223 162.02C99.374 161.129 99.4082 159.718 100.3 158.869C101.805 157.436 103.204 156.058 104.459 154.773C105.319 153.893 106.731 153.877 107.61 154.736C108.491 155.597 108.508 157.008 107.647 157.888C106.356 159.211 104.918 160.627 103.374 162.097C102.943 162.508 102.389 162.712 101.837 162.712ZM156.079 160.257C155.649 160.257 155.214 160.133 154.831 159.873C153.883 159.231 152.914 158.567 151.93 157.891C151.274 157.441 150.611 156.986 149.942 156.53C148.925 155.836 148.663 154.449 149.357 153.432C150.051 152.415 151.437 152.154 152.454 152.847C153.127 153.306 153.793 153.763 154.452 154.216C155.429 154.886 156.389 155.545 157.331 156.182C158.35 156.872 158.617 158.258 157.927 159.277C157.496 159.914 156.794 160.257 156.079 160.257ZM110.07 154.216C109.554 154.216 109.034 154.037 108.613 153.673C107.682 152.868 107.58 151.46 108.385 150.529C109.025 149.789 109.615 149.075 110.139 148.405C110.852 147.495 111.605 146.654 112.38 145.906C113.266 145.051 114.676 145.076 115.531 145.961C116.386 146.846 116.362 148.258 115.476 149.113C114.85 149.718 114.235 150.404 113.649 151.153C113.081 151.879 112.444 152.65 111.757 153.445C111.316 153.955 110.695 154.216 110.07 154.216ZM146.273 153.639C145.86 153.639 145.442 153.524 145.069 153.284C143.266 152.124 141.648 151.141 140.124 150.279C139.052 149.674 138.675 148.314 139.28 147.242C139.887 146.171 141.246 145.793 142.317 146.399C143.916 147.303 145.605 148.329 147.481 149.535C148.516 150.202 148.815 151.581 148.149 152.616C147.723 153.278 147.005 153.639 146.273 153.639ZM135.948 147.895C135.647 147.895 135.342 147.834 135.049 147.705C133.207 146.893 131.452 146.272 129.829 145.858C128.636 145.554 127.916 144.341 128.22 143.148C128.524 141.956 129.735 141.235 130.93 141.539C132.79 142.013 134.781 142.715 136.848 143.627C137.974 144.123 138.484 145.439 137.988 146.565C137.62 147.399 136.804 147.895 135.948 147.895ZM118.791 146.436C117.929 146.436 117.109 145.933 116.745 145.092C116.256 143.962 116.775 142.65 117.905 142.161C119.939 141.28 122.15 140.805 124.477 140.747C125.711 140.717 126.73 141.689 126.761 142.92C126.791 144.15 125.818 145.173 124.588 145.203C122.811 145.247 121.204 145.59 119.675 146.252C119.387 146.377 119.087 146.436 118.791 146.436Z" fill="url(#paint7_linear_176_3685)"/>
<path d="M272.07 188.126C271.768 188.126 271.461 188.065 271.168 187.934C270.042 187.435 269.535 186.119 270.034 184.993C270.709 183.472 271.02 182.481 271.023 182.472C271.389 181.298 272.637 180.641 273.812 181.004C274.986 181.369 275.644 182.614 275.282 183.789C275.267 183.838 274.9 185.016 274.109 186.801C273.74 187.632 272.924 188.126 272.07 188.126Z" fill="url(#paint8_linear_176_3685)"/>
<path d="M127.757 63.8582C127.757 91.0933 89.6026 140.791 72.3354 161.888C68.0385 167.137 60.006 167.137 55.7091 161.888C38.4419 140.791 0.287109 91.0932 0.287109 63.8582C0.287109 28.6583 28.8223 0.123047 64.0222 0.123047C99.2222 0.123047 127.757 28.6583 127.757 63.8582Z" fill="url(#paint9_linear_176_3685)"/>
<path d="M89.1556 88.9939C103.037 75.1125 103.037 52.6063 89.1556 38.7249C75.2741 24.8434 52.7679 24.8434 38.8865 38.7248C25.0051 52.6063 25.0051 75.1125 38.8865 88.9939C52.7679 102.875 75.2741 102.875 89.1556 88.9939Z" fill="white"/>
<g opacity="0.3">
<path d="M63.7405 135.719C67.7842 109.09 85.3691 100.566 82.3509 75.4218C78.87 46.4234 53.1939 38.6999 52.5744 12.8911C52.4747 8.73598 53.0399 4.72929 54.106 0.892578C23.616 5.65591 0.287109 32.0319 0.287109 63.8585C0.287109 91.0935 38.4419 140.791 55.7091 161.888C58.2382 164.978 62.0613 166.247 65.6553 165.699C62.5652 154.036 62.4717 144.076 63.7405 135.719Z" fill="url(#paint10_linear_176_3685)"/>
</g>
<path d="M64.0233 205.922C71.218 205.922 77.0505 200.089 77.0505 192.894C77.0505 185.7 71.218 179.867 64.0233 179.867C56.8286 179.867 50.9961 185.7 50.9961 192.894C50.9961 200.089 56.8286 205.922 64.0233 205.922Z" fill="url(#paint11_linear_176_3685)"/>
<path d="M302.151 122.675C302.151 135.068 284.788 157.684 276.931 167.284C274.975 169.673 271.32 169.673 269.365 167.284C261.507 157.684 244.145 135.068 244.145 122.675C244.145 106.657 257.13 93.6719 273.148 93.6719C289.166 93.6719 302.151 106.657 302.151 122.675Z" fill="url(#paint12_linear_176_3685)"/>
<path d="M289.16 124.929C290.399 116.083 284.231 107.906 275.385 106.667C266.538 105.428 258.362 111.596 257.122 120.442C255.883 129.289 262.051 137.465 270.897 138.704C279.744 139.944 287.921 133.776 289.16 124.929Z" fill="white"/>
<g opacity="0.3">
<path d="M273.019 155.375C274.86 143.257 282.862 139.379 281.488 127.936C279.904 114.741 268.22 111.226 267.938 99.4815C267.893 97.5907 268.15 95.7673 268.635 94.0215C254.76 96.1891 244.145 108.192 244.145 122.674C244.145 135.068 261.507 157.683 269.365 167.283C270.516 168.69 272.255 169.267 273.891 169.018C272.485 163.71 272.442 159.178 273.019 155.375Z" fill="url(#paint13_linear_176_3685)"/>
</g>
<path d="M273.149 187.323C276.423 187.323 279.077 184.669 279.077 181.395C279.077 178.121 276.423 175.467 273.149 175.467C269.875 175.467 267.221 178.121 267.221 181.395C267.221 184.669 269.875 187.323 273.149 187.323Z" fill="url(#paint14_linear_176_3685)"/>
<path d="M224.221 368.638L179.135 366.794L191.617 337.549L220.664 339.263L228.437 351.974L224.221 368.638Z" fill="#304447"/>
<path d="M266.516 322.15C266.816 322.15 267.113 322.171 267.409 322.201L272.093 322.15L272.066 323.987C276.605 327.147 279.755 334.058 279.755 342.081C279.755 350.421 276.352 357.56 271.523 360.533L271.501 362.012H266.516C259.205 362.012 253.277 353.089 253.277 342.081C253.277 331.074 259.205 322.15 266.516 322.15Z" fill="#5B5B5B"/>
<path d="M272.093 362.012C279.404 362.012 285.332 353.088 285.332 342.081C285.332 331.074 279.404 322.15 272.093 322.15C264.781 322.15 258.854 331.074 258.854 342.081C258.854 353.088 264.781 362.012 272.093 362.012Z" fill="#333333"/>
<path d="M137.147 337.283C137.515 337.283 137.879 337.306 138.24 337.339L143.98 337.283L143.946 339.34C149.507 342.881 153.366 350.623 153.366 359.612C153.366 368.955 149.197 376.953 143.28 380.284L143.254 381.941H137.147C128.19 381.941 120.928 371.944 120.928 359.612C120.928 347.28 128.19 337.283 137.147 337.283Z" fill="#5B5B5B"/>
<path d="M143.981 381.941C152.939 381.941 160.201 371.944 160.201 359.612C160.201 347.28 152.939 337.283 143.981 337.283C135.023 337.283 127.762 347.28 127.762 359.612C127.762 371.944 135.023 381.941 143.981 381.941Z" fill="#333333"/>
<path d="M198.823 347.652C199.185 347.652 199.543 347.676 199.899 347.71L205.549 347.652L205.516 349.761C210.991 353.391 214.79 361.329 214.79 370.544C214.79 380.122 210.685 388.322 204.861 391.736L204.834 393.435H198.823C190.005 393.435 182.855 383.186 182.855 370.544C182.856 357.901 190.005 347.652 198.823 347.652Z" fill="#5B5B5B"/>
<path d="M205.549 393.434C214.368 393.434 221.516 383.186 221.516 370.543C221.516 357.901 214.368 347.652 205.549 347.652C196.731 347.652 189.582 357.901 189.582 370.543C189.582 383.186 196.731 393.434 205.549 393.434Z" fill="#333333"/>
<path d="M207.793 383.402C212.747 383.402 216.763 377.645 216.763 370.542C216.763 363.439 212.747 357.682 207.793 357.682C202.838 357.682 198.822 363.439 198.822 370.542C198.822 377.645 202.838 383.402 207.793 383.402Z" fill="#D8DEE8"/>
<path d="M206.435 382.482C210.64 382.482 214.049 377.137 214.049 370.543C214.049 363.949 210.64 358.604 206.435 358.604C202.231 358.604 198.822 363.949 198.822 370.543C198.822 377.137 202.231 382.482 206.435 382.482Z" fill="url(#paint15_linear_176_3685)"/>
<path d="M358.061 322.15V345.978C358.061 352.198 352.616 357.015 346.443 356.257L288.506 349.141V322.15H358.061Z" fill="#314447"/>
<path d="M331.978 318.842L316.072 343.561C313.798 347.095 310.067 349.431 305.895 349.932L253.277 356.254L249.25 329.644L331.978 318.842Z" fill="#32565C"/>
<path d="M328.31 330.885C328.61 330.885 328.907 330.905 329.202 330.935L333.887 330.885L333.859 332.721C338.398 335.882 341.549 342.793 341.549 350.816C341.549 359.155 338.145 366.295 333.316 369.267L333.294 370.746H328.31C320.998 370.746 315.07 361.823 315.07 350.816C315.07 339.808 320.998 330.885 328.31 330.885Z" fill="#5B5B5B"/>
<path d="M333.888 370.746C341.199 370.746 347.127 361.823 347.127 350.815C347.127 339.808 341.199 330.885 333.888 330.885C326.576 330.885 320.648 339.808 320.648 350.815C320.648 361.823 326.576 370.746 333.888 370.746Z" fill="#333333"/>
<path d="M335.748 362.012C339.856 362.012 343.186 356.998 343.186 350.814C343.186 344.63 339.856 339.617 335.748 339.617C331.641 339.617 328.311 344.63 328.311 350.814C328.311 356.998 331.641 362.012 335.748 362.012Z" fill="#D8DEE8"/>
<path d="M334.623 361.211C338.109 361.211 340.936 356.557 340.936 350.815C340.936 345.074 338.109 340.42 334.623 340.42C331.137 340.42 328.311 345.074 328.311 350.815C328.311 356.557 331.137 361.211 334.623 361.211Z" fill="url(#paint16_linear_176_3685)"/>
<path d="M270.854 337.548L378.933 322.58C380.712 322.333 382.036 320.813 382.036 319.018V223.793C382.036 221.85 380.492 220.258 378.55 220.199L270.854 216.881V337.548Z" fill="url(#paint17_linear_176_3685)"/>
<path d="M186.018 330.884L270.854 337.548V216.881L190.231 221.137C187.869 221.262 186.018 223.214 186.018 225.579V330.884Z" fill="url(#paint18_linear_176_3685)"/>
<g opacity="0.3">
<path d="M309.846 263.797C325.556 244.2 356.786 258.661 372.551 236.681C376.105 231.727 378.578 226.674 380.296 221.887C381.336 222.512 382.035 223.631 382.035 224.918V319.153C382.035 320.931 380.711 322.435 378.932 322.679L281.125 336.084C287.3 329.406 293.501 320.873 297.99 310.207C307.846 286.789 299.588 276.593 309.846 263.797Z" fill="url(#paint19_linear_176_3685)"/>
<path d="M309.846 263.797C325.556 244.2 356.786 258.661 372.551 236.681C376.105 231.727 378.578 226.674 380.296 221.887C381.336 222.512 382.035 223.631 382.035 224.918V319.153C382.035 320.931 380.711 322.435 378.932 322.679L281.125 336.084C287.3 329.406 293.501 320.873 297.99 310.207C307.846 286.789 299.588 276.593 309.846 263.797Z" fill="black" fill-opacity="0.2"/>
</g>
<mask id="mask3_176_3685" style="mask-type:alpha" maskUnits="userSpaceOnUse" x="291" y="239" width="77" height="77">
<path d="M291.402 241.916C291.402 240.718 292.445 239.697 293.63 239.735L365.345 242.012C366.348 242.043 367.103 242.831 367.103 243.844V305.57C367.103 306.66 366.235 307.624 365.15 307.741L293.434 315.436C292.319 315.555 291.402 314.734 291.402 313.614V241.916Z" fill="#6BCD85"/>
</mask>
<g mask="url(#mask3_176_3685)">
<path fill-rule="evenodd" clip-rule="evenodd" d="M351.836 241.471L310.822 204.028L318.842 195.248L359.87 232.704L367.894 223.947L375.928 231.308L269.822 347.102L261.789 339.741L290.302 308.624L250.059 271.467L258.12 262.725L298.336 299.856L305.414 292.132L264.986 254.804L273.048 246.063L313.448 283.364L321.212 274.892L281.384 237.84L289.474 229.124L329.245 266.124L336.624 258.072L295.884 220.681L303.924 211.919L344.658 249.305L351.836 241.471ZM393.618 244.745L287.512 360.539L279.478 353.178L385.584 237.384L393.618 244.745ZM413.102 256.825L306.996 372.619L298.962 365.257L405.068 249.463L413.102 256.825Z" fill="white" fill-opacity="0.7"/>
<path fill-rule="evenodd" clip-rule="evenodd" d="M346.168 303.457L349.406 306.445C349.664 306.682 349.76 307.055 349.65 307.414C348.116 312.452 345.794 317.184 342.841 321.459C342.624 321.773 342.261 321.952 341.9 321.928L337.365 321.629C336.949 321.602 336.526 321.76 336.206 322.063L328.159 329.685C327.84 329.987 327.655 330.404 327.654 330.827L327.64 335.435C327.639 335.802 327.438 336.157 327.114 336.355C322.706 339.051 317.892 341.079 312.829 342.289C312.467 342.376 312.107 342.253 311.891 341.977L309.171 338.5C308.922 338.181 308.537 338.001 308.118 338.005L297.554 338.109C297.135 338.113 296.722 338.302 296.424 338.625L293.165 342.161C292.906 342.442 292.527 342.572 292.178 342.492C287.293 341.38 282.782 339.443 278.781 336.83C278.486 336.637 278.34 336.286 278.395 335.918L279.088 331.305C279.152 330.882 279.031 330.468 278.757 330.171L271.866 322.696C271.592 322.4 271.193 322.249 270.772 322.285L266.183 322.672C265.817 322.703 265.481 322.531 265.312 322.221C263.011 317.997 261.41 313.304 260.645 308.289C260.59 307.931 260.744 307.556 261.038 307.313L264.739 304.259C265.078 303.979 265.291 303.574 265.324 303.15L266.141 292.475C266.173 292.052 266.021 291.651 265.725 291.377L262.487 288.389C262.229 288.152 262.133 287.779 262.243 287.42C263.777 282.382 266.099 277.65 269.052 273.375C269.268 273.061 269.632 272.882 269.993 272.906L274.528 273.205C274.944 273.232 275.367 273.074 275.687 272.771L283.734 265.149C284.053 264.847 284.238 264.43 284.239 264.007L284.253 259.399C284.254 259.032 284.455 258.677 284.779 258.479C289.187 255.783 294.001 253.755 299.064 252.544C299.426 252.458 299.786 252.58 300.002 252.857L302.722 256.334C302.971 256.652 303.356 256.833 303.775 256.829L314.338 256.725C314.758 256.721 315.171 256.532 315.469 256.208L318.728 252.673C318.987 252.392 319.366 252.262 319.715 252.342C324.6 253.454 329.111 255.391 333.112 258.004C333.406 258.196 333.553 258.548 333.498 258.916L332.805 263.529C332.741 263.952 332.862 264.366 333.136 264.663L340.027 272.138C340.301 272.434 340.7 272.585 341.121 272.549L345.71 272.162C346.076 272.131 346.412 272.303 346.581 272.613C348.882 276.837 350.483 281.53 351.248 286.545C351.303 286.903 351.149 287.278 350.855 287.521L347.154 290.575C346.815 290.855 346.602 291.26 346.569 291.684L345.752 302.358C345.72 302.782 345.872 303.183 346.168 303.457ZM303.809 325.382C319.091 325.231 332.438 312.589 333.62 297.145C334.802 281.701 323.371 269.303 308.089 269.454C292.807 269.605 279.46 282.247 278.278 297.691C277.096 313.135 288.527 325.532 303.809 325.382Z" fill="#333333"/>
</g>
<path d="M254.456 266.811C257.383 279.95 264.211 317.847 256.591 358.576C256.024 361.608 253.591 363.947 250.545 364.433L224.221 368.636C224.221 368.636 223.957 343.714 211.311 342.08C198.664 340.446 186.808 352.302 186.018 372.852C186.018 372.852 158.618 376.54 117.254 367.056C117.254 367.056 111.721 365.87 109.35 359.613L111.218 330.949C111.371 328.597 112.462 326.405 114.245 324.863L138.594 303.824C138.594 303.824 160.726 272.471 168.103 266.412C168.103 266.412 172.055 260.089 203.934 259.298C225.889 258.754 241.007 260.209 248.292 261.168C251.332 261.568 253.789 263.818 254.456 266.811Z" fill="white"/>
<path opacity="0.6" d="M112.618 326.74L113.829 328.064C113.302 342.818 110.105 348.033 137.147 350.815C164.189 353.596 163.36 330.884 163.36 330.884L198.824 315.417L228.436 268.784C234.314 264.049 244.584 262.755 251.548 262.455C252.991 263.477 254.054 265.005 254.456 266.812C257.383 279.95 264.211 317.848 256.592 358.577C256.024 361.609 253.591 363.948 250.545 364.434L224.221 368.637C224.221 368.637 223.957 343.715 211.311 342.081C198.664 340.446 186.808 352.302 186.018 372.853C186.018 372.853 158.618 376.541 117.254 367.057C117.254 367.057 111.721 365.871 109.35 359.613L111.218 330.95C111.317 329.436 111.808 327.991 112.618 326.74Z" fill="#D8DEE8"/>
<path d="M199.188 308.614C198.228 310.189 196.436 311.057 194.605 310.832L138.451 303.949L138.596 303.824C138.596 303.824 156.961 277.806 165.808 268.594L217.589 271.709C219.372 271.816 220.4 273.782 219.471 275.308L199.188 308.614Z" fill="url(#paint20_linear_176_3685)"/>
<path opacity="0.3" d="M165.749 291.128C181.038 285.117 193.743 292.241 204.258 283.835C208.303 280.601 210.713 276.111 212.135 271.381L217.586 271.709C219.37 271.816 220.398 273.782 219.469 275.308L199.186 308.614C198.226 310.189 196.434 311.057 194.603 310.833L148.006 305.121C154.126 297.168 160.425 293.221 165.749 291.128Z" fill="white"/>
<path d="M116.124 330.542C116.182 330.03 116.61 329.644 117.125 329.648C131.118 329.771 148.713 332.715 154.539 333.76C155.636 333.957 156.36 335.029 156.105 336.114C154.966 340.976 153.077 344.264 151.686 346.171C150.741 347.469 149.286 348.287 147.685 348.413C143.283 348.758 133.516 349.346 128.781 348.219C124.57 347.216 120.539 345.218 118.373 344.031C117.112 343.34 116.221 342.114 116.001 340.693C115.468 337.259 115.903 332.5 116.124 330.542Z" fill="#31565C"/>
<path d="M184.592 331.892C184.986 331.094 184.608 330.132 183.773 329.823C182.537 329.366 180.843 328.838 179.86 328.954C178.569 329.105 167.661 331.939 162.671 333.245C161.131 333.648 160.067 335.077 160.171 336.666C160.394 340.062 161.677 345.443 167.51 346.046C175.607 346.884 180.723 339.743 184.592 331.892Z" fill="#88B8C1"/>
<path d="M132.139 351.974C153.366 354.938 157.672 347.654 157.672 347.654C162.696 348.401 169.836 347.416 173.882 346.712C175.424 346.443 176.92 347.176 177.783 348.482C178.429 349.458 179.603 350.447 181.737 350.815C185.22 351.415 191.152 350.089 194.058 349.343C189.829 355.146 186.869 362.669 186.479 372.822C186.479 372.822 158.618 376.542 117.254 367.057C117.254 367.057 111.721 365.872 109.35 359.614L110.568 340.922C112.736 344.239 118.405 350.056 132.139 351.974Z" fill="url(#paint21_linear_176_3685)"/>
<path d="M245.402 274.431L237.776 276.277C235.283 276.88 233.101 278.384 231.651 280.5L212.771 308.039C211.482 309.919 213.147 312.409 215.376 311.937L248.089 305.017C249.407 304.738 250.37 303.609 250.428 302.263C250.632 297.544 250.851 286.359 249.002 276.765C248.681 275.101 247.049 274.033 245.402 274.431Z" fill="url(#paint22_linear_176_3685)"/>
<defs>
<linearGradient id="paint0_linear_176_3685" x1="173.275" y1="397.793" x2="-132.707" y2="218.988" gradientUnits="userSpaceOnUse">
<stop stop-color="#5487B0"/>
<stop offset="1" stop-color="#58C890"/>
</linearGradient>
<linearGradient id="paint1_linear_176_3685" x1="374.438" y1="374.744" x2="72.7764" y2="143.631" gradientUnits="userSpaceOnUse">
<stop stop-color="#5487B0"/>
<stop offset="1" stop-color="#58C890"/>
</linearGradient>
<linearGradient id="paint2_linear_176_3685" x1="232.737" y1="397.793" x2="-8.85034" y2="301.502" gradientUnits="userSpaceOnUse">
<stop stop-color="#5487B0"/>
<stop offset="1" stop-color="#58C890"/>
</linearGradient>
<linearGradient id="paint3_linear_176_3685" x1="261.674" y1="193.634" x2="263.592" y2="193.634" gradientUnits="userSpaceOnUse">
<stop stop-color="#58C88A"/>
<stop offset="1" stop-color="#367A6B"/>
</linearGradient>
<linearGradient id="paint4_linear_176_3685" x1="84.793" y1="187.418" x2="86.7105" y2="187.418" gradientUnits="userSpaceOnUse">
<stop stop-color="#58C88A"/>
<stop offset="1" stop-color="#367A6B"/>
</linearGradient>
<linearGradient id="paint5_linear_176_3685" x1="423.302" y1="153.095" x2="421.641" y2="110.408" gradientUnits="userSpaceOnUse">
<stop stop-color="#5487B0"/>
<stop offset="1" stop-color="#58C890"/>
</linearGradient>
<linearGradient id="paint6_linear_176_3685" x1="65.59" y1="199.524" x2="59.7993" y2="188.539" gradientUnits="userSpaceOnUse">
<stop stop-color="#5487B0"/>
<stop offset="1" stop-color="#58C890"/>
</linearGradient>
<linearGradient id="paint7_linear_176_3685" x1="348.64" y1="218.714" x2="322.068" y2="74.2617" gradientUnits="userSpaceOnUse">
<stop stop-color="#5487B0"/>
<stop offset="1" stop-color="#58C890"/>
</linearGradient>
<linearGradient id="paint8_linear_176_3685" x1="277.429" y1="189.387" x2="269.622" y2="179.015" gradientUnits="userSpaceOnUse">
<stop stop-color="#5487B0"/>
<stop offset="1" stop-color="#58C890"/>
</linearGradient>
<linearGradient id="paint9_linear_176_3685" x1="174.871" y1="194.753" x2="-4.10209" y2="-43.7281" gradientUnits="userSpaceOnUse">
<stop stop-color="#5487B0"/>
<stop offset="1" stop-color="#58C890"/>
</linearGradient>
<linearGradient id="paint10_linear_176_3685" x1="113.157" y1="194.616" x2="-70.4544" y2="35.7024" gradientUnits="userSpaceOnUse">
<stop stop-color="#5487B0"/>
<stop offset="1" stop-color="#58C890"/>
</linearGradient>
<linearGradient id="paint11_linear_176_3685" x1="86.6803" y1="210.47" x2="61.2991" y2="166.506" gradientUnits="userSpaceOnUse">
<stop stop-color="#5487B0"/>
<stop offset="1" stop-color="#58C890"/>
</linearGradient>
<linearGradient id="paint12_linear_176_3685" x1="323.59" y1="182.239" x2="242.147" y2="73.7171" gradientUnits="userSpaceOnUse">
<stop stop-color="#5487B0"/>
<stop offset="1" stop-color="#58C890"/>
</linearGradient>
<linearGradient id="paint13_linear_176_3685" x1="295.507" y1="182.177" x2="211.953" y2="109.862" gradientUnits="userSpaceOnUse">
<stop stop-color="#5487B0"/>
<stop offset="1" stop-color="#58C890"/>
</linearGradient>
<linearGradient id="paint14_linear_176_3685" x1="283.459" y1="189.393" x2="271.909" y2="169.387" gradientUnits="userSpaceOnUse">
<stop stop-color="#5487B0"/>
<stop offset="1" stop-color="#58C890"/>
</linearGradient>
<linearGradient id="paint15_linear_176_3685" x1="195.583" y1="369.37" x2="210.205" y2="370.95" gradientUnits="userSpaceOnUse">
<stop offset="0.0054" stop-color="#D8DEE8"/>
<stop offset="1" stop-color="#F4F7FA"/>
</linearGradient>
<linearGradient id="paint16_linear_176_3685" x1="321.415" y1="352.593" x2="341.966" y2="349.827" gradientUnits="userSpaceOnUse">
<stop offset="0.0054" stop-color="#D8DEE8"/>
<stop offset="1" stop-color="#F4F7FA"/>
</linearGradient>
<linearGradient id="paint17_linear_176_3685" x1="257.872" y1="230.022" x2="382.036" y2="277.215" gradientUnits="userSpaceOnUse">
<stop stop-color="#58C88A"/>
<stop offset="1" stop-color="#367A6B"/>
</linearGradient>
<linearGradient id="paint18_linear_176_3685" x1="186.018" y1="277.215" x2="295.667" y2="334.079" gradientUnits="userSpaceOnUse">
<stop stop-color="#58C88A"/>
<stop offset="1" stop-color="#367A6B"/>
</linearGradient>
<linearGradient id="paint19_linear_176_3685" x1="281.125" y1="278.985" x2="382.035" y2="278.985" gradientUnits="userSpaceOnUse">
<stop stop-color="#58C88A"/>
<stop offset="1" stop-color="#367A6B"/>
</linearGradient>
<linearGradient id="paint20_linear_176_3685" x1="249.894" y1="318.247" x2="225.678" y2="190.379" gradientUnits="userSpaceOnUse">
<stop stop-color="#5487B0"/>
<stop offset="1" stop-color="#CDF9E3"/>
</linearGradient>
<linearGradient id="paint21_linear_176_3685" x1="183.236" y1="383.969" x2="105.006" y2="340.922" gradientUnits="userSpaceOnUse">
<stop stop-color="#1F464C"/>
<stop offset="1" stop-color="#5B8187"/>
</linearGradient>
<linearGradient id="paint22_linear_176_3685" x1="264.694" y1="318.568" x2="228.308" y2="254.549" gradientUnits="userSpaceOnUse">
<stop stop-color="#9DBFD1"/>
<stop offset="1" stop-color="#82B2C4"/>
</linearGradient>
</defs>
</svg>
