<svg width="25" height="25" viewBox="0 0 25 25" fill="none" xmlns="http://www.w3.org/2000/svg">
<path fill-rule="evenodd" clip-rule="evenodd" d="M7.92626 3.16251C7.54869 2.25758 7.15141 2.23947 6.7923 2.22355C6.4984 2.21007 6.16227 2.21095 5.82653 2.21095C5.49038 2.21095 4.94441 2.34695 4.48275 2.89071C4.02067 3.43449 2.71875 4.74896 2.71875 7.4223C2.71875 10.0959 4.52484 12.6792 4.77645 13.0421C5.02851 13.4044 8.26288 19.066 13.3848 21.2439C17.642 23.0539 18.5083 22.6939 19.4322 22.6032C20.3562 22.5128 22.4139 21.2892 22.8337 20.0203C23.2538 18.7516 23.2538 17.6641 23.1278 17.437C23.0019 17.2106 22.6657 17.0746 22.1618 16.803C21.6577 16.5312 19.1801 15.2166 18.7183 15.0352C18.2562 14.8541 17.9203 14.7636 17.5841 15.3077C17.2482 15.851 16.283 17.0746 15.9889 17.437C15.695 17.8001 15.4009 17.8455 14.8969 17.5737C14.3928 17.301 12.7697 16.7278 10.8443 14.8769C9.34608 13.4366 8.33472 11.658 8.04061 11.1139C7.74671 10.5706 8.00923 10.2763 8.26191 10.0053C8.48833 9.76187 8.76603 9.3709 9.0181 9.05378C9.26954 8.73644 9.35343 8.51 9.5214 8.14754C9.68958 7.78486 9.60549 7.46752 9.47956 7.19572C9.35343 6.92394 8.37438 4.237 7.92626 3.16251Z" fill="white"/>
</svg>
