<svg width="24" height="24" viewBox="0 0 24 24" fill="none" xmlns="http://www.w3.org/2000/svg">
<path fill-rule="evenodd" clip-rule="evenodd" d="M7.33908 4.24815C6.98949 3.49302 6.62167 3.47791 6.28917 3.46462C6.01706 3.45338 5.70584 3.45411 5.39499 3.45411C5.08376 3.45411 4.57826 3.5676 4.15082 4.02134C3.72299 4.47511 2.51758 5.57198 2.51758 7.80279C2.51758 10.0338 4.18979 12.1895 4.42275 12.4923C4.65613 12.7946 7.65074 17.519 12.393 19.3364C16.3346 20.8468 17.1367 20.5464 17.9922 20.4707C18.8476 20.3952 20.7528 19.3742 21.1415 18.3154C21.5304 17.2567 21.5304 16.3492 21.4138 16.1597C21.2972 15.9707 20.986 15.8572 20.5194 15.6306C20.0527 15.4038 17.7588 14.3068 17.3311 14.1555C16.9033 14.0043 16.5923 13.9289 16.281 14.3828C15.97 14.8362 15.0764 15.8572 14.804 16.1597C14.5319 16.4627 14.2596 16.5005 13.7931 16.2737C13.3263 16.0462 11.8235 15.5679 10.0408 14.0233C8.65365 12.8215 7.71726 11.3373 7.44495 10.8833C7.17283 10.4299 7.4159 10.1843 7.64984 9.95824C7.85948 9.75506 8.1166 9.42882 8.34998 9.16419C8.58278 8.89939 8.66045 8.71042 8.81598 8.40797C8.97169 8.10533 8.89383 7.84052 8.77724 7.61371C8.66045 7.38692 7.75398 5.14477 7.33908 4.24815Z" fill="#58C88A"/>
</svg>
