<svg width="25" height="25" viewBox="0 0 25 25" fill="none" xmlns="http://www.w3.org/2000/svg">
<path d="M9.45346 20.4361L9.9303 15.6965C9.94806 15.5199 10.0286 15.3556 10.1572 15.2333L18.9169 6.9075C19.0469 6.78392 18.8867 6.5787 18.7353 6.67483L7.36504 13.8929C7.17567 14.0131 6.94206 14.0411 6.72963 13.9691L1.8725 12.3224C1.21301 12.0988 1.19768 11.1716 1.84942 10.9263L21.9518 3.36114C22.7197 3.07214 23.5035 3.74634 23.3326 4.54883L19.8984 20.6718C19.7178 21.5199 18.7178 21.8939 18.0249 21.3725L13.198 17.7403C13.1399 17.6965 13.0587 17.7014 13.0062 17.7517L9.95384 20.6798C9.75486 20.8707 9.42586 20.7105 9.45346 20.4361Z" fill="white"/>
</svg>
