<svg width="24" height="24" viewBox="0 0 24 24" fill="none" xmlns="http://www.w3.org/2000/svg">
<path d="M9.09018 19.983L9.56702 15.2434C9.58478 15.0668 9.66529 14.9025 9.79392 14.7802L18.5536 6.45437C18.6836 6.3308 18.5234 6.12557 18.372 6.22171L7.00176 13.4398C6.81239 13.56 6.57878 13.588 6.36635 13.516L1.50922 11.8693C0.849726 11.6457 0.834395 10.7185 1.48614 10.4732L21.5885 2.90801C22.3564 2.61902 23.1403 3.29322 22.9693 4.09571L19.5351 20.2187C19.3545 21.0668 18.3545 21.4408 17.6616 20.9194L12.8347 17.2871C12.7766 17.2434 12.6954 17.2483 12.6429 17.2986L9.59056 20.2267C9.39158 20.4176 9.06258 20.2574 9.09018 19.983Z" fill="#58C88A"/>
</svg>
