<svg width="25" height="25" viewBox="0 0 25 25" fill="none" xmlns="http://www.w3.org/2000/svg">
<path d="M13.8785 19.6129C6.2112 19.6129 1.83951 14.2619 1.66016 5.34347H5.51622C5.63952 11.8836 8.46431 14.6506 10.7062 15.2223V5.34347H14.3269V10.9804C16.5351 10.7402 18.8667 8.16762 19.6514 5.33203H23.2608C22.9665 6.79987 22.3786 8.19003 21.5338 9.41566C20.6891 10.6413 19.6056 11.6761 18.3511 12.4553C19.7511 13.1661 20.9874 14.1715 21.9786 15.4052C22.9698 16.639 23.6934 18.0731 24.1015 19.6129H20.1222C19.2702 16.9031 17.1404 14.7993 14.3269 14.5134V19.6129H13.8897H13.8785Z" fill="white"/>
</svg>
