<svg width="24" height="24" viewBox="0 0 24 24" fill="none" xmlns="http://www.w3.org/2000/svg">
<path d="M12.9976 19.1402C5.33034 19.1402 0.958648 13.7892 0.779297 4.87081H4.63536C4.75866 11.411 7.58345 14.178 9.82534 14.7497V4.87081H13.446V10.5077C15.6543 10.2676 17.9858 7.69497 18.7705 4.85938H22.38C22.0857 6.32721 21.4977 7.71738 20.653 8.94301C19.8082 10.1686 18.7247 11.2034 17.4702 11.9827C18.8702 12.6934 20.1066 13.6988 21.0978 14.9326C22.089 16.1663 22.8125 17.6004 23.2207 19.1402H19.2413C18.3894 16.4304 16.2596 14.3266 13.446 14.0408V19.1402H13.0088H12.9976Z" fill="#58C88A"/>
</svg>
