<svg width="25" height="24" viewBox="0 0 25 24" fill="none" xmlns="http://www.w3.org/2000/svg">
<path fill-rule="evenodd" clip-rule="evenodd" d="M19.9795 4.35736C17.9683 2.34611 15.2866 1.27344 12.4708 1.27344C6.57115 1.27344 1.74414 6.10045 1.74414 12.0001C1.74414 13.8773 2.28048 15.7545 3.21907 17.3635L1.74414 22.7268L7.37567 21.2519C8.98467 22.0564 10.7277 22.5927 12.4708 22.5927C18.3705 22.5927 23.1975 17.7657 23.1975 11.866C23.1975 9.05029 21.9908 6.36862 19.9795 4.35736ZM12.4708 20.8496C10.8618 20.8496 9.25283 20.4474 7.912 19.6429L7.64381 19.5088L4.29172 20.4474L5.23032 17.2294L4.96214 16.8271C4.02355 15.3522 3.6213 13.7432 3.6213 12.1342C3.6213 7.3072 7.64382 3.28469 12.4708 3.28469C14.8843 3.28469 17.0297 4.22328 18.7728 5.83228C20.5159 7.57537 21.3204 9.72071 21.3204 12.1342C21.3204 16.8271 17.4319 20.8496 12.4708 20.8496ZM17.2978 14.1455C17.0297 14.0114 15.6889 13.341 15.4207 13.341C15.1525 13.2069 15.0184 13.2069 14.8843 13.475C14.7502 13.7432 14.2139 14.2795 14.0799 14.5477C13.9458 14.6818 13.8117 14.6818 13.5435 14.6818C13.2753 14.5477 12.4708 14.2795 11.3982 13.341C10.5937 12.6705 10.0573 11.732 9.92325 11.4638C9.78917 11.1956 9.92326 11.0615 10.0573 10.9275C10.1914 10.7934 10.3255 10.6593 10.4596 10.5252C10.5937 10.3911 10.5937 10.257 10.7278 10.123C10.8618 9.98887 10.7278 9.85479 10.7278 9.72071C10.7278 9.58662 10.1914 8.24579 9.92325 7.70945C9.78917 7.3072 9.52101 7.3072 9.38692 7.3072C9.25284 7.3072 9.11872 7.3072 8.85056 7.3072C8.71647 7.3072 8.44831 7.3072 8.18014 7.57537C7.91197 7.84354 7.24158 8.51395 7.24158 9.85479C7.24158 11.1956 8.18015 12.4024 8.31423 12.6705C8.44831 12.8046 10.1914 15.6204 12.8731 16.6931C15.1525 17.6316 15.5548 17.3635 16.0911 17.3635C16.6274 17.3635 17.7001 16.6931 17.8342 16.1567C18.1023 15.4863 18.1024 14.95 17.9683 14.95C17.8342 14.2796 17.566 14.2796 17.2978 14.1455Z" fill="white"/>
</svg>
