<svg width="24" height="24" viewBox="0 0 24 24" fill="none" xmlns="http://www.w3.org/2000/svg">
<path fill-rule="evenodd" clip-rule="evenodd" d="M19.5088 4.35736C17.4976 2.34611 14.8159 1.27344 12.0001 1.27344C6.10045 1.27344 1.27344 6.10045 1.27344 12.0001C1.27344 13.8773 1.80978 15.7545 2.74837 17.3635L1.27344 22.7268L6.90497 21.2519C8.51397 22.0564 10.257 22.5927 12.0001 22.5927C17.8998 22.5927 22.7268 17.7657 22.7268 11.866C22.7268 9.05029 21.5201 6.36862 19.5088 4.35736ZM12.0001 20.8496C10.3911 20.8496 8.78213 20.4474 7.44129 19.6429L7.17311 19.5088L3.82102 20.4474L4.75962 17.2294L4.49144 16.8271C3.55285 15.3522 3.1506 13.7432 3.1506 12.1342C3.1506 7.3072 7.17312 3.28469 12.0001 3.28469C14.4136 3.28469 16.559 4.22328 18.3021 5.83228C20.0452 7.57537 20.8497 9.72071 20.8497 12.1342C20.8497 16.8271 16.9612 20.8496 12.0001 20.8496ZM16.8271 14.1455C16.559 14.0114 15.2182 13.341 14.95 13.341C14.6818 13.2069 14.5477 13.2069 14.4136 13.475C14.2795 13.7432 13.7432 14.2795 13.6091 14.5477C13.4751 14.6818 13.3409 14.6818 13.0728 14.6818C12.8046 14.5477 12.0001 14.2795 10.9275 13.341C10.123 12.6705 9.58663 11.732 9.45255 11.4638C9.31846 11.1956 9.45256 11.0615 9.58664 10.9275C9.72072 10.7934 9.85479 10.6593 9.98887 10.5252C10.123 10.3911 10.123 10.257 10.2571 10.123C10.3911 9.98887 10.2571 9.85479 10.2571 9.72071C10.2571 9.58662 9.72071 8.24579 9.45255 7.70945C9.31846 7.3072 9.0503 7.3072 8.91622 7.3072C8.78214 7.3072 8.64802 7.3072 8.37985 7.3072C8.24577 7.3072 7.9776 7.3072 7.70944 7.57537C7.44127 7.84354 6.77087 8.51395 6.77087 9.85479C6.77087 11.1956 7.70944 12.4024 7.84353 12.6705C7.97761 12.8046 9.72069 15.6204 12.4024 16.6931C14.6818 17.6316 15.0841 17.3635 15.6204 17.3635C16.1567 17.3635 17.2294 16.6931 17.3635 16.1567C17.6316 15.4863 17.6316 14.95 17.4976 14.95C17.3635 14.2796 17.0953 14.2795 16.8271 14.1455Z" fill="#58C88A"/>
</svg>
