<svg width="23" height="24" viewBox="0 0 23 24" fill="none" xmlns="http://www.w3.org/2000/svg">
<path d="M4.07227 7.76133C3.74089 7.76133 3.47227 8.02996 3.47227 8.36133C3.47227 8.6927 3.74089 8.96133 4.07227 8.96133V7.76133ZM4.07227 11.7066C3.74089 11.7066 3.47227 11.9753 3.47227 12.3066C3.47227 12.638 3.74089 12.9066 4.07227 12.9066V11.7066ZM4.07227 15.6559C3.74089 15.6559 3.47227 15.9245 3.47227 16.2559C3.47227 16.5872 3.74089 16.8559 4.07227 16.8559V15.6559ZM5.0875 5.8457V18.7715H6.2875V5.8457H5.0875ZM7.6875 21.3715H16.9309V20.1715H7.6875V21.3715ZM19.5309 18.7715V5.8457H18.3309V18.7715H19.5309ZM16.9309 3.2457H7.6875V4.4457H16.9309V3.2457ZM19.5309 5.8457C19.5309 4.40976 18.3669 3.2457 16.9309 3.2457V4.4457C17.7041 4.4457 18.3309 5.0725 18.3309 5.8457H19.5309ZM16.9309 21.3715C18.3669 21.3715 19.5309 20.2074 19.5309 18.7715H18.3309C18.3309 19.5447 17.7041 20.1715 16.9309 20.1715V21.3715ZM5.0875 18.7715C5.0875 20.2074 6.25156 21.3715 7.6875 21.3715V20.1715C6.9143 20.1715 6.2875 19.5447 6.2875 18.7715H5.0875ZM6.2875 5.8457C6.2875 5.0725 6.9143 4.4457 7.6875 4.4457V3.2457C6.25156 3.2457 5.0875 4.40976 5.0875 5.8457H6.2875ZM4.07227 8.96133H7.30469V7.76133H4.07227V8.96133ZM4.07227 12.9066H7.30469V11.7066H4.07227V12.9066ZM4.07227 16.8559H7.30469V15.6559H4.07227V16.8559ZM15.1422 15.793V16.6514H16.3422V15.793H15.1422ZM15.6993 16.0943H8.92181V17.2943H15.6993V16.0943ZM9.47891 16.6514V15.793H8.27891V16.6514H9.47891ZM8.92181 16.0943C9.22948 16.0943 9.47891 16.3437 9.47891 16.6514H8.27891C8.27891 17.0064 8.56675 17.2943 8.92181 17.2943V16.0943ZM15.1422 16.6514C15.1422 16.3437 15.3917 16.0943 15.6993 16.0943V17.2943C16.0544 17.2943 16.3422 17.0065 16.3422 16.6514H15.1422ZM12.3106 12.9613C13.8744 12.9613 15.1422 14.2291 15.1422 15.793H16.3422C16.3422 13.5664 14.5372 11.7613 12.3106 11.7613V12.9613ZM12.3106 11.7613C10.0839 11.7613 8.27891 13.5664 8.27891 15.793H9.47891C9.47891 14.2291 10.7467 12.9613 12.3106 12.9613V11.7613ZM12.3108 10.5503C11.651 10.5503 11.1156 10.0148 11.1156 9.35444H9.91562C9.91562 10.677 10.9877 11.7503 12.3108 11.7503V10.5503ZM13.506 9.35444C13.506 10.0148 12.9706 10.5503 12.3108 10.5503V11.7503C13.6339 11.7503 14.706 10.677 14.706 9.35444H13.506ZM12.3108 8.15859C12.9706 8.15859 13.506 8.69407 13.506 9.35444H14.706C14.706 8.03191 13.6339 6.95859 12.3108 6.95859V8.15859ZM12.3108 6.95859C10.9877 6.95859 9.91562 8.03191 9.91562 9.35444H11.1156C11.1156 8.69407 11.651 8.15859 12.3108 8.15859V6.95859Z" fill="#6BCD85"/>
</svg>
