<svg width="23" height="24" viewBox="0 0 23 24" fill="none" xmlns="http://www.w3.org/2000/svg">
<path d="M12.9395 9.07187C12.6081 9.07187 12.3395 9.3405 12.3395 9.67188C12.3395 10.0032 12.6081 10.2719 12.9395 10.2719V9.07187ZM12.9395 12.0719C12.6081 12.0719 12.3395 12.3405 12.3395 12.6719C12.3395 13.0032 12.6081 13.2719 12.9395 13.2719V12.0719ZM12.9395 15.0719C12.6081 15.0719 12.3395 15.3405 12.3395 15.6719C12.3395 16.0032 12.6081 16.2719 12.9395 16.2719V15.0719ZM0.646094 6.8125V17.75H1.84609V6.8125H0.646094ZM3.24609 20.35H19.7539V19.15H3.24609V20.35ZM22.3539 17.75V6.8125H21.1539V17.75H22.3539ZM19.7539 4.2125H3.24609V5.4125H19.7539V4.2125ZM22.3539 6.8125C22.3539 5.37656 21.1898 4.2125 19.7539 4.2125V5.4125C20.5271 5.4125 21.1539 6.0393 21.1539 6.8125H22.3539ZM19.7539 20.35C21.1898 20.35 22.3539 19.1859 22.3539 17.75H21.1539C21.1539 18.5232 20.5271 19.15 19.7539 19.15V20.35ZM0.646094 17.75C0.646094 19.1859 1.81015 20.35 3.24609 20.35V19.15C2.4729 19.15 1.84609 18.5232 1.84609 17.75H0.646094ZM1.84609 6.8125C1.84609 6.0393 2.4729 5.4125 3.24609 5.4125V4.2125C1.81015 4.2125 0.646094 5.37656 0.646094 6.8125H1.84609ZM12.9395 10.2719H18.6562V9.07187H12.9395V10.2719ZM12.9395 13.2719H18.6562V12.0719H12.9395V13.2719ZM12.9395 16.2719H18.6562V15.0719H12.9395V16.2719ZM10.1207 15.4668V16.3252H11.3207V15.4668H10.1207ZM10.6778 15.7681H3.90032V16.9681H10.6778V15.7681ZM4.45742 16.3252V15.4668H3.25742V16.3252H4.45742ZM3.90032 15.7681C4.20799 15.7681 4.45742 16.0175 4.45742 16.3252H3.25742C3.25742 16.6803 3.54527 16.9681 3.90032 16.9681V15.7681ZM10.1207 16.3252C10.1207 16.0175 10.3702 15.7681 10.6778 15.7681V16.9681C11.0329 16.9681 11.3207 16.6803 11.3207 16.3252H10.1207ZM7.28908 12.6352C8.85296 12.6352 10.1207 13.9029 10.1207 15.4668H11.3207C11.3207 13.2402 9.5157 11.4352 7.28908 11.4352V12.6352ZM7.28908 11.4352C5.06245 11.4352 3.25742 13.2402 3.25742 15.4668H4.45742C4.45742 13.9029 5.7252 12.6352 7.28908 12.6352V11.4352ZM7.28932 10.2241C6.62953 10.2241 6.09414 9.68864 6.09414 9.02827H4.89414C4.89414 10.3508 5.96621 11.4241 7.28932 11.4241V10.2241ZM8.4845 9.02827C8.4845 9.68864 7.94911 10.2241 7.28932 10.2241V11.4241C8.61243 11.4241 9.6845 10.3508 9.6845 9.02827H8.4845ZM7.28932 7.83242C7.94911 7.83242 8.4845 8.3679 8.4845 9.02827H9.6845C9.6845 7.70574 8.61243 6.63242 7.28932 6.63242V7.83242ZM7.28932 6.63242C5.96621 6.63242 4.89414 7.70574 4.89414 9.02827H6.09414C6.09414 8.3679 6.62953 7.83242 7.28932 7.83242V6.63242Z" fill="#6BCD85"/>
</svg>
