<svg width="23" height="24" viewBox="0 0 23 24" fill="none" xmlns="http://www.w3.org/2000/svg">
<path d="M9.80563 16.7436L6.77652 16.7408C6.41761 16.7404 6.08605 16.9325 5.90774 17.244L4.46761 19.7596C4.08597 20.4263 4.5673 21.2564 5.33546 21.2564H17.6642C18.4133 21.2564 18.8964 20.4632 18.5527 19.7976L17.2549 17.2843C17.0834 16.9521 16.741 16.7434 16.3672 16.7431L12.929 16.7402M11.4583 11.9434C9.87592 11.9434 8.59315 10.6595 8.59315 9.07715C8.59315 7.49477 9.87592 6.21094 11.4583 6.21094C13.0407 6.21094 14.3234 7.49477 14.3234 9.07715C14.3234 10.6595 13.0407 11.9434 11.4583 11.9434ZM5.97987 9.07812C5.97987 11.4023 9.21238 15.8177 10.7113 17.7402C11.0952 18.2325 11.8214 18.2325 12.2053 17.7402C13.7042 15.8177 16.9367 11.4023 16.9367 9.07812C16.9367 6.05247 14.4839 3.59766 11.4583 3.59766C8.43265 3.59766 5.97987 6.05247 5.97987 9.07812Z" stroke="#6BCD85"/>
</svg>
