<svg width="23" height="24" viewBox="0 0 23 24" fill="none" xmlns="http://www.w3.org/2000/svg">
<path d="M7.93402 5.04265C8.1992 4.84394 8.25308 4.46788 8.05437 4.2027C7.85566 3.93752 7.4796 3.88364 7.21442 4.08235L7.93402 5.04265ZM3.40254 9.6747C3.38792 10.0058 3.64444 10.286 3.97548 10.3006C4.30653 10.3152 4.58675 10.0587 4.60137 9.72764L3.40254 9.6747ZM15.7836 4.08235C15.5184 3.88364 15.1424 3.93752 14.9437 4.2027C14.745 4.46788 14.7989 4.84394 15.064 5.04265L15.7836 4.08235ZM18.3967 9.72764C18.4113 10.0587 18.6915 10.3152 19.0226 10.3006C19.3536 10.286 19.6101 10.0058 19.5955 9.6747L18.3967 9.72764ZM11.2502 5.98828V5.38828H11.2429L11.2355 5.38846L11.2502 5.98828ZM6.40845 10.3711L5.81242 10.3022L6.40845 10.3711ZM5.87074 14.5599L6.46385 14.6506L6.46385 14.6506L5.87074 14.5599ZM4.9927 15.4962L4.72873 14.9574L4.72873 14.9574L4.9927 15.4962ZM4.35941 16.5206L4.9594 16.5245L4.35941 16.5206ZM11.6346 5.98828L11.6493 5.38846L11.6419 5.38828H11.6346V5.98828ZM16.4764 10.3711L17.0724 10.3022L17.0724 10.3022L16.4764 10.3711ZM17.0141 14.5599L17.6072 14.4692L17.6072 14.4692L17.0141 14.5599ZM17.8921 15.4962L18.1561 14.9574L18.1561 14.9574L17.8921 15.4962ZM18.5254 16.5206L19.1254 16.5167L19.1254 16.5167L18.5254 16.5206ZM7.21442 4.08235C7.11186 4.1592 6.19458 4.76937 5.303 5.72271C4.4202 6.66667 3.47489 8.03626 3.40254 9.6747L4.60137 9.72764C4.65499 8.51327 5.37034 7.40754 6.17945 6.54237C6.97978 5.68659 7.78565 5.15383 7.93402 5.04265L7.21442 4.08235ZM15.064 5.04265C15.2124 5.15383 16.0183 5.68659 16.8186 6.54237C17.6277 7.40754 18.3431 8.51327 18.3967 9.72764L19.5955 9.6747C19.5232 8.03626 18.5778 6.66667 17.695 5.72271C16.8035 4.76937 15.8862 4.1592 15.7836 4.08235L15.064 5.04265ZM11.4996 5.23594C11.1778 5.23594 10.9164 4.9747 10.9164 4.65234H9.71641C9.71641 5.63686 10.5145 6.43594 11.4996 6.43594V5.23594ZM12.0827 4.65234C12.0827 4.9747 11.8213 5.23594 11.4996 5.23594V6.43594C12.4847 6.43594 13.2827 5.63686 13.2827 4.65234H12.0827ZM11.4996 4.06875C11.8213 4.06875 12.0827 4.32999 12.0827 4.65234H13.2827C13.2827 3.66783 12.4847 2.86875 11.4996 2.86875V4.06875ZM11.4996 2.86875C10.5145 2.86875 9.71641 3.66783 9.71641 4.65234H10.9164C10.9164 4.32999 11.1778 4.06875 11.4996 4.06875V2.86875ZM11.2355 5.38846C10.4153 5.40858 9.18758 5.6753 8.09782 6.41338C6.98684 7.16582 6.03211 8.40241 5.81242 10.3022L7.00448 10.44C7.18039 8.91883 7.922 7.98178 8.77074 7.40694C9.64071 6.81774 10.6361 6.60352 11.265 6.5881L11.2355 5.38846ZM5.81242 10.3022C5.56527 12.4395 5.3887 13.7428 5.27763 14.4692L6.46385 14.6506C6.57802 13.904 6.75648 12.5846 7.00448 10.44L5.81242 10.3022ZM4.72873 14.9574C4.50202 15.0684 4.25656 15.241 4.06707 15.5079C3.87342 15.7806 3.762 16.1189 3.75942 16.5167L4.9594 16.5245C4.96049 16.3556 5.00422 16.2607 5.04555 16.2025C5.09103 16.1385 5.16038 16.0822 5.25668 16.035L4.72873 14.9574ZM3.75942 16.5167C3.75535 17.1433 4.02787 17.6168 4.46024 17.9069C4.85721 18.1732 5.33643 18.2516 5.73723 18.2516V17.0516C5.4668 17.0516 5.25432 16.9946 5.12878 16.9103C5.03866 16.8499 4.95788 16.7578 4.9594 16.5245L3.75942 16.5167ZM5.27763 14.4692C5.26842 14.5295 5.23619 14.5999 5.14425 14.6879C5.04737 14.7805 4.90636 14.8703 4.72873 14.9574L5.25667 16.035C5.67712 15.829 6.34577 15.4227 6.46385 14.6506L5.27763 14.4692ZM11.6199 6.5881C12.2487 6.60352 13.2441 6.81774 14.1141 7.40694C14.9628 7.98178 15.7044 8.91883 15.8803 10.44L17.0724 10.3022C16.8527 8.40241 15.898 7.16582 14.787 6.41338C13.6972 5.6753 12.4696 5.40858 11.6493 5.38846L11.6199 6.5881ZM15.8803 10.44C16.1283 12.5846 16.3068 13.904 16.421 14.6506L17.6072 14.4692C17.4961 13.7428 17.3196 12.4395 17.0724 10.3022L15.8803 10.44ZM17.6281 16.035C17.7244 16.0822 17.7938 16.1385 17.8393 16.2025C17.8806 16.2607 17.9243 16.3556 17.9254 16.5245L19.1254 16.5167C19.1228 16.1189 19.0114 15.7806 18.8178 15.5079C18.6283 15.241 18.3828 15.0684 18.1561 14.9574L17.6281 16.035ZM17.9254 16.5245C17.9269 16.7578 17.8462 16.8499 17.756 16.9103C17.6305 16.9946 17.418 17.0516 17.1476 17.0516V18.2516C17.5484 18.2516 18.0276 18.1732 18.4246 17.9069C18.857 17.6168 19.1295 17.1433 19.1254 16.5167L17.9254 16.5245ZM16.421 14.6506C16.539 15.4227 17.2077 15.829 17.6281 16.035L18.1561 14.9574C17.9785 14.8703 17.8374 14.7805 17.7406 14.6879C17.6486 14.5999 17.6164 14.5295 17.6072 14.4692L16.421 14.6506ZM11.2502 6.58828H11.6346V5.38828H11.2502V6.58828ZM11.4418 19.0807C10.9189 19.0807 10.4945 18.6563 10.4945 18.1328H9.29453C9.29453 19.3184 10.2556 20.2807 11.4418 20.2807V19.0807ZM12.3891 18.1328C12.3891 18.6563 11.9647 19.0807 11.4418 19.0807V20.2807C12.628 20.2807 13.5891 19.3184 13.5891 18.1328H12.3891ZM5.73723 18.2516H17.1476V17.0516H5.73723V18.2516Z" fill="#6BCD85"/>
</svg>
