<svg width="23" height="24" viewBox="0 0 23 24" fill="none" xmlns="http://www.w3.org/2000/svg">
<path d="M1.73242 13.1993V6.58651M21.2667 13.2632V6.65041M1.82876 6.76289H3.77748C4.60001 6.76289 5.38296 6.40977 5.92743 5.79324L6.39777 5.26066C6.94224 4.64413 7.72519 4.29102 8.54772 4.29102H12.1385C12.5702 4.29102 12.9874 4.44679 13.3134 4.72972L15.7213 6.81914C16.1454 7.18714 16.0011 7.87771 15.4652 8.04518L15.0256 8.18257C14.4613 8.3589 13.8464 8.24573 13.3819 7.88007L12.7049 7.34706C12.6466 7.30115 12.5754 7.27447 12.5013 7.2707L9.29918 7.10788C8.99835 7.09258 8.7049 7.20412 8.49018 7.41538L7.10599 8.77727M21.1703 6.82672H19.2753C18.5001 6.82672 17.7578 6.51289 17.2177 5.95675L16.8152 5.54229C16.2751 4.98614 15.5328 4.67231 14.7575 4.67231H13.3087M21.1923 13.4373H19.1867M9.54349 12.5344L5.5144 16.5634C5.08794 16.9899 4.39651 16.9899 3.97005 16.5634C3.54359 16.137 3.54359 15.4456 3.97005 15.0191L7.99914 10.99M11.5625 13.6161L7.53338 17.6452C7.10692 18.0717 6.41549 18.0717 5.98903 17.6452C5.56257 17.2187 5.56257 16.5273 5.98903 16.1008L10.0181 12.0718M10.9546 17.4089L9.58497 18.7171C9.15097 19.1316 8.4654 19.1238 8.04103 18.6994C7.60967 18.268 7.60967 17.5687 8.04103 17.1373L12.0613 13.1171M8.77783 10.2079L4.74874 14.237C4.32228 14.6634 3.63085 14.6634 3.20439 14.237C2.77793 13.8105 2.77793 13.1191 3.20439 12.6926L7.23348 8.66353M15.2301 12.1157L18.1364 15.0288C18.5618 15.4552 18.5632 16.145 18.1394 16.5731C17.7138 17.003 17.0202 17.0066 16.5903 16.5809L13.6659 13.686C13.231 13.2555 13.2273 12.554 13.6577 12.119C14.0901 11.6819 14.7958 11.6804 15.2301 12.1157ZM17.0227 10.8306L18.8142 12.6337C19.2386 13.0608 19.2392 13.7502 18.8156 14.178C18.3896 14.6084 17.6953 14.612 17.2649 14.1859L15.4585 12.3977C15.024 11.9676 15.0204 11.2668 15.4504 10.8322C15.883 10.395 16.5891 10.3943 17.0227 10.8306ZM13.9141 13.9969L16.2192 16.3118C16.6441 16.7385 16.6452 17.4281 16.2215 17.8561C15.7957 18.2863 15.1018 18.2898 14.6716 17.864L12.3499 15.5657C11.9152 15.1354 11.9116 14.4342 12.3418 13.9994C12.7743 13.5622 13.4802 13.5611 13.9141 13.9969ZM12.6115 15.8022L14.0797 17.2825C14.5036 17.7099 14.5039 18.399 14.0805 18.8268C13.6542 19.2574 12.9596 19.2609 12.529 18.8346L11.0474 17.3679C10.6131 16.938 10.6095 16.2375 11.0393 15.8031C11.472 15.3658 12.1783 15.3654 12.6115 15.8022Z" stroke="#6BCD85" stroke-linecap="round"/>
</svg>
