<svg width="23" height="24" viewBox="0 0 23 24" fill="none" xmlns="http://www.w3.org/2000/svg">
<path d="M13.0762 9.93555C12.8 9.93555 12.5762 10.1594 12.5762 10.4355C12.5762 10.7117 12.8 10.9355 13.0762 10.9355V9.93555ZM10.6914 14.6602C10.4153 14.6602 10.1914 14.884 10.1914 15.1602C10.1914 15.4363 10.4153 15.6602 10.6914 15.6602L10.6914 14.6602ZM4.09467 4.25618L4.24553 3.77949L4.24553 3.77949L4.09467 4.25618ZM4.96517 4.00058L4.58054 3.68112L4.58054 3.68112L4.96517 4.00058ZM2.74726 4.83879L3.24355 4.89959L3.24355 4.89959L2.74726 4.83879ZM3.79927 4.1627L3.64841 4.6394L3.64841 4.6394L3.79927 4.1627ZM2.11545 5.83198L1.98464 5.3494L1.98464 5.3494L2.11545 5.83198ZM2.70958 5.14632L2.21329 5.08552L2.21329 5.08552L2.70958 5.14632ZM1.29692 7.05057L0.846545 7.26774L0.846545 7.26774L1.29692 7.05057ZM1.81641 5.91304L1.94722 6.39563L1.94722 6.39563L1.81641 5.91304ZM1.30238 8.22767L1.67333 8.56293L1.67333 8.56293L1.30238 8.22767ZM1.43149 7.32965L1.88187 7.11248L1.88187 7.11248L1.43149 7.32965ZM1.2726 9.69534L1.53407 9.26916L1.53407 9.26916L1.2726 9.69534ZM1.09463 8.45754L0.72368 8.12228L0.72368 8.12228L1.09463 8.45754ZM1.91358 10.6826L2.40689 10.7641L2.40689 10.7641L1.91358 10.6826ZM1.53669 9.85737L1.27522 10.2836L1.27522 10.2836L1.53669 9.85737ZM2.68201 11.9334L2.67156 11.4335L2.67156 11.4335L2.68201 11.9334ZM1.86309 10.9883L1.36977 10.9068L1.36977 10.9068L1.86309 10.9883ZM3.75501 12.4174L4.21407 12.2193L4.21407 12.2193L3.75501 12.4174ZM2.99178 11.9269L3.00222 12.4268L3.00223 12.4268L2.99178 11.9269ZM5.07768 13.0542L5.35673 13.4691L5.35673 13.4691L5.07768 13.0542ZM3.8778 12.7019L3.41874 12.9001L3.41875 12.9001L3.8778 12.7019ZM6.24203 12.8813L6.52108 12.4664L6.52108 12.4664L6.24203 12.8813ZM5.33477 12.8813L5.05572 12.4664L5.05572 12.4664L5.33477 12.8813ZM7.699 12.7019L8.15806 12.9001L8.15806 12.9001L7.699 12.7019ZM6.49912 13.0542L6.22007 13.4691L6.22007 13.4691L6.49912 13.0542ZM8.58502 11.9269L8.57458 12.4268L8.57458 12.4268L8.58502 11.9269ZM7.82179 12.4174L7.36273 12.2193L7.36273 12.2193L7.82179 12.4174ZM9.71372 10.9883L10.207 10.9068L10.207 10.9068L9.71372 10.9883ZM8.89479 11.9334L8.90524 11.4335L8.90524 11.4335L8.89479 11.9334ZM10.0401 9.85737L10.3016 10.2836L10.3016 10.2836L10.0401 9.85737ZM9.66322 10.6826L9.16991 10.7641L9.16991 10.7641L9.66322 10.6826ZM10.4822 8.45754L10.1112 8.79279L10.1112 8.7928L10.4822 8.45754ZM10.3042 9.69534L10.0427 9.26916L10.0427 9.26916L10.3042 9.69534ZM10.1453 7.32965L9.69493 7.11248L9.69493 7.11248L10.1453 7.32965ZM10.2744 8.22767L10.6454 7.89242L10.6454 7.89242L10.2744 8.22767ZM9.76039 5.91304L9.62958 6.39563L9.62958 6.39563L9.76039 5.91304ZM10.2799 7.05057L10.7303 7.26774L10.7303 7.26774L10.2799 7.05057ZM8.86722 5.14632L9.36351 5.08552L9.36351 5.08552L8.86722 5.14632ZM9.46135 5.83198L9.59216 5.3494L9.59216 5.3494L9.46135 5.83198ZM7.77753 4.1627L7.92839 4.6394L7.92839 4.6394L7.77753 4.1627ZM8.82954 4.83879L8.33325 4.89959L8.33325 4.89959L8.82954 4.83879ZM6.61163 4.00058L6.99626 3.68112L6.99626 3.68112L6.61163 4.00058ZM7.48214 4.25618L7.33128 3.77949L7.33127 3.77949L7.48214 4.25618ZM6.41367 3.76223L6.02903 4.0817L6.02903 4.0817L6.41367 3.76223ZM5.16313 3.76223L5.54777 4.0817L5.54777 4.0817L5.16313 3.76223ZM4.36801 17.3593L4.62404 17.7888L4.62404 17.7888L4.36801 17.3593ZM5.51864 16.6733L5.77468 17.1028L5.77468 17.1028L5.51864 16.6733ZM5.72111 16.6701L5.96326 16.2327L5.96326 16.2327L5.72111 16.6701ZM6.99538 17.3755L6.75322 17.8129L6.75322 17.8129L6.99538 17.3755ZM3.60547 20.7656H20.1133V19.7656H3.60547V20.7656ZM22.6133 18.2656V7.32813H21.6133V18.2656H22.6133ZM20.1133 4.82812H8.91564V5.82812H20.1133V4.82812ZM1.10547 10.1148V18.2656H2.10547V10.1148H1.10547ZM22.6133 7.32813C22.6133 5.94741 21.494 4.82812 20.1133 4.82812V5.82812C20.9417 5.82812 21.6133 6.4997 21.6133 7.32813H22.6133ZM20.1133 20.7656C21.494 20.7656 22.6133 19.6463 22.6133 18.2656H21.6133C21.6133 19.0941 20.9417 19.7656 20.1133 19.7656V20.7656ZM3.60547 19.7656C2.77704 19.7656 2.10547 19.0941 2.10547 18.2656H1.10547C1.10547 19.6463 2.22476 20.7656 3.60547 20.7656V19.7656ZM13.0762 10.9355H18.793V9.93555H13.0762V10.9355ZM10.6914 15.6602L18.793 15.6602L18.793 14.6602L10.6914 14.6602L10.6914 15.6602ZM5.78914 10.289C4.80666 10.289 4.00977 9.4917 4.00977 8.50874H3.00977C3.00977 10.0435 4.25389 11.289 5.78914 11.289V10.289ZM7.56851 8.50874C7.56851 9.4917 6.77162 10.289 5.78914 10.289V11.289C7.32439 11.289 8.56851 10.0435 8.56851 8.50874H7.56851ZM5.78914 6.72852C6.77162 6.72852 7.56851 7.52578 7.56851 8.50874H8.56851C8.56851 6.97398 7.32439 5.72852 5.78914 5.72852V6.72852ZM5.78914 5.72852C4.25389 5.72852 3.00977 6.97398 3.00977 8.50874H4.00977C4.00977 7.52578 4.80666 6.72852 5.78914 6.72852V5.72852ZM6.02903 4.0817L6.22699 4.32004L6.99626 3.68112L6.7983 3.44277L6.02903 4.0817ZM7.633 4.73288L7.92839 4.6394L7.62667 3.686L7.33128 3.77949L7.633 4.73288ZM8.33325 4.89959L8.37093 5.20712L9.36351 5.08552L9.32583 4.77799L8.33325 4.89959ZM9.33054 6.31457L9.62958 6.39563L9.8912 5.43046L9.59216 5.3494L9.33054 6.31457ZM9.82951 6.8334L9.69493 7.11248L10.5957 7.54682L10.7303 7.26774L9.82951 6.8334ZM9.90348 8.56293L10.1112 8.79279L10.8531 8.12229L10.6454 7.89242L9.90348 8.56293ZM10.0427 9.26916L9.77864 9.43119L10.3016 10.2836L10.5657 10.1215L10.0427 9.26916ZM9.16991 10.7641L9.2204 11.0698L10.207 10.9068L10.1565 10.6012L9.16991 10.7641ZM8.90524 11.4335L8.59547 11.4271L8.57458 12.4268L8.88434 12.4333L8.90524 11.4335ZM7.36273 12.2193L7.23994 12.5038L8.15806 12.9001L8.28085 12.6156L7.36273 12.2193ZM6.77817 12.6393L6.52108 12.4664L5.96298 13.2962L6.22007 13.4691L6.77817 12.6393ZM5.05572 12.4664L4.79863 12.6393L5.35673 13.4691L5.61382 13.2962L5.05572 12.4664ZM4.33686 12.5038L4.21407 12.2193L3.29595 12.6156L3.41874 12.9001L4.33686 12.5038ZM2.98133 11.4271L2.67156 11.4335L2.69246 12.4333L3.00222 12.4268L2.98133 11.4271ZM2.3564 11.0698L2.40689 10.7641L1.42026 10.6012L1.36977 10.9068L2.3564 11.0698ZM1.79816 9.43119L1.53407 9.26916L1.01113 10.1215L1.27522 10.2836L1.79816 9.43119ZM1.46558 8.7928L1.67333 8.56293L0.931427 7.89242L0.72368 8.12228L1.46558 8.7928ZM1.88187 7.11248L1.7473 6.8334L0.846545 7.26774L0.981116 7.54682L1.88187 7.11248ZM1.94722 6.39563L2.24626 6.31457L1.98464 5.3494L1.6856 5.43046L1.94722 6.39563ZM3.20587 5.20712L3.24355 4.89959L2.25097 4.77799L2.21329 5.08552L3.20587 5.20712ZM3.64841 4.6394L3.94381 4.73288L4.24553 3.77949L3.95013 3.686L3.64841 4.6394ZM5.34981 4.32004L5.54777 4.0817L4.7785 3.44277L4.58054 3.68112L5.34981 4.32004ZM3.94381 4.73288C4.45282 4.89397 5.00869 4.73075 5.34981 4.32004L4.58054 3.68112C4.49926 3.77898 4.36681 3.81787 4.24553 3.77949L3.94381 4.73288ZM3.24355 4.89959C3.26735 4.70528 3.46177 4.58033 3.64841 4.6394L3.95013 3.686C3.16683 3.43811 2.35087 3.96249 2.25097 4.77799L3.24355 4.89959ZM2.24626 6.31457C2.76156 6.17489 3.14095 5.73706 3.20587 5.20712L2.21329 5.08552C2.19782 5.21179 2.10743 5.31612 1.98464 5.3494L2.24626 6.31457ZM1.7473 6.8334C1.66227 6.65707 1.75828 6.44684 1.94722 6.39563L1.6856 5.43046C0.892621 5.6454 0.489697 6.52768 0.846545 7.26774L1.7473 6.8334ZM1.67333 8.56293C2.03131 8.16683 2.11376 7.59339 1.88187 7.11248L0.981116 7.54682C1.03637 7.66141 1.01672 7.79804 0.931427 7.89242L1.67333 8.56293ZM1.53407 9.26916C1.36721 9.16679 1.33432 8.93803 1.46558 8.7928L0.72368 8.12228C0.17279 8.73183 0.310823 9.69188 1.01113 10.1215L1.53407 9.26916ZM2.40689 10.7641C2.4939 10.2374 2.25324 9.71038 1.79816 9.43119L1.27522 10.2836C1.38365 10.3501 1.44099 10.4756 1.42026 10.6012L2.40689 10.7641ZM2.67156 11.4335C2.47584 11.4376 2.3245 11.263 2.3564 11.0698L1.36977 10.9068C1.23587 11.7175 1.87104 12.4505 2.69246 12.4333L2.67156 11.4335ZM4.21407 12.2193C4.00248 11.7291 3.51511 11.4159 2.98133 11.4271L3.00223 12.4268C3.12941 12.4242 3.24554 12.4988 3.29595 12.6156L4.21407 12.2193ZM4.79863 12.6393C4.63619 12.7486 4.41444 12.6835 4.33686 12.5038L3.41875 12.9001C3.74436 13.6544 4.675 13.9276 5.35673 13.4691L4.79863 12.6393ZM6.52108 12.4664C6.07807 12.1685 5.49873 12.1685 5.05572 12.4664L5.61382 13.2962C5.71938 13.2252 5.85742 13.2252 5.96298 13.2962L6.52108 12.4664ZM7.23994 12.5038C7.16236 12.6835 6.94061 12.7486 6.77817 12.6393L6.22007 13.4691C6.90181 13.9276 7.83245 13.6544 8.15806 12.9001L7.23994 12.5038ZM8.59547 11.4271C8.06169 11.4159 7.57432 11.7291 7.36273 12.2193L8.28085 12.6156C8.33126 12.4988 8.44739 12.4242 8.57458 12.4268L8.59547 11.4271ZM9.2204 11.0698C9.2523 11.263 9.10096 11.4376 8.90524 11.4335L8.88434 12.4333C9.70576 12.4505 10.3409 11.7175 10.207 10.9068L9.2204 11.0698ZM9.77864 9.43119C9.32356 9.71038 9.0829 10.2374 9.16991 10.7641L10.1565 10.6012C10.1358 10.4756 10.1932 10.3501 10.3016 10.2836L9.77864 9.43119ZM10.1112 8.7928C10.2425 8.93803 10.2096 9.16679 10.0427 9.26916L10.5657 10.1215C11.266 9.69188 11.404 8.73183 10.8531 8.12228L10.1112 8.7928ZM9.69493 7.11248C9.46304 7.5934 9.5455 8.16684 9.90348 8.56293L10.6454 7.89242C10.5601 7.79804 10.5404 7.6614 10.5957 7.54682L9.69493 7.11248ZM9.62958 6.39563C9.81853 6.44684 9.91453 6.65707 9.82951 6.8334L10.7303 7.26774C11.0871 6.52768 10.6842 5.6454 9.8912 5.43046L9.62958 6.39563ZM8.37093 5.20712C8.43585 5.73706 8.81524 6.17489 9.33054 6.31457L9.59216 5.3494C9.46938 5.31612 9.37898 5.21179 9.36351 5.08552L8.37093 5.20712ZM7.92839 4.6394C8.11503 4.58033 8.30945 4.70528 8.33325 4.89959L9.32583 4.77799C9.22593 3.96249 8.40998 3.43811 7.62667 3.686L7.92839 4.6394ZM6.22699 4.32004C6.56811 4.73075 7.12398 4.89397 7.633 4.73288L7.33127 3.77949C7.20999 3.81787 7.07754 3.77898 6.99626 3.68112L6.22699 4.32004ZM6.7983 3.44277C6.27336 2.81074 5.30344 2.81074 4.7785 3.44277L5.54777 4.0817C5.67285 3.9311 5.90395 3.9311 6.02903 4.0817L6.7983 3.44277ZM3.56076 12.9578V17.1848H4.56076V12.9578H3.56076ZM4.62404 17.7888L5.77468 17.1028L5.26261 16.2439L4.11198 16.9298L4.62404 17.7888ZM5.47895 17.1075L6.75322 17.8129L7.23753 16.938L5.96326 16.2327L5.47895 17.1075ZM7.79699 17.1977V12.9578H6.79699V17.1977H7.79699ZM6.75322 17.8129C7.2219 18.0724 7.79699 17.7334 7.79699 17.1977H6.79699C6.79699 16.9716 7.03972 16.8285 7.23753 16.938L6.75322 17.8129ZM5.77468 17.1028C5.68396 17.1569 5.57134 17.1587 5.47895 17.1075L5.96326 16.2327C5.74436 16.1115 5.47754 16.1157 5.26261 16.2439L5.77468 17.1028ZM3.56076 17.1848C3.56076 17.7305 4.15531 18.0682 4.62404 17.7888L4.11198 16.9298C4.30981 16.8119 4.56076 16.9544 4.56076 17.1848H3.56076Z" fill="#6BCD85"/>
</svg>
