<svg width="23" height="24" viewBox="0 0 23 24" fill="none" xmlns="http://www.w3.org/2000/svg">
<path d="M12.4082 4.54453C12.0768 4.54453 11.8082 4.81316 11.8082 5.14453C11.8082 5.4759 12.0768 5.74453 12.4082 5.74453L12.4082 4.54453ZM12.4082 6.67344C12.0768 6.67344 11.8082 6.94207 11.8082 7.27344C11.8082 7.60481 12.0768 7.87344 12.4082 7.87344L12.4082 6.67344ZM17.4001 19.0683C17.2134 18.7945 16.8402 18.7238 16.5664 18.9105C16.2926 19.0971 16.2219 19.4704 16.4085 19.7442L17.4001 19.0683ZM3.79648 4.19141V16.3743H4.99648V4.19141H3.79648ZM15.3745 1.59141H6.39648V2.79141H15.3745V1.59141ZM6.39648 18.9743H11.3938V17.7743H6.39648V18.9743ZM17.9745 13.1587V4.19141H16.7745V13.1587H17.9745ZM15.3745 2.79141C16.1477 2.79141 16.7745 3.41821 16.7745 4.19141H17.9745C17.9745 2.75546 16.8104 1.59141 15.3745 1.59141V2.79141ZM3.79648 16.3743C3.79648 17.8102 4.96054 18.9743 6.39648 18.9743V17.7743C5.62329 17.7743 4.99648 17.1475 4.99648 16.3743H3.79648ZM4.99648 4.19141C4.99648 3.41821 5.62329 2.79141 6.39648 2.79141V1.59141C4.96054 1.59141 3.79648 2.75547 3.79648 4.19141H4.99648ZM12.4082 5.74453L15.3482 5.74453L15.3482 4.54453L12.4082 4.54453L12.4082 5.74453ZM12.4082 7.87344L15.3482 7.87344L15.3482 6.67344L12.4082 6.67344L12.4082 7.87344ZM16.4085 19.7442L18.0644 22.1736L19.056 21.4977L17.4001 19.0683L16.4085 19.7442ZM11.2238 12.4344V13.1757H12.4238V12.4344H11.2238ZM11.7868 12.6127H5.93353V13.8127H11.7868V12.6127ZM6.49648 13.1757V12.4344H5.29648V13.1757H6.49648ZM5.93353 12.6127C6.24443 12.6127 6.49648 12.8648 6.49648 13.1757H5.29648C5.29648 13.5275 5.58171 13.8127 5.93353 13.8127V12.6127ZM11.2238 13.1757C11.2238 12.8648 11.4759 12.6127 11.7868 12.6127V13.8127C12.1386 13.8127 12.4238 13.5275 12.4238 13.1757H11.2238ZM8.86015 10.0707C10.1656 10.0707 11.2238 11.129 11.2238 12.4344H12.4238C12.4238 10.4662 10.8283 8.8707 8.86015 8.8707V10.0707ZM8.86015 8.8707C6.89199 8.8707 5.29648 10.4662 5.29648 12.4344H6.49648C6.49648 11.129 7.55473 10.0707 8.86015 10.0707V8.8707ZM8.86091 7.82415C8.33633 7.82415 7.91055 7.39837 7.91055 6.87321H6.71055C6.71055 8.06053 7.67301 9.02415 8.86091 9.02415V7.82415ZM9.81127 6.87321C9.81127 7.39837 9.38549 7.82415 8.86091 7.82415V9.02415C10.0488 9.02415 11.0113 8.06053 11.0113 6.87321H9.81127ZM8.86091 5.92227C9.38549 5.92227 9.81127 6.34804 9.81127 6.87321H11.0113C11.0113 5.68589 10.0488 4.72227 8.86091 4.72227V5.92227ZM8.86091 4.72227C7.67301 4.72227 6.71055 5.68589 6.71055 6.87321H7.91055C7.91055 6.34804 8.33633 5.92227 8.86091 5.92227V4.72227ZM16.5654 18.9114C15.0654 19.9338 13.0194 19.5458 11.9966 18.0454L11.005 18.7212C12.4007 20.7688 15.1931 21.299 17.2412 19.903L16.5654 18.9114ZM17.4294 14.3423C18.4521 15.8428 18.0653 17.889 16.5654 18.9114L17.2412 19.903C19.2893 18.507 19.8166 15.714 18.421 13.6664L17.4294 14.3423ZM12.8607 13.4762C14.3606 12.4538 16.4067 12.8418 17.4294 14.3423L18.421 13.6664C17.0253 11.6188 14.2329 11.0887 12.1848 12.4847L12.8607 13.4762ZM12.1848 12.4847C10.1367 13.8807 9.60937 16.6736 11.005 18.7212L11.9966 18.0454C10.9739 16.5449 11.3607 14.4986 12.8607 13.4762L12.1848 12.4847Z" fill="#6BCD85"/>
</svg>
