<svg width="23" height="24" viewBox="0 0 23 24" fill="none" xmlns="http://www.w3.org/2000/svg">
<path d="M12.538 18.1102C11.8583 18.8082 11.0663 19.49 10.1447 20.1414C9.81866 20.3718 9.3793 20.3688 9.05333 20.1383C0.508444 14.0972 3.04731 5.4491 3.05033 5.4491C5.02136 5.4491 7.26678 4.2863 8.54366 3.5313C9.20883 3.138 9.92971 3.138 10.5949 3.53131C11.8717 4.28631 14.1171 5.4491 16.0881 5.4491C16.0881 5.4491 16.8107 7.84458 16.2481 10.9947M9.11448 6.5809C8.99917 6.63046 7.4261 7.88783 5.65501 7.88783C5.65501 7.88783 4.07268 13.4297 9.74144 17.4228M14.4434 14.5367V13.1163C14.4434 12.0117 15.3578 11.1163 16.4624 11.1163C17.567 11.1163 18.4815 12.0117 18.4815 13.1163V14.5367M12.5547 15.6319V19.0803C12.5547 20.1848 13.4501 21.0803 14.5547 21.0803H18.3046C19.4092 21.0803 20.3046 20.1848 20.3046 19.0803V15.6319C20.3046 15.0796 19.8569 14.6319 19.3046 14.6319H13.5547C13.0024 14.6319 12.5547 15.0796 12.5547 15.6319Z" stroke="#6BCD85" stroke-linecap="round"/>
</svg>
