<svg width="251" height="101" viewBox="0 0 251 101" fill="none" xmlns="http://www.w3.org/2000/svg">
<mask id="mask0_274_731" style="mask-type:alpha" maskUnits="userSpaceOnUse" x="24" y="28" width="45" height="45">
<rect x="24.291" y="28.1113" width="44.2155" height="44.2155" fill="#6BCD85"/>
</mask>
<g mask="url(#mask0_274_731)">
<path fill-rule="evenodd" clip-rule="evenodd" d="M60.4234 32.6201L36.4675 8.74523L41.1519 4.04492L65.1157 27.9277L69.8027 23.2407L74.4951 27.9331L12.5202 89.908L7.82783 85.2156L24.4822 68.5612L0.976562 44.8922L5.68515 40.2161L29.1746 63.8688L33.309 59.7345L9.69553 35.9569L14.4041 31.2808L38.0013 55.0421L42.536 50.5075L19.2736 26.9209L23.9983 22.2611L47.2284 45.815L51.5382 41.5052L27.7427 17.6748L32.4385 12.9859L56.2306 36.8129L60.4234 32.6201ZM84.8274 36.6521L22.8525 98.6269L18.1602 93.9346L80.135 31.9597L84.8274 36.6521ZM96.2075 44.6725L34.2327 106.647L29.5403 101.955L91.5152 39.9802L96.2075 44.6725Z" fill="#A4A4A4"/>
<path fill-rule="evenodd" clip-rule="evenodd" d="M55.2804 68.0281L57.4159 70.177C56.488 73.2717 55.0206 76.1161 53.1299 78.6107L50.1385 78.1536C49.8956 78.1165 49.6484 78.1871 49.4617 78.347L44.7617 82.3723C44.5751 82.5321 44.4673 82.7653 44.4666 83.011L44.4571 86.0378C41.7014 87.5224 38.6651 88.5348 35.4645 88.9756L33.6709 86.535C33.5253 86.3369 33.3007 86.2121 33.0556 86.1932L26.8859 85.716C26.6409 85.6971 26.3998 85.7858 26.2255 85.959L24.0766 88.0945C20.9819 87.1666 18.1375 85.6992 15.6429 83.8085L16.1 80.8172C16.1371 80.5742 16.0665 80.327 15.9066 80.1403L11.8813 75.4403C11.7215 75.2537 11.4883 75.1459 11.2426 75.1452L8.21577 75.1357C6.73124 72.38 5.71883 69.3437 5.27805 66.1431L7.71858 64.3495C7.91665 64.2039 8.04146 63.9793 8.06042 63.7342L8.53755 57.5645C8.5565 57.3195 8.4678 57.0784 8.29461 56.9041L6.15911 54.7553C7.08696 51.6605 8.55436 48.8161 10.4451 46.3215L13.4364 46.7786C13.6794 46.8157 13.9266 46.7451 14.1133 46.5852L18.8133 42.5599C18.9999 42.4001 19.1077 42.1669 19.1084 41.9212L19.1179 38.8944C21.8736 37.4098 24.9099 36.3974 28.1105 35.9566L29.9041 38.3972C30.0497 38.5953 30.2743 38.7201 30.5194 38.739L36.6891 39.2162C36.9341 39.2351 37.1752 39.1464 37.3495 38.9732L39.4984 36.8377C42.5931 37.7656 45.4375 39.233 47.9321 41.1237L47.475 44.115C47.4379 44.358 47.5085 44.6052 47.6684 44.7919L51.6937 49.4919C51.8535 49.6785 52.0867 49.7863 52.3324 49.787L55.3592 49.7965C56.8438 52.5522 57.8562 55.5885 58.2969 58.7891L55.8564 60.5827C55.6583 60.7283 55.5335 60.9529 55.5146 61.198L55.0374 67.3677C55.0185 67.6127 55.1072 67.8538 55.2804 68.0281ZM30.5395 78.628C39.4656 79.3183 47.2612 72.6419 47.9515 63.7158C48.6418 54.7897 41.9654 46.994 33.0393 46.3037C24.1132 45.6134 16.3175 52.2899 15.6272 61.216C14.9369 70.1421 21.6134 77.9377 30.5395 78.628Z" fill="#333333"/>
</g>
<path d="M82.2587 47.6273H78.3555V28.1113H82.2587L89.0614 37.5626L95.9756 28.1113H99.7394V47.6273H95.8362V34.468L90.7342 41.9677H87.4722L82.2587 34.468V47.6273Z" fill="#A4A4A4"/>
<path d="M120.487 47.6273H103.927V28.1113H120.487V32.0145H107.83V35.9456H119.511V39.8488H107.83V43.7241H120.487V47.6273Z" fill="#A4A4A4"/>
<path d="M128.282 47.6273H124.379V28.1113H128.282V35.9456H134.109L138.012 32.0424V28.1113H141.888V33.994L138.012 37.8972L141.888 41.8004V47.6273H138.012V43.7241L134.109 39.8488H128.282V47.6273Z" fill="#A4A4A4"/>
<path d="M149.409 37.8972H159.139V32.0145H153.284L149.409 35.9456V37.8972ZM149.409 47.6273H145.506V33.994L151.333 28.1113H163.014V47.6273H159.139V41.8004H149.409V47.6273Z" fill="#A4A4A4"/>
<path d="M171.093 47.6273H167.19V28.1113H183.751V32.0145H171.093V47.6273Z" fill="#A4A4A4"/>
<path d="M191.001 37.8972H200.731V32.0145H191.001V37.8972ZM191.001 47.6273H187.098V28.1113H202.683L204.607 30.0908V39.8488L202.683 41.8004H191.001V47.6273Z" fill="#A4A4A4"/>
<path d="M212.407 43.7241H222.137V32.0145H212.407V43.7241ZM224.088 47.6273H210.427L208.504 45.7036V30.0908L210.427 28.1113H224.088L226.012 30.0908V45.7036L224.088 47.6273Z" fill="#A4A4A4"/>
<path d="M82.2587 72.3707H78.3555V52.8548H94.9162V56.758H82.2587V72.3707Z" fill="#333333"/>
<path d="M102.167 62.6406H111.897V56.758H102.167V62.6406ZM102.167 72.3707H98.2635V52.8548H113.848L115.772 54.8343V64.5922L113.848 66.5438H102.167V72.3707Z" fill="#333333"/>
<path d="M120.756 72.3707V68.4675H128.563L132.466 64.5922H124.659L118.833 58.7374V52.8548H122.736V56.7858L126.611 60.689H132.466V52.8548H136.341V66.5438L130.514 72.3707H120.756Z" fill="#333333"/>
<path d="M144.161 72.3707H140.258V52.8548H157.766V72.3707H153.891V56.758H144.161V72.3707Z" fill="#333333"/>
</svg>
