<svg width="231" height="101" viewBox="0 0 231 101" fill="none" xmlns="http://www.w3.org/2000/svg">
<path d="M124.012 44.1164C123.539 44.1166 121.157 44.1166 118.283 44.1166C113.026 44.1166 108.764 48.3778 108.764 53.6344V56.6746M108.764 56.6746L96.6535 68.7855M108.764 56.6746V58.4921M108.764 78.4734L93.1946 84.1927M108.764 78.4734L96.6535 68.7855M108.764 78.4734V58.4921M93.1946 84.1927L82.3906 88.1614V83.0483L96.6535 68.7855M93.1946 84.1927L96.6535 68.7855M108.764 58.4921H117.395M128.268 39.3847C131.52 38.1707 135.041 37.5071 138.716 37.5071C153.171 37.5071 165.229 47.7718 167.998 61.4099M162.011 65.7838H211.808L217.628 61.8221H226.783V65.7838H220.59L213.858 71.5168H161.886M200.72 65.8591L205.592 44.5886C206.366 41.2105 206.393 37.704 205.67 34.3145L202.727 20.5075C201.556 15.0162 196.706 11.0908 191.091 11.0908H138.101C132.557 11.0908 127.747 14.9201 126.506 20.3232L123.712 32.4773C122.951 35.7925 122.908 39.2326 123.589 42.5656L124.805 48.5244M168.588 39.1976H196.602M59.6647 82.7562C67.4274 53.222 58.9453 32.8561 53.734 26.3649C57.4035 32.4748 58.1333 43.3146 57.5673 54.3168M49.7822 49.2946C46.0871 37.2676 40.668 30.2977 37.1942 27.7039C42.1541 34.3647 44.974 45.2083 46.4847 55.9461M49.7822 49.2946C52.4028 57.824 54.1563 68.8969 53.734 82.7562C55.2268 75.9557 57.0146 65.0589 57.5673 54.3168M49.7822 49.2946C49.5152 41.5859 47.6089 23.8945 42.1201 14.7988C45.5246 16.6406 53.3802 27.1226 57.5673 54.3168M47.9521 82.7562C48.1781 76.4352 47.9329 66.2393 46.4847 55.9461M46.4847 55.9461C42.4622 51.0009 32.4324 41.3095 22.5987 39.4033M22.989 39.3223L19.434 39.7603C17.5758 39.9893 16.0012 41.2373 15.3539 42.9941L14.687 44.8039C14.544 45.1922 14.9075 45.5763 15.3031 45.4547L19.1504 44.2722M47.722 72.6717C40.4253 68.0431 30.2967 63.203 21.2771 63.2582M21.0851 63.1195L16.6611 64.5866C14.8839 65.1759 13.585 66.7087 13.2951 68.5584L12.8457 71.4265C12.7816 71.8353 13.2135 72.1406 13.5775 71.9437L17.8385 69.6392M161.764 67.3871C161.764 80.1166 151.445 90.4359 138.716 90.4359C125.986 90.4359 115.667 80.1166 115.667 67.3871C115.667 54.6576 125.986 44.3383 138.716 44.3383C151.445 44.3383 161.764 54.6576 161.764 67.3871ZM152.784 67.3859C152.784 75.1564 146.485 81.4556 138.714 81.4556C130.944 81.4556 124.645 75.1564 124.645 67.3859C124.645 59.6155 130.944 53.3163 138.714 53.3163C146.485 53.3163 152.784 59.6155 152.784 67.3859ZM143.944 67.3868C143.944 70.2755 141.602 72.6173 138.713 72.6173C135.824 72.6173 133.483 70.2755 133.483 67.3868C133.483 64.4981 135.824 62.1564 138.713 62.1564C141.602 62.1564 143.944 64.4981 143.944 67.3868ZM36.9619 45.7913L37.2887 45.2548C38.2058 43.7498 38.2627 41.873 37.4386 40.3151L35.493 36.6374C35.2995 36.2716 34.7708 36.2858 34.5972 36.6614L33.7879 38.4122C33.0023 40.1117 33.232 42.1076 34.3831 43.5843L36.1405 45.8385C36.3555 46.1143 36.7799 46.0899 36.9619 45.7913ZM36.9312 47.5758L36.65 48.1376C35.8613 49.7138 34.3011 50.7583 32.5434 50.8868L28.3938 51.1903C27.9811 51.2205 27.7125 50.765 27.9386 50.4184L28.9927 48.8032C30.0159 47.2352 31.8294 46.3704 33.6919 46.562L36.5352 46.8547C36.883 46.8905 37.0876 47.2631 36.9312 47.5758ZM31.4241 43.9974L31.2136 44.5893C30.6229 46.2498 29.2016 47.4767 27.4726 47.8185L23.391 48.6256C22.9851 48.7059 22.6629 48.2864 22.8451 47.9149L23.6945 46.1832C24.519 44.5023 26.2135 43.4228 28.0854 43.386L30.9432 43.3299C31.2928 43.323 31.5413 43.6679 31.4241 43.9974ZM26.9283 40.771L26.7798 41.3814C26.3629 43.0939 25.0753 44.4604 23.3906 44.9781L19.4135 46.2005C19.018 46.3221 18.6544 45.938 18.7975 45.5497L19.4643 43.7399C20.1117 41.9831 21.6862 40.7351 23.5445 40.5061L26.3814 40.1565C26.7284 40.1138 27.011 40.4313 26.9283 40.771ZM31.9536 42.3911L32.2805 41.8547C33.1975 40.3496 33.2544 38.4729 32.4303 36.915L30.4847 33.2373C30.2912 32.8715 29.7626 32.8856 29.5889 33.2613L28.7796 35.012C27.994 36.7115 28.2238 38.7075 29.3749 40.1841L31.1323 42.4384C31.3472 42.7142 31.7716 42.6897 31.9536 42.3911ZM26.9195 39.909L27.2026 39.3483C27.9971 37.775 27.9046 35.8997 26.9592 34.4123L24.7273 30.9009C24.5053 30.5517 23.9794 30.6079 23.8362 30.9961L23.1687 32.8057C22.5208 34.5623 22.9085 36.5337 24.1734 37.9141L26.1045 40.0214C26.3408 40.2792 26.7619 40.2211 26.9195 39.909ZM22.8527 38.6557L22.9936 38.0435C23.3889 36.326 22.8508 34.5272 21.5772 33.3089L18.5706 30.433C18.2715 30.1469 17.7743 30.3272 17.7281 30.7384L17.5126 32.6551C17.3033 34.5156 18.1511 36.3372 19.7094 37.3751L22.0883 38.9597C22.3793 39.1536 22.7743 38.9965 22.8527 38.6557ZM18.4455 37.8482L17.9953 37.41C16.7325 36.1806 14.9157 35.7068 13.2133 36.163L9.19444 37.24C8.79474 37.3471 8.69072 37.8657 9.01819 38.1187L10.5446 39.2978C12.0262 40.4424 14.0232 40.6633 15.7192 39.8702L18.3085 38.6594C18.6252 38.5113 18.696 38.0922 18.4455 37.8482ZM40.5093 67.7667L41.0953 66.1596C41.6991 64.5038 41.3865 62.6524 40.2725 61.2866L36.3359 56.4599C36.0744 56.1392 35.5587 56.2569 35.4622 56.6593L34.652 60.0374C34.2153 61.8581 34.8323 63.7701 36.2509 64.992L39.7132 67.9743C39.9782 68.2025 40.3895 68.0952 40.5093 67.7667ZM41.0238 69.62L40.5735 71.2702C40.1095 72.9705 38.7847 74.301 37.0864 74.7721L31.0845 76.4371C30.6858 76.5477 30.3329 76.1537 30.4866 75.7695L31.7772 72.5442C32.4727 70.8059 34.0811 69.6018 35.9449 69.4242L40.494 68.9906C40.842 68.9574 41.1158 69.2826 41.0238 69.62ZM33.3251 66.5604L33.0793 68.2532C32.8261 69.9974 31.6733 71.4794 30.0451 72.1541L24.2909 74.5382C23.9086 74.6966 23.5103 74.3486 23.6161 73.9485L24.5039 70.5899C24.9823 68.7798 26.432 67.3886 28.2602 66.9851L32.7225 66.0003C33.0639 65.9249 33.3753 66.2143 33.3251 66.5604ZM26.962 63.6898L26.8915 65.3989C26.8189 67.1599 25.8246 68.7526 24.2743 69.591L18.7957 72.554C18.4317 72.7509 17.9998 72.4456 18.0639 72.0368L18.6017 68.6047C18.8915 66.755 20.1905 65.2222 21.9676 64.6329L26.305 63.1946C26.6369 63.0845 26.9764 63.3404 26.962 63.6898ZM33.4902 64.8092L34.0762 63.2021C34.68 61.5463 34.3674 59.6949 33.2535 58.3291L29.3168 53.5024C29.0553 53.1817 28.5397 53.2994 28.4431 53.7018L27.6329 57.0799C27.1962 58.9006 27.8133 60.8126 29.2319 62.0345L32.6942 65.0168C32.9591 65.245 33.3705 65.1377 33.4902 64.8092ZM26.6827 62.9952L27.139 61.3466C27.6091 59.648 27.1503 57.8274 25.9313 56.5545L21.6232 52.0561C21.337 51.7573 20.8324 51.9156 20.7682 52.3244L20.2291 55.7563C19.9386 57.6059 20.7058 59.4628 22.2171 60.568L25.9056 63.2654C26.1879 63.4719 26.5894 63.3322 26.6827 62.9952ZM20.7727 62.508L20.8103 61.1978C20.8607 59.4361 19.9799 57.7779 18.4919 56.8334L13.8784 53.9048C13.529 53.683 13.0769 53.9574 13.1122 54.3696L13.3605 57.2621C13.5206 59.1275 14.7095 60.7472 16.4411 61.4591L20.0828 62.9561C20.4063 63.0891 20.7627 62.8575 20.7727 62.508ZM15.9262 62.4672L14.4901 61.5378C13.0105 60.5802 11.136 60.4723 9.55632 61.2538L3.9736 64.0157C3.6027 64.1992 3.60251 64.7281 3.97327 64.9119L7.08588 66.4547C8.76341 67.2861 10.7649 67.1107 12.2722 66.0001L15.9511 63.2895C16.2326 63.0821 16.2197 62.6572 15.9262 62.4672Z" stroke="#58C88A" stroke-width="1.8"/>
</svg>
