<svg width="231" height="101" viewBox="0 0 231 101" fill="none" xmlns="http://www.w3.org/2000/svg">
<path d="M126.092 49.5744C125.619 49.5746 123.237 49.5747 120.363 49.5746C115.106 49.5746 110.844 53.8358 110.844 59.0924V62.1326M110.844 62.1326L98.7335 74.2435M110.844 62.1326V63.9501M110.844 83.9314L95.2746 89.6507M110.844 83.9314L98.7335 74.2435M110.844 83.9314V63.9501M95.2746 89.6507L84.4707 93.6194V88.5063L98.7335 74.2435M95.2746 89.6507L98.7335 74.2435M110.844 63.9501H119.475M130.348 44.8427C133.6 43.6287 137.121 42.9651 140.796 42.9651C155.252 42.9651 167.309 53.2298 170.079 66.8679M164.091 71.2418H213.888L219.708 67.2801H228.863V71.2418H222.67L215.938 76.9748H163.966M202.8 71.3171L207.672 50.0466C208.446 46.6685 208.473 43.1621 207.75 39.7725L204.807 25.9655C203.636 20.4742 198.786 16.5488 193.171 16.5488H140.181C134.637 16.5488 129.827 20.3781 128.586 25.7812L125.792 37.9353C125.031 41.2505 124.988 44.6907 125.669 48.0236L126.885 53.9824M170.668 44.6556H198.682M51.854 62.129C49.3321 61.8105 45.8168 64.2421 46.3197 68.5411C46.8201 72.8183 52.3558 72.7631 52.4121 72.7624C52.4685 72.7586 58.9393 72.302 57.6686 65.9524C56.8541 61.882 53.0355 61.3857 51.854 62.129ZM51.854 62.129C51.1319 62.9481 50.2594 63.8624 50.0688 65.3868M51.854 62.129C52.2688 62.4146 53.1672 63.1612 53.4416 63.8624M31.8137 48.1637C29.2918 47.8453 25.7765 50.2769 26.2794 54.5759C26.7798 58.853 32.3155 58.7979 32.3718 58.7972C32.4282 58.7934 38.899 58.3368 37.6284 51.9872C36.8138 47.9168 32.9953 47.4205 31.8137 48.1637ZM31.8137 48.1637C31.0916 48.9829 30.2191 49.8972 30.0285 51.4216M31.8137 48.1637C32.2285 48.4494 33.1269 49.196 33.4013 49.8972M50.5093 30.3133C52.1905 29.8461 54.8201 31.1479 54.9062 34.118C54.9917 37.066 51.244 37.5838 51.1884 37.5913L51.1873 37.5914C51.1312 37.5957 46.7093 37.9192 46.9402 33.4888C47.0885 30.643 49.6328 29.926 50.5093 30.3133ZM50.5093 30.3133C51.0812 30.7978 51.7648 31.332 52.0459 32.3485M50.5093 30.3133C50.2559 30.5486 49.72 31.145 49.6034 31.6486M26.4795 57.9098C22.5848 57.9098 19.0256 52.2509 22.0173 48.0039C25.0091 43.7568 28.4268 45.2433 28.4268 45.2433M55.1037 36.4019C57.7491 36.0144 59.6036 31.8167 57.149 29.2296C54.6943 26.6425 52.2435 28.7058 52.2435 28.7058M22.1839 91.9412C22.3984 91.0027 23.4217 89.3846 25.8274 89.9433C26.1004 90.0067 26.3847 89.8615 26.497 89.6046C27.2703 87.8348 29.5353 85.5161 33.8623 87.4068C34.0355 87.4825 34.2388 87.4608 34.3922 87.3503C35.7627 86.3622 38.2449 85.2313 40.7514 85.6976M58.2016 91.9412C56.8199 89.2507 53.8326 89.3961 52.1181 89.9075C51.8406 89.9903 51.5386 89.845 51.4284 89.5772C49.9679 86.0293 46.3966 86.5435 44.4578 87.3834C44.2598 87.4692 44.0293 87.4306 43.8701 87.285C42.8815 86.3803 41.8142 85.8954 40.7514 85.6976M40.7514 85.6976L40.8541 75.671M41.2402 37.9627L41.4906 13.514M41.2402 37.9627L41.1621 45.5911M41.2402 37.9627C42.2832 33.6973 44.8504 26.0894 48.2771 22.2142M41.1621 45.5911L40.9568 65.6444M41.1621 45.5911C39.4941 43.4874 35.9459 39.9667 31.3071 37.1829M40.9568 65.6444C41.7751 63.5584 43.2566 60.6606 45.3723 57.6309M40.9568 65.6444L40.8541 75.671M45.3723 57.6309C49.3928 51.8732 55.7035 45.6392 64.1047 43.5957M45.3723 57.6309C46.2985 57.0676 47.8222 56.3473 49.7178 55.7657M49.7178 55.7657C52.752 54.8348 56.7393 54.2595 60.7555 55.2522M49.7178 55.7657C50.3837 56.3327 51.6655 58.0142 51.4664 60.2043M48.2771 22.2142C49.3971 20.9475 50.609 20.0797 51.8895 19.8578M48.2771 22.2142C49.0706 23.2217 50.5705 25.9086 50.222 28.5965M31.3071 37.1829C28.3022 35.3796 24.8397 33.8856 21.1342 33.2861M31.3071 37.1829C30.6019 39.568 29.4032 44.7862 30.2494 46.5781M40.8541 75.671C38.0452 70.5154 28.6117 60.2043 13.3487 60.2043M163.844 72.8451C163.844 85.5746 153.525 95.8939 140.796 95.8939C128.066 95.8939 117.747 85.5746 117.747 72.8451C117.747 60.1156 128.066 49.7963 140.796 49.7963C153.525 49.7963 163.844 60.1156 163.844 72.8451ZM154.864 72.8439C154.864 80.6144 148.565 86.9136 140.794 86.9136C133.024 86.9136 126.725 80.6144 126.725 72.8439C126.725 65.0735 133.024 58.7743 140.794 58.7743C148.565 58.7743 154.864 65.0735 154.864 72.8439ZM146.024 72.8448C146.024 75.7335 143.682 78.0753 140.793 78.0753C137.905 78.0753 135.563 75.7335 135.563 72.8448C135.563 69.9561 137.905 67.6144 140.793 67.6144C143.682 67.6144 146.024 69.9561 146.024 72.8448ZM54.5279 13.4132C52.0202 14.7601 50.0514 17.9238 52.5907 19.9826C54.8685 21.8296 58.6986 19.8698 59.9195 17.7501C60.7396 16.3263 62.2697 13.9598 64.5349 14.053C64.6356 14.0571 64.6902 13.9313 64.6074 13.8739C62.7457 12.5841 58.0794 11.5046 54.5279 13.4132ZM40.157 7.39817C42.0649 8.94027 43.2257 11.9345 40.7458 13.2715C38.5211 14.4709 35.5915 12.1981 34.8969 10.2076C34.4343 8.88168 33.5287 6.65891 31.6283 6.34531C31.5289 6.3289 31.5005 6.19451 31.5931 6.15469C33.4 5.37778 37.4778 5.23167 40.157 7.39817ZM33.1525 14.6889C35.9174 13.8563 39.599 14.7134 39.2545 18.0117C38.9454 20.9705 34.7922 22.3121 32.3959 21.6674C30.7851 21.234 27.9871 20.6335 26.4297 22.3298C26.3615 22.4041 26.2339 22.3539 26.2518 22.2547C26.6591 19.9952 29.2328 15.8683 33.1525 14.6889ZM16.1554 27.0908C19.0325 27.3375 22.1378 29.493 20.6002 32.4312C19.2208 35.067 14.8657 34.7809 12.8766 33.2973C11.5395 32.3 9.16061 30.7092 7.08711 31.7109C6.99634 31.7548 6.89626 31.6611 6.9495 31.5754C8.16204 29.6258 12.0772 26.7402 16.1554 27.0908ZM67.8093 37.8396C65.0594 38.7207 62.5119 41.5135 64.6652 44.0356C66.5968 46.2981 70.7789 45.0495 72.3877 43.1602C73.4692 41.8903 75.4341 39.8097 77.6786 40.3246C77.7769 40.3471 77.8536 40.2335 77.7826 40.1619C76.1664 38.5311 71.707 36.5898 67.8093 37.8396ZM65.0178 52.4811C62.7465 52.3212 60.0638 53.6203 60.9021 56.0972C61.654 58.3192 65.0816 58.6292 66.8126 57.7169C67.9602 57.1121 69.9679 56.1814 71.4549 57.1482C71.5394 57.2031 71.6513 57.1235 71.61 57.0315C70.86 55.3592 68.1932 52.7038 65.0178 52.4811ZM49.9373 43.9419C49.5389 45.7921 50.2927 48.1523 52.4293 47.7536C54.3461 47.3959 55.004 44.6119 54.4566 43.0803C54.0987 42.0787 53.5783 40.3512 54.4954 39.2391C54.5595 39.1614 54.4964 39.0393 54.4001 39.0689C52.929 39.5207 50.4867 41.388 49.9373 43.9419ZM35.1597 32.5319C35.5581 34.3821 34.8044 36.7422 32.6677 36.3435C30.751 35.9858 30.0931 33.2019 30.6404 31.6703C30.9984 30.6687 31.5188 28.9412 30.6017 27.8291C30.5375 27.7513 30.6007 27.6293 30.697 27.6589C32.1681 28.1107 34.6104 29.978 35.1597 32.5319ZM9.52562 56.6481C11.2167 57.4979 12.5825 59.565 10.9321 60.9794C9.4515 62.2482 6.8704 61.0149 6.02056 59.6282C5.46477 58.7212 4.44546 57.2326 3.0041 57.2496C2.9033 57.2508 2.84777 57.1251 2.93125 57.0686C4.20566 56.2061 7.19172 55.4745 9.52562 56.6481ZM22.0941 68.5928C23.9066 67.3983 25.1856 64.8608 23.1163 63.4707C21.2599 62.2236 18.4848 63.974 17.7024 65.6675C17.1854 66.7866 16.2087 68.6457 14.5328 68.7856C14.4324 68.794 14.3919 68.9252 14.4807 68.9728C16.0248 69.7999 19.5682 70.2582 22.0941 68.5928Z" stroke="#58C88A" stroke-width="1.8"/>
</svg>
