<svg width="231" height="101" viewBox="0 0 231 101" fill="none" xmlns="http://www.w3.org/2000/svg">
<path d="M68.0746 27.4797H73.7258C85.3259 27.4797 94.7297 36.8834 94.7297 48.4835V51.0008M91.656 51.0008V48.4835C91.656 38.581 83.6284 30.5534 73.7258 30.5534H68.0746M53.7588 64.3818C50.3911 58.4379 44.0084 54.4269 36.689 54.4269C29.3695 54.4269 22.9869 58.4379 19.6192 64.3818M67.06 69.1833H67.7124C74.5027 69.1833 80.0074 63.6786 80.0074 56.8883V47.551C80.0074 40.7607 74.5027 35.2561 67.7124 35.2561H67.06M67.06 69.1833V35.2561M67.06 69.1833H51.0515M67.06 35.2561H18.0022M18.0022 35.2561H16.6875C9.89721 35.2561 4.39258 40.7607 4.39258 47.551V56.8883C4.39258 63.6786 9.89721 69.1833 16.6875 69.1833H18.0022M18.0022 35.2561V69.1833M18.0022 69.1833H22.2557M58.2371 35.206V25.1323C58.2371 23.4348 59.6132 22.0586 61.3108 22.0586H64.976C66.6736 22.0586 68.0498 23.4348 68.0498 25.1323V35.206M89.7249 60.4053V54.0747C89.7249 52.3771 91.101 51.001 92.7986 51.001H93.6701C95.3677 51.001 96.7439 52.3771 96.7439 54.0747V60.4053M89.7249 73.4571V67.8275M96.7439 67.8275V73.4571M64.7127 73.3946V69.5104M68.0746 69.5104V73.3946M51.9997 73.998H101.333C101.354 73.998 101.375 73.9913 101.392 73.9789L106.299 70.4741C106.316 70.4617 106.337 70.455 106.358 70.455H112.521C112.578 70.455 112.624 70.5008 112.624 70.5574V73.8955C112.624 73.9521 112.578 73.998 112.521 73.998H108.175C108.15 73.998 108.126 74.0073 108.107 74.0242L102.733 78.853C102.714 78.8699 102.69 78.8793 102.664 78.8793H51.4492M205.999 20.9767V18.1443C205.999 17.6736 206.32 17.2634 206.777 17.1499L207.959 16.8566V12.3779C207.959 12.3088 207.892 12.2595 207.826 12.2802C206.003 12.8518 204.221 13.4242 203.174 14.1166C202.481 14.5757 201.901 15.2322 201.901 16.0809V20.9767M179.133 44.4256H168.004M179.133 44.4256V50.2461C179.133 50.3027 179.179 50.3486 179.236 50.3486H193.35C193.407 50.3486 193.453 50.3027 193.453 50.2461V44.4256M179.133 44.4256H193.453M193.453 44.4256H199.571M199.571 44.4256H206.436C206.492 44.4256 206.536 44.4715 206.536 44.5281V63.0584M199.571 44.4256V63.0584M142.235 37.6178V20.0823C142.235 20.0257 142.281 19.9798 142.338 19.9798H148.437C148.494 19.9798 148.54 20.0257 148.54 20.0823V31.9489C148.54 32.0055 148.586 32.0513 148.642 32.0513H157.357C157.414 32.0513 157.459 32.0972 157.459 32.1538V38.1542M164.742 25.9092L160.995 30.2814M168.887 71.7399L175.065 72.5362C175.817 70.0191 176.221 67.3517 176.221 64.5901C176.221 49.2814 163.811 36.8714 148.503 36.8714C140.474 36.8714 133.243 40.2844 128.181 45.7387L132.499 50.1756M148.501 85.9451V81.9819M148.501 47.1982V43.235M217.618 86.3039V84.5561M217.618 69.2165V67.4687M133.401 79.6901L136.203 76.8877M160.799 52.292L163.601 49.4895M210.959 83.5455L212.195 82.3097M223.042 71.4621L224.278 70.2262M133.401 49.489L136.203 52.2914M160.799 76.8872L163.601 79.6896M210.959 70.2267L212.195 71.4626M223.042 82.3089L224.278 83.5448M127.147 64.5901H131.11M165.893 64.5901H169.857M208.199 76.886H209.947M225.285 76.886H227.033M215.098 67.8849V63.3003M201.351 31.901V21.335C201.351 21.2784 201.396 21.2325 201.453 21.2325H206.442C206.498 21.2325 206.544 21.2784 206.544 21.335V31.901M221.28 67.8069V63.2223M176.536 63.2219L222.974 63.1435C224.078 63.1417 224.971 62.2468 224.971 61.1436V53.183M172.763 35.9385L179.926 32.0502C179.941 32.042 179.957 32.0378 179.974 32.0378H222.971C224.076 32.0378 224.971 32.9332 224.971 34.0378V38.7954M172.763 35.9385L163.361 41.0419M172.763 35.9385L163.361 28.4776M224.971 38.7954H215.472M224.971 38.7954V45.9892M224.971 53.183H215.212M224.971 53.183V45.9892M224.971 45.9892H215.472M43.0214 74.0325C43.0214 77.5296 40.1865 80.3646 36.6894 80.3646C33.1922 80.3646 30.3573 77.5296 30.3573 74.0325C30.3573 70.5354 33.1922 67.7004 36.6894 67.7004C40.1865 67.7004 43.0214 70.5354 43.0214 74.0325ZM51.9095 74.032C51.9095 82.4376 45.0954 89.2516 36.6899 89.2516C28.2843 89.2516 21.4702 82.4376 21.4702 74.032C21.4702 65.6264 28.2843 58.8124 36.6899 58.8124C45.0954 58.8124 51.9095 65.6264 51.9095 74.032ZM98.5792 67.7004H88.0306C86.4144 67.7004 85.1043 66.3902 85.1043 64.774V63.3317C85.1043 61.7155 86.4144 60.4053 88.0306 60.4053H98.5792C100.117 60.4053 101.363 61.6517 101.363 63.1893V64.9164C101.363 66.454 100.117 67.7004 98.5792 67.7004ZM158.868 64.5901C158.868 70.315 154.228 74.9559 148.503 74.9559C142.778 74.9559 138.137 70.315 138.137 64.5901C138.137 58.8651 142.778 54.2242 148.503 54.2242C154.228 54.2242 158.868 58.8651 158.868 64.5901ZM222.19 76.8858C222.19 79.4106 220.143 81.4573 217.619 81.4573C215.094 81.4573 213.047 79.4106 213.047 76.8858C213.047 74.3611 215.094 72.3144 217.619 72.3144C220.143 72.3144 222.19 74.3611 222.19 76.8858ZM153.878 64.5901C153.878 67.5592 151.471 69.9661 148.502 69.9661C145.533 69.9661 143.126 67.5592 143.126 64.5901C143.126 61.621 145.533 59.214 148.502 59.214C151.471 59.214 153.878 61.621 153.878 64.5901ZM169.939 64.5901C169.939 76.43 160.341 86.0282 148.501 86.0282C136.661 86.0282 127.062 76.43 127.062 64.5901C127.062 52.7501 136.661 43.1519 148.501 43.1519C160.341 43.1519 169.939 52.7501 169.939 64.5901ZM227.071 76.887C227.071 82.1085 222.838 86.3414 217.617 86.3414C212.395 86.3414 208.162 82.1085 208.162 76.887C208.162 71.6655 212.395 67.4327 217.617 67.4327C222.838 67.4327 227.071 71.6655 227.071 76.887Z" stroke="#58C88A" stroke-width="1.8"/>
</svg>
