<svg width="231" height="101" viewBox="0 0 231 101" fill="none" xmlns="http://www.w3.org/2000/svg">
<path d="M101.392 73.9789L100.869 73.2466L100.869 73.2466L101.392 73.9789ZM106.299 70.4741L106.822 71.2064L106.822 71.2064L106.299 70.4741ZM108.107 74.0242L108.709 74.6937L108.709 74.6937L108.107 74.0242ZM102.733 78.853L103.334 79.5225L103.334 79.5225L102.733 78.853ZM203.174 14.1166L202.678 13.366L202.678 13.366L203.174 14.1166ZM207.959 16.8566L208.176 17.7301L208.859 17.5605V16.8566H207.959ZM206.777 17.1499L206.56 16.2764L206.56 16.2764L206.777 17.1499ZM207.826 12.2802L208.095 13.1389L208.095 13.1389L207.826 12.2802ZM175.065 72.5362L174.95 73.4288L175.709 73.5266L175.928 72.7938L175.065 72.5362ZM128.181 45.7387L127.521 45.1265L126.94 45.7534L127.536 46.3664L128.181 45.7387ZM227.033 77.786C227.53 77.786 227.933 77.3831 227.933 76.886C227.933 76.389 227.53 75.986 227.033 75.986V77.786ZM179.926 32.0502L180.355 32.8412L180.355 32.8412L179.926 32.0502ZM172.763 35.9385L173.192 36.7294L173.192 36.7294L172.763 35.9385ZM222.974 63.1435L222.973 62.2435L222.974 63.1435ZM95.6297 48.4835C95.6297 36.3864 85.823 26.5797 73.7258 26.5797V28.3797C84.8289 28.3797 93.8297 37.3805 93.8297 48.4835H95.6297ZM73.7258 31.4534C83.1313 31.4534 90.756 39.0781 90.756 48.4835H92.556C92.556 38.0839 84.1254 29.6534 73.7258 29.6534V31.4534ZM73.7258 26.5797H68.0746V28.3797H73.7258V26.5797ZM95.6297 51.0008V48.4835H93.8297V51.0008H95.6297ZM90.756 48.4835V51.0008H92.556V48.4835H90.756ZM68.0746 31.4534H73.7258V29.6534H68.0746V31.4534ZM42.1214 74.0325C42.1214 77.0326 39.6894 79.4646 36.6894 79.4646V81.2646C40.6835 81.2646 43.9214 78.0267 43.9214 74.0325H42.1214ZM36.6894 79.4646C33.6893 79.4646 31.2573 77.0326 31.2573 74.0325H29.4573C29.4573 78.0267 32.6952 81.2646 36.6894 81.2646V79.4646ZM31.2573 74.0325C31.2573 71.0324 33.6893 68.6004 36.6894 68.6004V66.8004C32.6952 66.8004 29.4573 70.0383 29.4573 74.0325H31.2573ZM36.6894 68.6004C39.6894 68.6004 42.1214 71.0324 42.1214 74.0325H43.9214C43.9214 70.0383 40.6835 66.8004 36.6894 66.8004V68.6004ZM51.0095 74.032C51.0095 81.9405 44.5984 88.3516 36.6899 88.3516V90.1516C45.5925 90.1516 52.8095 82.9346 52.8095 74.032H51.0095ZM36.6899 88.3516C28.7814 88.3516 22.3702 81.9405 22.3702 74.032H20.5702C20.5702 82.9346 27.7872 90.1516 36.6899 90.1516V88.3516ZM22.3702 74.032C22.3702 66.1235 28.7814 59.7124 36.6899 59.7124V57.9124C27.7872 57.9124 20.5702 65.1294 20.5702 74.032H22.3702ZM36.6899 59.7124C44.5984 59.7124 51.0095 66.1235 51.0095 74.032H52.8095C52.8095 65.1294 45.5925 57.9124 36.6899 57.9124V59.7124ZM36.689 55.3269C43.6713 55.3269 49.7613 59.1521 52.9757 64.8255L54.5418 63.9381C51.0208 57.7237 44.3456 53.5269 36.689 53.5269V55.3269ZM20.4022 64.8255C23.6167 59.1521 29.7067 55.3269 36.689 55.3269V53.5269C29.0324 53.5269 22.3571 57.7237 18.8361 63.9381L20.4022 64.8255ZM79.1074 47.551V56.8883H80.9074V47.551H79.1074ZM5.29258 56.8883V47.551H3.49258V56.8883H5.29258ZM67.7124 68.2833H67.06V70.0833H67.7124V68.2833ZM67.06 36.1561H67.7124V34.3561H67.06V36.1561ZM67.96 69.1833V35.2561H66.16V69.1833H67.96ZM16.6875 36.1561H18.0022V34.3561H16.6875V36.1561ZM18.0022 36.1561H67.06V34.3561H18.0022V36.1561ZM18.0022 68.2833H16.6875V70.0833H18.0022V68.2833ZM17.1022 35.2561V69.1833H18.9022V35.2561H17.1022ZM67.06 68.2833H51.0515V70.0833H67.06V68.2833ZM22.2557 68.2833H18.0022V70.0833H22.2557V68.2833ZM3.49258 56.8883C3.49258 64.1757 9.40016 70.0833 16.6875 70.0833V68.2833C10.3943 68.2833 5.29258 63.1816 5.29258 56.8883H3.49258ZM79.1074 56.8883C79.1074 63.1816 74.0057 68.2833 67.7124 68.2833V70.0833C74.9998 70.0833 80.9074 64.1757 80.9074 56.8883H79.1074ZM80.9074 47.551C80.9074 40.2636 74.9998 34.3561 67.7124 34.3561V36.1561C74.0057 36.1561 79.1074 41.2578 79.1074 47.551H80.9074ZM5.29258 47.551C5.29258 41.2578 10.3943 36.1561 16.6875 36.1561V34.3561C9.40016 34.3561 3.49258 40.2636 3.49258 47.551H5.29258ZM100.463 63.1893V64.9164H102.263V63.1893H100.463ZM86.0043 64.774V63.3317H84.2043V64.774H86.0043ZM88.0306 61.3053H98.5792V59.5053H88.0306V61.3053ZM98.5792 66.8004H88.0306V68.6004H98.5792V66.8004ZM84.2043 64.774C84.2043 66.8873 85.9174 68.6004 88.0306 68.6004V66.8004C86.9115 66.8004 86.0043 65.8932 86.0043 64.774H84.2043ZM100.463 64.9164C100.463 65.9569 99.6197 66.8004 98.5792 66.8004V68.6004C100.614 68.6004 102.263 66.951 102.263 64.9164H100.463ZM102.263 63.1893C102.263 61.1547 100.614 59.5053 98.5792 59.5053V61.3053C99.6197 61.3053 100.463 62.1488 100.463 63.1893H102.263ZM86.0043 63.3317C86.0043 62.2125 86.9115 61.3053 88.0306 61.3053V59.5053C85.9174 59.5053 84.2043 61.2184 84.2043 63.3317H86.0043ZM59.1371 35.206V25.1323H57.3371V35.206H59.1371ZM61.3108 22.9586H64.976V21.1586H61.3108V22.9586ZM67.1498 25.1323V35.206H68.9498V25.1323H67.1498ZM64.976 22.9586C66.1766 22.9586 67.1498 23.9318 67.1498 25.1323H68.9498C68.9498 22.9377 67.1707 21.1586 64.976 21.1586V22.9586ZM59.1371 25.1323C59.1371 23.9318 60.1103 22.9586 61.3108 22.9586V21.1586C59.1162 21.1586 57.3371 22.9377 57.3371 25.1323H59.1371ZM90.6249 60.4053V54.0747H88.8249V60.4053H90.6249ZM92.7986 51.901H93.6701V50.101H92.7986V51.901ZM95.8439 54.0747V60.4053H97.6439V54.0747H95.8439ZM93.6701 51.901C94.8707 51.901 95.8439 52.8742 95.8439 54.0747H97.6439C97.6439 51.8801 95.8648 50.101 93.6701 50.101V51.901ZM90.6249 54.0747C90.6249 52.8742 91.5981 51.901 92.7986 51.901V50.101C90.604 50.101 88.8249 51.8801 88.8249 54.0747H90.6249ZM90.6249 73.4571V67.8275H88.8249V73.4571H90.6249ZM95.8439 67.8275V73.4571H97.6439V67.8275H95.8439ZM65.6127 73.3946V69.5104H63.8127V73.3946H65.6127ZM67.1746 69.5104V73.3946H68.9746V69.5104H67.1746ZM51.9997 74.898H101.333V73.098H51.9997V74.898ZM101.915 74.7112L106.822 71.2064L105.776 69.7417L100.869 73.2466L101.915 74.7112ZM106.358 71.355H112.521V69.555H106.358V71.355ZM111.724 70.5574V73.8955H113.524V70.5574H111.724ZM112.521 73.098H108.175V74.898H112.521V73.098ZM107.505 73.3548L102.131 78.1836L103.334 79.5225L108.709 74.6937L107.505 73.3548ZM102.664 77.9793H51.4492V79.7793H102.664V77.9793ZM102.131 78.1836C102.278 78.052 102.468 77.9793 102.664 77.9793V79.7793C102.912 79.7793 103.15 79.6879 103.334 79.5225L102.131 78.1836ZM108.175 73.098C107.928 73.098 107.69 73.1894 107.505 73.3548L108.709 74.6937C108.562 74.8253 108.372 74.898 108.175 74.898V73.098ZM111.724 73.8955C111.724 73.4552 112.081 73.098 112.521 73.098V74.898C113.075 74.898 113.524 74.449 113.524 73.8955H111.724ZM112.521 71.355C112.081 71.355 111.724 70.9978 111.724 70.5574H113.524C113.524 70.0039 113.075 69.555 112.521 69.555V71.355ZM106.822 71.2064C106.687 71.303 106.524 71.355 106.358 71.355V69.555C106.149 69.555 105.946 69.6203 105.776 69.7417L106.822 71.2064ZM101.333 74.898C101.542 74.898 101.746 74.8326 101.915 74.7112L100.869 73.2466C101.004 73.15 101.166 73.098 101.333 73.098V74.898ZM202.678 13.366C201.886 13.8896 201.001 14.7829 201.001 16.0809H202.801C202.801 15.6816 203.075 15.2618 203.671 14.8671L202.678 13.366ZM208.859 16.8566V12.3779H207.059V16.8566H208.859ZM206.994 18.0234L208.176 17.7301L207.742 15.9831L206.56 16.2764L206.994 18.0234ZM206.899 20.9767V18.1443H205.099V20.9767H206.899ZM201.001 16.0809V20.9767H202.801V16.0809H201.001ZM207.556 11.4214C205.782 11.9777 203.855 12.5871 202.678 13.366L203.671 14.8671C204.587 14.2612 206.223 13.726 208.095 13.1389L207.556 11.4214ZM208.859 12.3779C208.859 11.701 208.202 11.2189 207.556 11.4214L208.095 13.1389C207.581 13.3 207.059 12.9165 207.059 12.3779H208.859ZM206.56 16.2764C205.702 16.4895 205.099 17.26 205.099 18.1443H206.899C206.899 18.0871 206.938 18.0372 206.994 18.0234L206.56 16.2764ZM179.133 43.5256H168.004V45.3256H179.133V43.5256ZM178.233 44.4256V50.2461H180.033V44.4256H178.233ZM179.236 51.2486H193.35V49.4486H179.236V51.2486ZM193.453 43.5256H179.133V45.3256H193.453V43.5256ZM194.353 50.2461V44.4256H192.553V50.2461H194.353ZM206.436 43.5256H199.571V45.3256H206.436V43.5256ZM199.571 43.5256H193.453V45.3256H199.571V43.5256ZM198.671 44.4256V63.0584H200.471V44.4256H198.671ZM205.636 44.5281V63.0584H207.436V44.5281H205.636ZM193.35 51.2486C193.904 51.2486 194.353 50.7997 194.353 50.2461H192.553C192.553 49.8058 192.91 49.4486 193.35 49.4486V51.2486ZM178.233 50.2461C178.233 50.7999 178.682 51.2486 179.236 51.2486V49.4486C179.676 49.4486 180.033 49.8056 180.033 50.2461H178.233ZM206.436 45.3256C205.975 45.3256 205.636 44.9478 205.636 44.5281H207.436C207.436 43.9952 207.01 43.5256 206.436 43.5256V45.3256ZM143.135 37.6178V20.0823H141.335V37.6178H143.135ZM142.338 20.8798H148.437V19.0798H142.338V20.8798ZM147.64 20.0823V31.9489H149.44V20.0823H147.64ZM148.642 32.9513H157.357V31.1513H148.642V32.9513ZM156.559 32.1538V38.1542H158.359V32.1538H156.559ZM157.357 32.9513C156.917 32.9513 156.559 32.5943 156.559 32.1538H158.359C158.359 31.6001 157.911 31.1513 157.357 31.1513V32.9513ZM147.64 31.9489C147.64 32.5026 148.089 32.9513 148.642 32.9513V31.1513C149.083 31.1513 149.44 31.5084 149.44 31.9489H147.64ZM148.437 20.8798C147.997 20.8798 147.64 20.5226 147.64 20.0823H149.44C149.44 19.5287 148.991 19.0798 148.437 19.0798V20.8798ZM143.135 20.0823C143.135 20.5226 142.778 20.8798 142.338 20.8798V19.0798C141.784 19.0798 141.335 19.5287 141.335 20.0823H143.135ZM164.058 25.3235L160.311 29.6958L161.678 30.8671L165.425 26.4948L164.058 25.3235ZM157.968 64.5901C157.968 69.8179 153.73 74.0559 148.503 74.0559V75.8559C154.725 75.8559 159.768 70.812 159.768 64.5901H157.968ZM148.503 74.0559C143.275 74.0559 139.037 69.8179 139.037 64.5901H137.237C137.237 70.812 142.281 75.8559 148.503 75.8559V74.0559ZM139.037 64.5901C139.037 59.3622 143.275 55.1242 148.503 55.1242V53.3242C142.281 53.3242 137.237 58.3681 137.237 64.5901H139.037ZM148.503 55.1242C153.73 55.1242 157.968 59.3622 157.968 64.5901H159.768C159.768 58.3681 154.725 53.3242 148.503 53.3242V55.1242ZM221.29 76.8858C221.29 78.9135 219.646 80.5573 217.619 80.5573V82.3573C220.64 82.3573 223.09 79.9076 223.09 76.8858H221.29ZM217.619 80.5573C215.591 80.5573 213.947 78.9135 213.947 76.8858H212.147C212.147 79.9076 214.597 82.3573 217.619 82.3573V80.5573ZM213.947 76.8858C213.947 74.8582 215.591 73.2144 217.619 73.2144V71.4144C214.597 71.4144 212.147 73.8641 212.147 76.8858H213.947ZM217.619 73.2144C219.646 73.2144 221.29 74.8582 221.29 76.8858H223.09C223.09 73.8641 220.64 71.4144 217.619 71.4144V73.2144ZM152.978 64.5901C152.978 67.0621 150.974 69.0661 148.502 69.0661V70.8661C151.968 70.8661 154.778 68.0562 154.778 64.5901H152.978ZM148.502 69.0661C146.03 69.0661 144.026 67.0621 144.026 64.5901H142.226C142.226 68.0562 145.035 70.8661 148.502 70.8661V69.0661ZM144.026 64.5901C144.026 62.118 146.03 60.114 148.502 60.114V58.314C145.035 58.314 142.226 61.1239 142.226 64.5901H144.026ZM148.502 60.114C150.974 60.114 152.978 62.118 152.978 64.5901H154.778C154.778 61.1239 151.968 58.314 148.502 58.314V60.114ZM169.039 64.5901C169.039 75.933 159.844 85.1282 148.501 85.1282V86.9282C160.838 86.9282 170.839 76.9271 170.839 64.5901H169.039ZM148.501 85.1282C137.158 85.1282 127.962 75.933 127.962 64.5901H126.163C126.163 76.9271 136.164 86.9282 148.501 86.9282V85.1282ZM127.962 64.5901C127.962 53.2472 137.158 44.0519 148.501 44.0519V42.2519C136.164 42.2519 126.163 52.253 126.163 64.5901H127.962ZM148.501 44.0519C159.844 44.0519 169.039 53.2472 169.039 64.5901H170.839C170.839 52.253 160.838 42.2519 148.501 42.2519V44.0519ZM226.171 76.887C226.171 81.6115 222.341 85.4414 217.617 85.4414V87.2414C223.335 87.2414 227.971 82.6056 227.971 76.887H226.171ZM217.617 85.4414C212.892 85.4414 209.062 81.6115 209.062 76.887H207.262C207.262 82.6056 211.898 87.2414 217.617 87.2414V85.4414ZM209.062 76.887C209.062 72.1626 212.892 68.3327 217.617 68.3327V66.5327C211.898 66.5327 207.262 71.1685 207.262 76.887H209.062ZM217.617 68.3327C222.341 68.3327 226.171 72.1626 226.171 76.887H227.971C227.971 71.1685 223.335 66.5327 217.617 66.5327V68.3327ZM148.503 37.7714C163.314 37.7714 175.321 49.7785 175.321 64.5901H177.121C177.121 48.7844 164.308 35.9714 148.503 35.9714V37.7714ZM175.321 64.5901C175.321 67.2636 174.93 69.8442 174.203 72.2786L175.928 72.7938C176.704 70.194 177.121 67.4399 177.121 64.5901H175.321ZM175.18 71.6436L169.002 70.8473L168.772 72.6325L174.95 73.4288L175.18 71.6436ZM128.841 46.3509C133.74 41.0725 140.735 37.7714 148.503 37.7714V35.9714C140.214 35.9714 132.747 39.4964 127.521 45.1265L128.841 46.3509ZM127.536 46.3664L131.854 50.8033L133.144 49.5478L128.826 45.111L127.536 46.3664ZM149.401 85.9451V81.9819H147.601V85.9451H149.401ZM149.401 47.1982V43.235H147.601V47.1982H149.401ZM218.518 86.3039V84.5561H216.718V86.3039H218.518ZM218.518 69.2165V67.4687H216.718V69.2165H218.518ZM134.037 80.3265L136.839 77.5241L135.567 76.2513L132.764 79.0538L134.037 80.3265ZM161.435 52.9283L164.238 50.1259L162.965 48.8531L160.162 51.6556L161.435 52.9283ZM211.596 84.1819L212.832 82.9461L211.559 81.6733L210.323 82.9091L211.596 84.1819ZM223.678 72.0985L224.914 70.8626L223.641 69.5898L222.405 70.8257L223.678 72.0985ZM132.764 50.1254L135.567 52.9278L136.839 51.655L134.037 48.8526L132.764 50.1254ZM160.162 77.5236L162.965 80.326L164.238 79.0532L161.435 76.2508L160.162 77.5236ZM210.323 70.8631L211.559 72.099L212.832 70.8262L211.596 69.5903L210.323 70.8631ZM222.405 82.9453L223.641 84.1812L224.914 82.9084L223.678 81.6725L222.405 82.9453ZM127.147 65.4901H131.11V63.6901H127.147V65.4901ZM165.893 65.4901H169.857V63.6901H165.893V65.4901ZM208.199 77.786H209.947V75.986H208.199V77.786ZM225.285 77.786H227.033V75.986H225.285V77.786ZM215.998 67.8849V63.3003H214.198V67.8849H215.998ZM202.251 31.901V21.335H200.451V31.901H202.251ZM201.453 22.1325H206.442V20.3325H201.453V22.1325ZM205.644 21.335V31.901H207.444V21.335H205.644ZM206.442 22.1325C206.001 22.1325 205.644 21.7753 205.644 21.335H207.444C207.444 20.7814 206.996 20.3325 206.442 20.3325V22.1325ZM202.251 21.335C202.251 21.7755 201.893 22.1325 201.453 22.1325V20.3325C200.899 20.3325 200.451 20.7813 200.451 21.335H202.251ZM222.18 67.8069V63.2223H220.38V67.8069H222.18ZM176.537 64.1219L222.976 64.0435L222.973 62.2435L176.534 62.3219L176.537 64.1219ZM222.971 31.1378H179.974V32.9378H222.971V31.1378ZM179.496 31.2592L172.333 35.1475L173.192 36.7294L180.355 32.8412L179.496 31.2592ZM172.333 35.1475L162.932 40.2509L163.79 41.8329L173.192 36.7294L172.333 35.1475ZM173.322 35.2335L163.92 27.7726L162.802 29.1826L172.203 36.6434L173.322 35.2335ZM225.871 38.7954V34.0378H224.071V38.7954H225.871ZM224.971 37.8954H215.472V39.6954H224.971V37.8954ZM225.871 61.1436V53.183H224.071V61.1436H225.871ZM224.971 52.283H215.212V54.083H224.971V52.283ZM225.871 53.183V45.9892H224.071V53.183H225.871ZM225.871 45.9892V38.7954H224.071V45.9892H225.871ZM224.971 45.0892H215.472V46.8892H224.971V45.0892ZM179.974 31.1378C179.799 31.1378 179.636 31.1832 179.496 31.2592L180.355 32.8412C180.245 32.9009 180.114 32.9378 179.974 32.9378V31.1378ZM222.971 32.9378C223.579 32.9378 224.071 33.4303 224.071 34.0378H225.871C225.871 32.4361 224.573 31.1378 222.971 31.1378V32.9378ZM222.976 64.0435C224.576 64.0408 225.871 62.7433 225.871 61.1436H224.071C224.071 61.7503 223.58 62.2425 222.973 62.2435L222.976 64.0435Z" fill="#58C88A"/>
</svg>
