<svg width="231" height="101" viewBox="0 0 231 101" fill="none" xmlns="http://www.w3.org/2000/svg">
<path d="M126.885 49.0084C126.411 49.0086 124.029 49.0086 121.155 49.0086C115.899 49.0085 111.637 53.2697 111.637 58.5262V61.5663M111.637 61.5663L99.5262 73.677M111.637 61.5663V63.3838M111.637 83.3647L96.0674 89.0839M111.637 83.3647L99.5262 73.677M111.637 83.3647V63.3838M96.0674 89.0839L85.2637 93.0525V87.9395L99.5262 73.677M96.0674 89.0839L99.5262 73.677M111.637 63.3838H120.267M131.14 44.2767C134.392 43.0628 137.913 42.3992 141.588 42.3992C156.043 42.3992 168.101 52.6637 170.87 66.3016M164.882 70.6754H214.678L220.498 66.7137H229.654V70.6754H223.46L216.728 76.4082H164.757M203.59 70.7506L208.463 49.4806C209.237 46.1025 209.264 42.5961 208.541 39.2067L205.598 25.3999C204.427 19.9087 199.577 15.9834 193.962 15.9834H140.972C135.429 15.9834 130.62 19.8126 129.378 25.2156L126.585 37.3694C125.823 40.6846 125.781 44.1247 126.461 47.4576L127.677 53.4163M171.46 44.0897H199.473M28.264 29.2427C30.1625 25.8304 33.6568 17.4772 32.4457 11.3628M30.6371 24.1145L33.761 22.2378M32.2034 18.4505L34.2536 16.7235M31.7883 19.2855L30.3379 17.0311M31.0637 22.2377L29.6133 19.9833M9.05219 43.0806C12.8901 43.8005 21.5484 46.4501 25.478 51.2886M14.5133 44.5319L17.953 43.3281M19.8711 46.9462L22.5096 46.4725M18.9635 46.7319L19.7709 49.2881M16.2296 45.403L17.037 47.9592M59.8656 29.5542C62.842 30.8104 70.025 32.9368 74.9456 31.3936M85.5148 9.80447L83.7052 10.8111C82.2311 11.6355 80.7387 12.5205 79.186 13.4413C70.8952 18.3581 61.1755 24.7238 43.011 27.9051C28.0325 30.5285 17.6417 34.9348 10.8668 38.7168C7.4779 40.6086 4.50049 43.7845 2.77469 45.0847M0.515625 40.1763C2.77469 39.047 5.34082 37.2205 8.9171 35.2241C16.0727 31.2296 26.8881 26.668 42.3209 23.9651C59.7276 20.9165 69.4049 16.1223 77.65 11.2385C79.2294 10.303 80.7659 9.39281 82.3073 8.53087L84.3752 7.40093M62.4161 18.6747C63.2099 18.0261 65.5686 15.6745 66.837 11.2906C68.1054 6.90675 66.1165 6.01319 63.4476 6.82019C61.3838 7.59305 61.8217 11.1868 63.8654 10.8949M57.4962 44.9884C58.9349 41.5174 59.3178 36.3447 58.9349 32.232C58.6524 29.1973 58.2441 26.5057 57.7902 24.3599M56.2979 41.9306C57.4962 39.3274 57.3184 36.4439 56.9435 32.4174C56.6774 29.5588 56.239 27.0484 55.8145 25.0043M56.7485 58.2174C59.1758 57.2934 60.8809 55.1153 60.8809 52.5754C60.8809 49.1982 57.8662 46.4605 54.1475 46.4605C50.4287 46.4605 47.4141 49.1982 47.4141 52.5754C47.4141 55.0813 49.0737 57.235 51.4493 58.1796M60.6575 51.4945C61.7645 50.7153 63.1542 50.2515 64.6632 50.2515C68.2776 50.2515 71.2076 52.9124 71.2076 56.1949C71.2076 59.1176 68.8846 61.5476 65.8239 62.045M61.7811 61.5324C59.8915 60.6893 58.5149 59.0429 58.1914 57.0837M58.3301 47.8085C58.3301 44.5261 61.4976 41.7701 65.112 41.7701C68.7265 41.7701 71.6565 44.431 71.6565 47.7134C71.6565 49.4552 70.8315 51.0219 69.517 52.109M56.1046 46.4605C56.1046 43.1781 53.1745 40.5171 49.5601 40.5171C45.9457 40.5171 43.0156 43.1781 43.0156 46.4605C43.0156 49.0209 44.7984 51.2031 47.2981 52.0393M52.607 69.9043C51.5834 71.9736 49.2941 73.4146 46.6343 73.4146C43.0199 73.4146 40.0898 70.7537 40.0898 67.4712C40.0898 64.1888 43.0199 61.5279 46.6343 61.5279C47.0355 61.5279 47.4283 61.5607 47.8096 61.6235M53.2818 69.6825C51.8623 70.7727 50.9609 72.4021 50.9609 74.2226C50.9609 77.505 53.891 80.1659 57.5054 80.1659C61.1198 80.1659 64.0499 77.505 64.0499 74.2226C64.0499 71.1426 61.4702 68.6099 58.166 68.3091M60.1953 62.1538C61.0759 61.7533 62.0699 61.5279 63.1218 61.5279C66.7363 61.5279 69.6663 64.1888 69.6663 67.4712C69.6663 70.5024 67.1677 73.0035 63.939 73.3687M47.3745 52.3655C46.5643 52.0392 45.6675 51.858 44.7242 51.858C41.1097 51.858 38.1797 54.5189 38.1797 57.8013C38.1797 60.1539 39.6848 62.1872 41.8683 63.1504M43.524 72.7828C43.0144 73.6286 42.7246 74.5994 42.7246 75.6316C42.7246 78.5088 44.9759 80.9085 47.966 81.4571C49.9397 81.8193 52.3517 80.8413 53.3079 78.8744M59.0902 80.0855C59.9748 81.099 60.503 82.3807 60.503 83.7744C60.503 87.0568 57.5729 89.7177 53.9585 89.7177C50.3441 89.7177 47.4141 87.0568 47.4141 83.7744C47.4141 82.9829 47.5844 82.2276 47.8936 81.537M164.636 72.2786C164.636 85.0078 154.317 95.3269 141.588 95.3269C128.858 95.3269 118.539 85.0078 118.539 72.2786C118.539 59.5493 128.858 49.2302 141.588 49.2302C154.317 49.2302 164.636 59.5493 164.636 72.2786ZM155.656 72.2774C155.656 80.0478 149.357 86.3468 141.586 86.3468C133.816 86.3468 127.517 80.0478 127.517 72.2774C127.517 64.5071 133.816 58.208 141.586 58.208C149.357 58.208 155.656 64.5071 155.656 72.2774ZM146.816 72.2783C146.816 75.167 144.474 77.5087 141.585 77.5087C138.697 77.5087 136.355 75.167 136.355 72.2783C136.355 69.3897 138.697 67.048 141.585 67.048C144.474 67.048 146.816 69.3897 146.816 72.2783ZM29.8441 26.468C31.6436 26.6759 35.9865 25.9055 39.0771 21.1962C39.1165 21.1362 39.0817 21.0545 39.0108 21.0427L37.717 20.8273C37.6397 20.8144 37.6048 20.7204 37.6498 20.6562C38.1859 19.8901 38.9358 17.7153 38.3724 13.9694C38.3619 13.8996 38.2837 13.8615 38.2229 13.8975L37.2646 14.4656C37.203 14.5021 37.1241 14.465 37.1131 14.3942C36.8112 12.4485 35.447 8.33518 32.1636 6.21645C32.1237 6.19071 32.0721 6.19573 32.0394 6.23017C30.5586 7.79083 27.9153 11.3877 28.5401 13.9741C28.558 14.0482 28.4935 14.1169 28.4203 14.0954C28.0593 13.9894 27.467 13.7435 27.0114 13.3275C26.9518 13.273 26.8524 13.3007 26.8367 13.38C26.5523 14.8213 26.2667 17.4054 26.936 18.4243C26.9941 18.5128 26.9134 18.6867 26.809 18.6698C26.3484 18.5951 25.7517 18.4634 25.4341 18.2781C24.8941 17.9631 25.2086 26.1077 29.8441 26.468ZM12.1963 43.6381C13.1861 42.121 16.5537 39.2726 22.151 39.9043C22.2224 39.9123 22.263 39.9913 22.2268 40.0533L21.5658 41.1862C21.5263 41.2539 21.5763 41.3408 21.6544 41.3473C22.5864 41.4244 24.7385 42.2371 27.2598 45.064C27.3069 45.1168 27.2862 45.2012 27.2197 45.2249L26.1704 45.5992C26.1029 45.6232 26.081 45.7076 26.1285 45.7612C27.4323 47.2367 29.7247 50.9144 29.2565 54.7939C29.2508 54.8411 29.214 54.8775 29.1666 54.8807C27.0199 55.0225 22.5641 54.7577 20.9738 52.6244C20.9282 52.5633 20.8341 52.569 20.8039 52.639C20.6549 52.9844 20.4655 53.5972 20.4944 54.2134C20.4982 54.2942 20.4134 54.3529 20.3424 54.3143C19.0519 53.6121 16.8816 52.1806 16.5255 51.0148C16.4946 50.9135 16.3093 50.8644 16.2555 50.9556C16.0187 51.3576 15.7388 51.9008 15.6784 52.2636C15.5756 52.8802 9.51143 47.4341 12.1963 43.6381ZM62.2892 30.6058C62.2792 32.1016 63.2975 35.5942 67.4278 37.716C67.4917 37.7488 67.569 37.7053 67.5731 37.6336L67.6312 36.6073C67.6357 36.5291 67.7251 36.4836 67.7945 36.5202C68.4919 36.8878 70.3305 37.2878 73.3074 36.5082C73.3757 36.4903 73.405 36.4085 73.3626 36.352L72.8405 35.6558C72.7976 35.5985 72.8269 35.5158 72.896 35.497C74.4766 35.0659 77.7028 33.5801 79.1468 30.714C79.1682 30.6716 79.1574 30.6207 79.1196 30.592C77.7042 29.5173 74.5427 27.6883 72.4761 28.4055C72.4041 28.4305 72.329 28.3736 72.3433 28.2987C72.4009 27.9968 72.5448 27.5211 72.8241 27.127C72.8709 27.0611 72.8325 26.9651 72.7519 26.9584C71.5651 26.8587 69.519 26.8582 68.7037 27.4486C68.6179 27.5107 68.4291 27.4432 68.4356 27.3375C68.4588 26.9638 68.5144 26.5061 68.6306 26.2458C68.8413 25.7735 62.1706 26.761 62.2892 30.6058ZM60.503 63.7447C60.503 67.0271 57.5729 69.688 53.9585 69.688C50.3441 69.688 47.4141 67.0271 47.4141 63.7447C47.4141 60.4622 50.3441 57.8013 53.9585 57.8013C57.5729 57.8013 60.503 60.4622 60.503 63.7447Z" stroke="#58C88A" stroke-width="1.8"/>
</svg>
