<svg width="231" height="101" viewBox="0 0 231 101" fill="none" xmlns="http://www.w3.org/2000/svg">
<path d="M152.602 42.1385C163.247 44.1389 173.414 37.3055 175.311 26.8758C175.462 26.046 175.556 25.2184 175.596 24.3969C175.669 22.8899 173.95 22.1013 172.693 22.9541L165.627 27.7481C165.031 28.1524 164.256 28.2109 163.595 27.9015L156.279 24.4785C155.618 24.1691 155.171 23.5389 155.105 22.8252L154.383 14.929C154.317 14.2154 154.644 13.5267 155.24 13.1224L162.471 8.21692C163.716 7.3719 163.579 5.53986 162.131 5.0575C161.274 4.77189 160.387 4.54084 159.474 4.36923C148.829 2.36886 138.662 9.20218 136.765 19.6319M152.602 42.1385C150.834 41.8062 149.164 41.251 147.617 40.5083C146.903 40.1657 146.056 40.1923 145.413 40.6354L140.188 44.2364M152.602 42.1385L153.881 47.5656C154.053 48.2986 154.627 48.8808 155.368 49.0741L160.962 50.5348C161.854 50.7677 162.489 51.5568 162.476 52.4603C162.438 54.9309 162.197 57.4285 161.741 59.9345C161.284 62.4477 160.628 64.8742 159.79 67.2013C159.485 68.05 158.614 68.5556 157.699 68.4484L152.182 67.8026C151.311 67.7006 150.483 68.1583 150.088 68.9212C148.892 71.2297 147.468 73.3863 145.848 75.3684C145.303 76.0353 145.216 76.9691 145.665 77.714L148.507 82.4291C148.978 83.2112 148.865 84.203 148.205 84.8241C144.528 88.2836 140.289 91.1311 135.667 93.2466C134.837 93.6264 133.849 93.374 133.271 92.6637L129.785 88.3821C129.234 87.7056 128.311 87.4497 127.479 87.7082C125.017 88.4725 122.459 88.9984 119.839 89.2634C118.97 89.3513 118.237 89.9422 118.022 90.7724L116.658 96.0443C116.432 96.9166 115.638 97.5297 114.719 97.505C112.191 97.4371 109.632 97.168 107.062 96.6849C104.499 96.2033 102.022 95.5274 99.6434 94.6756C98.7762 94.365 98.2499 93.504 98.3456 92.6072L98.9238 87.1882C99.0149 86.3347 98.5383 85.5167 97.7573 85.1191C96.369 84.4123 95.0328 83.6287 93.7537 82.775M136.765 19.6319L132.746 17.3286C132.043 16.9253 131.643 16.1542 131.729 15.3641L132.328 9.82425C132.425 8.92672 131.899 8.06429 131.031 7.75324C128.651 6.90035 126.172 6.22357 123.607 5.74155C121.049 5.2609 118.503 4.99206 115.987 4.9225C115.067 4.89706 114.272 5.51085 114.046 6.38419L112.687 11.6489C112.472 12.4804 111.738 13.0721 110.868 13.1593C108.234 13.4229 105.664 13.95 103.191 14.7178C102.36 14.9758 101.438 14.721 100.887 14.0461L97.3894 9.76314C96.8107 9.05439 95.8237 8.80315 94.9948 9.18265C90.3637 11.303 86.1177 14.1583 82.4363 17.6277C81.7774 18.2486 81.6648 19.2392 82.1352 20.0207L84.9782 24.7443C85.4261 25.4884 85.3402 26.4208 84.7966 27.0873C83.1868 29.0609 81.7706 31.2072 80.5812 33.5038C80.1866 34.2657 79.36 34.7233 78.4897 34.6226L72.9645 33.9837C72.0502 33.878 71.1805 34.3836 70.8756 35.2315C70.0394 37.5567 69.3835 39.981 68.9267 42.492C68.4685 45.0105 68.228 47.5204 68.192 50.0031C68.1788 50.9056 68.8135 51.6936 69.7046 51.9268L75.0903 53.336C75.9384 53.558 76.5497 54.2853 76.6506 55.1402C76.7952 56.3663 76.9998 57.5793 77.2619 58.7756M136.765 19.6319C136.509 21.0379 136.416 22.4375 136.474 23.8117C136.504 24.5325 136.19 25.2297 135.591 25.6401L129.326 29.9385M87.1047 81.6445C85.2852 87.4604 79.2702 91.1012 72.9947 89.9218C66.2142 88.6476 61.6974 82.2288 62.9061 75.585C64.0703 69.1858 70.1216 64.9119 76.6245 65.7446M87.1047 81.6445L88.7808 80.6853C89.5326 80.2551 90.4831 80.3516 91.1689 80.8944C92.0018 81.5537 92.864 82.1813 93.7537 82.775M87.1047 81.6445L84.0085 83.4162C83.2189 83.868 82.2088 83.7444 81.568 83.0891C77.9873 79.4274 75.0245 75.2192 72.8049 70.6423C72.4077 69.8231 72.6506 68.8569 73.3646 68.2977L76.6245 65.7446M76.6245 65.7446L77.6798 64.9181C78.3597 64.3856 78.6071 63.4835 78.3335 62.6636C77.9088 61.391 77.5505 60.0934 77.2619 58.7756M77.2619 58.7756C66.9681 57.3397 57.3416 64.0736 55.5005 74.1934C53.603 84.6231 60.6938 94.6996 71.3381 96.7C81.5202 98.6135 91.2657 92.4437 93.7537 82.775M90.7446 56.5255L129.326 29.9385M129.326 29.9385C126.535 28.1456 123.352 26.8473 119.885 26.1957C105.784 23.5458 92.3154 32.5982 89.8018 46.415C87.2882 60.2318 96.6816 73.5807 110.783 76.2307C124.884 78.8807 138.353 69.8282 140.866 56.0115C141.603 51.9602 141.317 47.9492 140.188 44.2364M140.188 44.2364L100.772 71.3987M99.4704 58.338L135.052 34.21C136.143 33.4708 137.648 33.7475 138.415 34.8279C139.182 35.9084 138.92 37.3835 137.83 38.1226L102.248 62.2506" stroke="#58C88A" stroke-width="1.8" stroke-linecap="round"/>
</svg>
