<svg width="230" height="101" viewBox="0 0 230 101" fill="none" xmlns="http://www.w3.org/2000/svg">
<path d="M115.135 13.1528C103.47 6.12825 79.4464 5.82921 68.5308 6.5359C68.4257 6.5427 68.3496 6.62962 68.3496 6.73492V87.6371C68.3496 87.7528 68.4413 87.8447 68.5568 87.8373C79.4848 87.1366 103.502 87.7408 115.158 94.7598M115.135 13.1528C126.8 6.12828 150.553 5.82921 161.466 6.53589C161.571 6.5427 161.647 6.62962 161.647 6.73492V87.6371C161.647 87.7528 161.555 87.8447 161.44 87.8373C150.516 87.1366 126.813 87.7408 115.158 94.7598M115.135 13.1528L115.158 94.7598M78.1855 60.4594C85.5353 60.1026 99.5405 60.4593 104.203 62.1601M79.697 67.6409C86.4954 67.2841 99.4499 67.6408 103.762 69.3416M154.342 28.1387C150.529 27.979 143.922 28.6733 141.244 29.2911M154.342 51.2416C150.529 51.0819 143.922 51.7763 141.244 52.394M154.342 73.4131C150.529 73.2534 143.922 73.9478 141.244 74.5656M154.342 22.601C150.529 22.4413 143.922 23.1357 141.244 23.7535M154.342 45.704C150.529 45.5443 143.922 46.2386 141.244 46.8564M154.342 67.8755C150.529 67.7158 143.922 68.4102 141.244 69.0279M87.2754 24.8786L78.8244 24.3729C78.7516 24.3686 78.6901 24.4264 78.6901 24.4993V51.7106C78.6901 51.7773 78.7419 51.8326 78.8084 51.837L103.313 53.4577C103.386 53.4625 103.447 53.406 103.448 53.3337L103.948 25.9978C103.949 25.9299 103.896 25.8731 103.829 25.8691L95.6126 25.3775M87.2754 24.8786V35.1437C87.2754 35.2103 87.327 35.2655 87.3935 35.2701L95.4774 35.8198C95.5505 35.8247 95.6126 35.7667 95.6126 35.6934V25.3775M87.2754 24.8786L95.6126 25.3775M134.366 19.0495V31.4887C134.366 31.5554 134.314 31.6107 134.247 31.6151L123.058 32.3552C122.986 32.36 122.924 32.3034 122.923 32.2311L122.695 19.7351C122.693 19.6672 122.746 19.6104 122.814 19.6063L134.232 18.9231C134.304 18.9187 134.366 18.9766 134.366 19.0495ZM134.366 41.8519V54.2911C134.366 54.3578 134.314 54.413 134.247 54.4174L123.058 55.1575C122.986 55.1623 122.924 55.1058 122.923 55.0335L122.695 42.5374C122.693 42.4695 122.746 42.4127 122.814 42.4087L134.232 41.7255C134.304 41.7211 134.366 41.779 134.366 41.8519ZM134.366 63.7723V76.2115C134.366 76.2782 134.314 76.3335 134.247 76.3379L123.058 77.078C122.986 77.0828 122.924 77.0262 122.923 76.9539L122.695 64.4579C122.693 64.39 122.746 64.3332 122.814 64.3291L134.232 63.6459C134.304 63.6415 134.366 63.6994 134.366 63.7723Z" stroke="#58C88A" stroke-width="1.8" stroke-linecap="round"/>
</svg>
